<svg xmlns="http://www.w3.org/2000/svg" xmlns:ev="http://www.w3.org/2001/xml-events" xmlns:xlink="http://www.w3.org/1999/xlink" width="1234.128" height="553.811" class="st48" color-interpolation-filters="sRGB" viewBox="0 0 925.594 415.358" xml:space="preserve"><style type="text/css">.st1{fill:#f2f2f2;stroke:#a5a5a5;stroke-linecap:round;stroke-linejoin:round;stroke-width:1.5}.st2,.st3{fill:#000;font-family:Segoe UI;font-size:1.5em;font-weight:700}.st3{font-size:1.00001em}.st4{fill:url(#grad0-12);stroke:none;stroke-linecap:butt;stroke-width:.75}.st5{fill:#e6e6e6}.st10,.st11{stroke-linecap:butt}.st10,.st11,.st12,.st6,.st7,.st8,.st9{stroke:none;stroke-width:.75}.st6,.st7,.st8,.st9{stroke-linecap:butt}.st7{fill:#50e6ff}.st8{fill:#198ab3}.st9{fill:url(#grad0-25)}.st10{fill:url(#grad0-29)}.st11{fill:#fff}.st12{fill:none;stroke-linecap:round;stroke-linejoin:round}.st13{fill:#000;font-family:Segoe UI;font-size:1.00001em}.st14{font-size:1em}.st15{fill:url(#grad1-44)}.st15,.st16,.st17,.st18,.st19{stroke:none;stroke-linecap:butt;stroke-width:.75}.st20{stroke:none}.st16{fill:#9cebff}.st17{fill:#32bedd}.st18{fill:#f04049}.st19{fill:url(#grad7-62)}.st20{fill:none;stroke-linecap:round;stroke-linejoin:round;stroke-width:1.5}.st21{fill:#000;font-family:Segoe UI;font-size:1.16666em;font-weight:700}.st22{fill:#fff;stroke:#a5a5a5;stroke-linecap:round;stroke-linejoin:round;stroke-width:1.5}.st23{font-family:Wingdings;font-size:1em}.st24{fill:url(#grad0-89);stroke:none;stroke-linecap:round;stroke-linejoin:round;stroke-width:.24}.st25,.st26{stroke:#83b9f9}.st25{marker-end:url(#mrkr2-95);stroke-width:3.5}.st26{fill:#83b9f9;fill-opacity:1;stroke-opacity:1;stroke-width:.7085020242915}.st27{fill:url(#grad0-99);stroke-linecap:round;stroke-linejoin:round}.st27,.st28{stroke:none;stroke-width:.24}.st28,.st29{stroke-linecap:round;stroke-linejoin:round}.st28{fill:#fff}.st29{fill:none;stroke:#fff;stroke-width:.25}.st30,.st31{stroke:#fff;stroke-width:1}.st31{stroke-width:.75}.st32{fill:url(#grad0-126);stroke-linecap:butt}.st32,.st33,.st34{stroke:none;stroke-width:.75}.st33{fill:#0078d4;stroke-linecap:butt}.st34{fill:#e62323}.st34,.st35,.st36{stroke-linecap:butt}.st35{fill:#4f4f4f;stroke:none;stroke-width:.75}.st36{marker-end:url(#mrkr5-162);stroke:#000;stroke-width:4}.st37{fill:#000;fill-opacity:1;stroke:#000;stroke-opacity:1;stroke-width:.61349693251534}.st38{fill:#f2f2f2;stroke:#7f7f7f;stroke-linecap:round;stroke-linejoin:round;stroke-width:1.5}.st39{fill:url(#grad0-170)}.st39,.st40,.st41,.st42{stroke:none;stroke-linecap:butt;stroke-width:.75}.st40{fill:url(#grad0-174)}.st41{fill:#5ea0ef}.st42{fill:#83b9f9}.st43{fill:#000;font-family:Calibri;font-size:1.00001em}.st44,.st45{fill:url(#grad0-221);stroke:none;stroke-linecap:butt;stroke-width:.75}.st45{fill:url(#grad0-229)}.st46{fill:#000;font-family:Calibri;font-size:.75em}.st47{fill:url(#grad0-237);stroke:#fff;stroke-linecap:butt;stroke-width:.75}.st48{fill:none;fill-rule:evenodd;font-size:12px;overflow:visible;stroke-linecap:square;stroke-miterlimit:3}</style><defs id="Patterns_And_Gradients"><linearGradient id="grad0-12" x1="0" x2="1" y1="0" y2="0" gradientTransform="rotate(0.12781289921392 0.5 0.5)"><stop offset="0" stop-color="#005ba1" stop-opacity="1"/><stop offset=".07" stop-color="#0060a9" stop-opacity="1"/><stop offset=".355" stop-color="#0071c8" stop-opacity="1"/><stop offset=".515" stop-color="#0078d4" stop-opacity="1"/><stop offset=".64" stop-color="#0074cd" stop-opacity="1"/><stop offset=".82" stop-color="#006abb" stop-opacity="1"/><stop offset="1" stop-color="#005ba1" stop-opacity="1"/></linearGradient><linearGradient id="grad0-25" x1="0" x2="1" y1="0" y2="0" gradientTransform="rotate(-90 0.5 0.5)"><stop offset="0" stop-color="#1988d9" stop-opacity="1"/><stop offset=".9" stop-color="#54aef0" stop-opacity="1"/></linearGradient><linearGradient id="grad0-29" x1="0" x2="1" y1="0" y2="0" gradientTransform="rotate(-90 0.5 0.5)"><stop offset="0" stop-color="#198ab3" stop-opacity="1"/><stop offset=".01" stop-color="#198bb4" stop-opacity="1"/><stop offset=".44" stop-color="#27b2d7" stop-opacity="1"/><stop offset=".79" stop-color="#2fcbed" stop-opacity="1"/><stop offset="1" stop-color="#32d4f5" stop-opacity="1"/></linearGradient><radialGradient id="grad1-44" cx="1" cy="1" r="1.4"><stop offset=".18" stop-color="#5ea0ef" stop-opacity="1"/><stop offset=".56" stop-color="#5c9fee" stop-opacity="1"/><stop offset=".69" stop-color="#559ced" stop-opacity="1"/><stop offset=".78" stop-color="#4a97e9" stop-opacity="1"/><stop offset=".86" stop-color="#3990e4" stop-opacity="1"/><stop offset=".93" stop-color="#2387de" stop-opacity="1"/><stop offset=".99" stop-color="#087bd6" stop-opacity="1"/><stop offset="1" stop-color="#0078d4" stop-opacity="1"/></radialGradient><radialGradient id="grad7-62" cx="0" cy="0" r="1.4"><stop offset=".19" stop-color="#8c8e90" stop-opacity="1"/><stop offset=".35" stop-color="#848688" stop-opacity="1"/><stop offset=".6" stop-color="#6e7071" stop-opacity="1"/><stop offset=".91" stop-color="#4a4b4c" stop-opacity="1"/><stop offset="1" stop-color="#3e3f3f" stop-opacity="1"/></radialGradient><linearGradient id="grad0-89" x1="0" x2="1" y1="0" y2="0" gradientTransform="rotate(90 0.5 0.5)"><stop offset="0" stop-color="#4d98ea" stop-opacity="1"/><stop offset="1" stop-color="#0078d4" stop-opacity="1"/></linearGradient><linearGradient id="grad0-99" x1="0" x2="1" y1="0" y2="0" gradientTransform="rotate(90 0.5 0.5)"><stop offset="0" stop-color="#4be0fa" stop-opacity="1"/><stop offset="1" stop-color="#3dcce9" stop-opacity="1"/></linearGradient><linearGradient id="grad0-126" x1="0" x2="1" y1="0" y2="0" gradientTransform="rotate(90 0.5 0.5)"><stop offset="0" stop-color="#5ea0ef" stop-opacity="1"/><stop offset="1" stop-color="#0078d4" stop-opacity="1"/></linearGradient><linearGradient id="grad0-170" x1="0" x2="1" y1="0" y2="0" gradientTransform="rotate(-90 0.5 0.5)"><stop offset="0" stop-color="#198ab3" stop-opacity="1"/><stop offset=".09" stop-color="#1f9dc4" stop-opacity="1"/><stop offset=".24" stop-color="#28b5d9" stop-opacity="1"/><stop offset=".4" stop-color="#2dc6e9" stop-opacity="1"/><stop offset=".57" stop-color="#31d1f2" stop-opacity="1"/><stop offset=".78" stop-color="#32d4f5" stop-opacity="1"/></linearGradient><linearGradient id="grad0-174" x1="0" x2="1" y1="0" y2="0" gradientTransform="rotate(90 0.5 0.5)"><stop offset="0" stop-color="#c69aeb" stop-opacity="1"/><stop offset="1" stop-color="#6f4bb2" stop-opacity="1"/></linearGradient><linearGradient id="grad0-221" x1="0" x2="1" y1="0" y2="0" gradientTransform="rotate(90 0.5 0.5)"><stop offset="0" stop-color="#32bedd" stop-opacity="1"/><stop offset=".065" stop-color="#3dcce9" stop-opacity="1"/><stop offset=".17" stop-color="#48dbf5" stop-opacity="1"/><stop offset=".295" stop-color="#4ee3fd" stop-opacity="1"/><stop offset=".49" stop-color="#50e6ff" stop-opacity="1"/><stop offset=".705" stop-color="#4ee4fd" stop-opacity="1"/><stop offset=".83" stop-color="#48dbf6" stop-opacity="1"/><stop offset=".93" stop-color="#3dcdea" stop-opacity="1"/><stop offset="1" stop-color="#32bedd" stop-opacity="1"/></linearGradient><linearGradient id="grad0-229" x1="0" x2="1" y1="0" y2="0" gradientTransform="rotate(90 0.5 0.5)"><stop offset="0" stop-color="#198ab3" stop-opacity="1"/><stop offset=".025" stop-color="#1d92b9" stop-opacity="1"/><stop offset=".1" stop-color="#26a5c9" stop-opacity="1"/><stop offset=".19" stop-color="#2cb2d4" stop-opacity="1"/><stop offset=".305" stop-color="#30bada" stop-opacity="1"/><stop offset=".53" stop-color="#31bcdc" stop-opacity="1"/><stop offset=".655" stop-color="#2eb5d6" stop-opacity="1"/><stop offset=".84" stop-color="#24a1c6" stop-opacity="1"/><stop offset="1" stop-color="#198ab3" stop-opacity="1"/></linearGradient><linearGradient id="grad0-237" x1="0" x2="1" y1="0" y2="0" gradientTransform="rotate(90 0.5 0.5)"><stop offset="0" stop-color="#7cafed" stop-opacity="1"/><stop offset="1" stop-color="#0066be" stop-opacity="1"/></linearGradient></defs><defs id="Markers"><g id="lend2"><path style="stroke:none" d="M 1 1 L 0 0 L 1 -1 L 1 1"/></g><marker id="mrkr2-95" class="st26" markerUnits="strokeWidth" orient="auto" overflow="visible" refX="-1.411"><use transform="scale(-1.4114285714286,-1.4114285714286)" xlink:href="#lend2"/></marker><g id="lend5"><path style="stroke:none" d="M 2 1 L 0 0 L 1.98117 -0.993387 C 1.67173 -0.364515 1.67301 0.372641 1.98465 1.00043"/></g><marker id="mrkr5-162" class="st37" markerUnits="strokeWidth" orient="auto" overflow="visible" refX="-2.853"><use transform="scale(-1.63,-1.63)" xlink:href="#lend5"/></marker></defs><g><title>Page-1</title><g id="shape1828-1" transform="translate(272.124,-31.9313)"><title>Rounded Rectangle.5434</title><desc>Azure Monitor</desc><path d="M8.3 415.36 L611.07 415.36 A8.295 8.295 -180 0 0 619.37 407.06 L619.37 40.98 A8.295 8.295 -180 0 0 611.07 32.68 L8.3 32.68 A8.295 8.295 -180 0 0 0 40.98 L0 407.06 A8.295 8.295 -180 0 0 8.3 415.36 Z" class="st1"/><text x="483.93" y="56.88" class="st2">Azure Monitor</text></g><g id="shape1829-4" transform="translate(668.008,-112.719)"><title>Rounded Rectangle.5436</title><desc>Destinations</desc><path d="M9.67 415.36 L145.11 415.36 A9.67415 9.67415 -180 0 0 154.79 405.68 L154.79 229.44 A9.67415 9.67415 -180 0 0 145.11 219.77 L9.67 219.77 A9.67415 9.67415 -180 0 0 0 229.44 L0 405.68 A9.67415 9.67415 -180 0 0 9.67 415.36 Z" class="st1"/><text x="42.21" y="234.57" class="st3">Destinations</text></g><g id="group1830-7" transform="translate(731.54,-234.608)"><title>Sheet.1830</title><g id="group1831-8"><title>Sheet.1831</title><g id="shape1832-9"><title>Sheet.1832</title><path d="M13.9 388.51 C6.25 388.49 0.06 386.21 0.07 383.43 L0 410.26 C0 413.02 6.08 415.28 13.64 415.34 L13.83 415.34 C21.48 415.36 27.68 413.12 27.69 410.33 L27.76 383.5 C27.75 386.29 21.54 388.53 13.9 388.51 Z" class="st4"/></g><g id="shape1833-13" transform="translate(0.0616575,-26.8347)"><title>Sheet.1833</title><path d="M27.7 410.33 C27.7 413.12 21.49 415.36 13.84 415.34 C6.2 415.33 0 413.05 0.01 410.26 C0.01 407.48 6.22 405.24 13.86 405.26 C21.51 405.28 27.7 407.54 27.69 410.33 L27.7 410.33 Z" class="st5"/><path d="M27.7 410.33 C27.7 413.12 21.49 415.36 13.84 415.34 C6.2 415.33 0 413.05 0.01 410.26 C0.01 407.48 6.22 405.24 13.86 405.26 C21.51 405.28 27.7 407.54 27.69 410.33" class="st6"/></g><g id="shape1834-16" transform="translate(3.29525,-29.0772)"><title>Sheet.1834</title><path d="M21.23 412.16 C21.23 413.93 16.47 415.36 10.61 415.34 C4.75 415.32 0 413.88 0 412.11 C0.01 410.33 4.77 408.91 10.63 408.93 C16.49 408.94 21.24 410.39 21.23 412.16 Z" class="st7"/></g><g id="shape1835-18" transform="translate(5.50122,-29.0955)"><title>Sheet.1835</title><path d="M8.41 412.89 A25.5331 25.5331 -180 0 0 -0 414.09 A24.663 24.663 -180 0 0 8.4 415.36 A24.695 24.695 -180 0 0 16.81 414.14 A25.5216 25.5216 -180 0 0 8.41 412.89 Z" class="st8"/></g></g><g id="group1836-20" transform="translate(2.58361,-1.23917)"><title>Sheet.1836</title><g id="group1837-21" transform="translate(0,-1.58209)"><title>Icon-manage-307.6608</title><g id="shape1838-22"><title>Sheet.1838</title><path d="M6.98 409.38 L12.95 409.38 L12.95 415.36 L6.98 415.36 L6.98 409.38 ZM0.83 415.36 L5.98 415.36 L5.98 409.38 L0 409.38 L0 414.53 a0.830389 0.830389 -180 0 0 0.830389 0.830389 ZM0 408.44 L5.98 408.44 L5.98 402.4 L0 402.4 L0 408.44 Z" class="st9"/></g><g id="shape1839-26" transform="translate(6.91991,-6.85071)"><title>Sheet.1839</title><path d="M8.23 398.82 A8.15166 8.15166 0 0 1 16.47 407.12 A8.15166 8.15166 0 0 1 8.23 415.36 L0 415.36 L0 407.05 A8.15166 8.15166 0 0 1 8.23 398.82 Z" class="st10"/></g><g id="shape1840-30" transform="translate(9.74324,-10.6843)"><title>Sheet.1840</title><rect width="1.882" height="5.647" x="0" y="409.712" class="st11"/></g><g id="shape1841-32" transform="translate(13.5077,-10.6843)"><title>Sheet.1841</title><rect width="1.882" height="3.764" x="0" y="411.594" class="st11"/></g><g id="shape1842-34" transform="translate(17.2721,-10.6843)"><title>Sheet.1842</title><rect width="1.882" height="7.529" x="0" y="407.829" class="st11"/></g></g></g></g><g id="shape1843-36" transform="translate(673.978,-201.665)"><title>Sheet.1843</title><desc>Log Analytics workspace</desc><rect width="143.443" height="28.919" x="0" y="386.439" class="st12"/><text x="36.73" y="397.3" class="st13">Log Analytics<tspan x="43.77" class="st14" dy="1.2em">workspace</tspan></text></g><g id="group1844-40" transform="translate(856.813,-0.75)"><title>Icon-manage-317.5451</title><g id="shape1845-41"><title>Sheet.1845</title><ellipse cx="34.016" cy="381.463" class="st15" rx="34.016" ry="33.896"/></g><g id="shape1846-45" transform="translate(4.40204,-4.40204)"><title>Sheet.1846</title><ellipse cx="29.614" cy="385.865" class="st11" rx="29.614" ry="29.494"/></g><g id="shape1847-47" transform="translate(8.88411,-16.1275)"><title>Sheet.1847</title><path d="M-0 399.35 A24.9716 24.9716 -180 0 0 7.28 415.36 L15.29 407.35 A14.1265 14.1265 0 0 1 11.29 399.35 L0 399.35 Z" class="st16"/></g><g id="shape1848-49" transform="translate(35.7766,-44.9808)"><title>Sheet.1848</title><path d="M14.77 407.51 A25.0116 25.0116 -180 0 0 0 401.39 L0 412.56 A13.6463 13.6463 0 0 1 6.84 415.36 L14.77 407.51 Z" class="st17"/></g><g id="shape1849-51" transform="translate(17.4881,-44.8207)"><title>Sheet.1849</title><path d="M0 407.35 L8 415.36 A13.6463 13.6463 0 0 1 14.85 412.56 L14.85 401.23 A25.0116 25.0116 -180 0 0 0 407.35 Z" class="st17"/></g><g id="shape1850-53" transform="translate(45.1409,-35.6565)"><title>Sheet.1850</title><path d="M0 408.52 A14.4067 14.4067 0 0 1 2.84 415.36 L14.01 415.36 A24.6514 24.6514 -180 0 0 7.88 400.67 L0 408.52 Z" class="st17"/></g><g id="shape1851-55" transform="translate(8.88411,-35.6565)"><title>Sheet.1851</title><path d="M14.01 408.52 L6 400.51 A24.6514 24.6514 -180 0 0 -0 415.36 L11.17 415.36 A14.4067 14.4067 0 0 1 14.01 408.52 Z" class="st7"/></g><g id="shape1852-57" transform="translate(35.8166,-33.0153)"><title>Sheet.1852</title><path d="M18.77 406.47 A1.80083 1.80083 -180 0 0 16.49 405.47 L0 412.12 L1.28 415.36 L17.77 408.84 A1.76082 1.76082 -180 0 0 18.77 406.47 Z" class="st18"/></g><g id="shape1853-59" transform="translate(29.2135,-29.0935)"><title>Sheet.1853</title><ellipse cx="4.802" cy="410.556" class="st19" rx="4.802" ry="4.802"/></g></g><g id="shape1857-63" transform="translate(396.608,-124.057)"><title>Sheet.1857</title><desc>Cloud pipeline</desc><rect width="171.071" height="23.609" x="0" y="391.75" class="st20"/><text x="37.94" y="407.16" class="st21">Cloud pipeline</text></g><g id="shape1858-66" transform="translate(279.21,-161.393)"><title>Sheet.1858</title><desc>Incoming Data</desc><rect width="65.197" height="37.782" x="0" y="377.576" class="st20"/><text x="7.77" y="393.36" class="st13">Incoming<tspan x="20.25" class="st14" dy="1.2em">Data</tspan></text></g><g id="shape1859-70" transform="translate(568.835,-213.348)"><title>Sheet.1859</title><desc>Transformed Data</desc><rect width="82.727" height="37.782" x="0" y="377.576" class="st20"/><text x="7.82" y="393.36" class="st13">Transformed<tspan x="29.02" class="st14" dy="1.2em">Data</tspan></text></g><g id="shape1860-74" transform="translate(332.776,-301.222)"><title>Rounded Rectangle.5484</title><desc>Data Collection Rule (DCR) Data to collect Schema of incoming...</desc><path d="M5.55 415.36 L276.49 415.36 A5.54959 5.54959 -180 0 0 282.04 409.81 L282.04 338.13 A5.54959 5.54959 -180 0 0 276.49 332.58 L5.55 332.58 A5.54959 5.54959 -180 0 0 0 338.13 L0 409.81 A5.54959 5.54959 -180 0 0 5.55 415.36 Z" class="st22"/><text x="15.34" y="347.38" class="st13">Data Collection Rule (DCR)<tspan x="15.34" class="st23" dy="1.213em">ยง</tspan><tspan class="st23"> </tspan>Data to collect<tspan x="15.34" class="st23" dy="1.217em">ยง</tspan><tspan class="st23"> </tspan>Schema of incoming stream<tspan x="15.34" class="st23" dy="1.217em">ยง</tspan><tspan class="st23"> </tspan>Transformation to filter and manipulate data<tspan x="15.34" class="st23" dy="1.217em">ยง</tspan><tspan class="st23"> </tspan>Destination to send data</text></g><g id="group1861-85" transform="translate(305.543,-362.74)"><title>Sheet.1861</title><g id="shape1862-86" transform="translate(5.06185,5.68434E-14)"><title>Rounded Rectangle.20113</title><path d="M1.27 415.36 L31.64 415.36 A1.26536 1.26536 -180 0 0 32.9 414.09 L32.9 380.65 A1.26536 1.26536 -180 0 0 31.64 379.39 L1.27 379.39 A1.26536 1.26536 -180 0 0 0 380.65 L0 414.09 A1.26536 1.26536 -180 0 0 1.27 415.36 Z" class="st24"/></g><g id="shape1863-90" transform="translate(7.12653,-9.40262)"><title>Sheet.1863</title><path d="M0 415.36 L23.37 415.36" class="st25"/></g><g id="shape1864-96" transform="translate(1.8785E-13,-17.9852)"><title>Rounded Rectangle.20114</title><path d="M1.22 415.36 L30.42 415.36 A1.21669 1.21669 -180 0 0 31.64 414.14 L31.64 403.05 A1.21669 1.21669 -180 0 0 30.42 401.83 L1.22 401.83 A1.21669 1.21669 -180 0 0 -0 403.05 L0 414.14 A1.21669 1.21669 -180 0 0 1.22 415.36 Z" class="st27"/></g><g id="shape1865-100" transform="translate(3.16373,-25.4597)"><title>Rounded Rectangle.20115</title><path d="M0.15 415.36 L3.65 415.36 a0.146003 0.146003 -180 0 0 0.146005 -0.146005 L3.8 411.9 a0.146003 0.146003 -180 0 0 -0.146005 -0.146005 L0.15 411.75 a0.146003 0.146003 -180 0 0 -0.146005 0.146005 L0 415.21 a0.146003 0.146003 -180 0 0 0.146005 0.146005 Z" class="st28"/></g><g id="shape1866-102" transform="translate(3.48009,-21.165)"><title>Rounded Rectangle.20116</title><path d="M0.12 415.36 L3.04 415.36 a0.121669 0.121669 -180 0 0 0.121671 -0.121671 L3.16 412.51 a0.121669 0.121669 -180 0 0 -0.121671 -0.121671 L0.12 412.38 a0.121669 0.121669 -180 0 0 -0.121671 0.121671 L0 415.24 a0.121669 0.121669 -180 0 0 0.121671 0.121671 Z" class="st29"/></g><g id="shape1867-104" transform="translate(8.54194,-27.081)"><title>Sheet.1867</title><path d="M0 415.36 L19.3 415.36" class="st30"/></g><g id="shape1868-107" transform="translate(8.56205,-22.6519)"><title>Sheet.1868</title><path d="M0 415.36 L19.3 415.36" class="st31"/></g></g><g id="group1872-110" transform="translate(732.454,-153.713)"><title>Sheet.1872</title><g id="group1873-111"><title>Sheet.1873</title><g id="shape1874-112"><title>Sheet.1874</title><path d="M13.9 388.51 C6.25 388.49 0.06 386.21 0.07 383.43 L0 410.26 C0 413.02 6.08 415.28 13.64 415.34 L13.83 415.34 C21.48 415.36 27.68 413.12 27.69 410.33 L27.76 383.5 C27.75 386.29 21.54 388.53 13.9 388.51 Z" class="st4"/></g><g id="shape1875-115" transform="translate(0.0616575,-26.8347)"><title>Sheet.1875</title><path d="M27.7 410.33 C27.7 413.12 21.49 415.36 13.84 415.34 C6.2 415.33 0 413.05 0.01 410.26 C0.01 407.48 6.22 405.24 13.86 405.26 C21.51 405.28 27.7 407.54 27.69 410.33 L27.7 410.33 Z" class="st5"/><path d="M27.7 410.33 C27.7 413.12 21.49 415.36 13.84 415.34 C6.2 415.33 0 413.05 0.01 410.26 C0.01 407.48 6.22 405.24 13.86 405.26 C21.51 405.28 27.7 407.54 27.69 410.33" class="st6"/></g><g id="shape1876-118" transform="translate(3.29525,-29.0772)"><title>Sheet.1876</title><path d="M21.23 412.16 C21.23 413.93 16.47 415.36 10.61 415.34 C4.75 415.32 0 413.88 0 412.11 C0.01 410.33 4.77 408.91 10.63 408.93 C16.49 408.94 21.24 410.39 21.23 412.16 Z" class="st7"/></g><g id="shape1877-120" transform="translate(5.50122,-29.0955)"><title>Sheet.1877</title><path d="M8.41 412.89 A25.5331 25.5331 -180 0 0 -0 414.09 A24.663 24.663 -180 0 0 8.4 415.36 A24.695 24.695 -180 0 0 16.81 414.14 A25.5216 25.5216 -180 0 0 8.41 412.89 Z" class="st8"/></g></g><g id="group1878-122" transform="translate(4.48031,-4.30574)"><title>Sheet.1878</title><g id="shape1879-123" transform="translate(0,-3.58129)"><title>Sheet.1879</title><path d="M0 414.48 a0.881443 0.881443 -180 0 0 0.881423 0.881423 L17.98 415.36 a0.881443 0.881443 -180 0 0 0.881423 -0.881423 L18.86 400.4 a0.881443 0.881443 -180 0 0 -0.881423 -0.881423 L0.88 399.52 a0.881443 0.881443 -180 0 0 -0.881423 0.881423 L0 414.48 Z" class="st32"/></g><g id="shape1880-127" transform="translate(6.2464,-12.6399)"><title>Sheet.1880</title><ellipse cx="1.31" cy="414.041" class="st11" rx="1.31" ry="1.317"/></g><g id="shape1881-129" transform="translate(9.87749,-10.1717)"><title>Sheet.1881</title><ellipse cx="1.31" cy="414.041" class="st11" rx="1.31" ry="1.317"/></g><g id="shape1882-131" transform="translate(13.3939,-14.8487)"><title>Sheet.1882</title><ellipse cx="1.31" cy="414.041" class="st11" rx="1.31" ry="1.317"/></g><g id="shape1883-133" transform="translate(2.84464,-7.79613)"><title>Sheet.1883</title><ellipse cx="1.31" cy="414.041" class="st11" rx="1.31" ry="1.317"/></g><g id="shape1884-135" transform="translate(3.67974,-8.78064)"><title>Sheet.1884</title><path d="M0.95 415.36 L0 414.69 L3.73 409.38 L7.38 411.86 L10.56 407.63 L11.49 408.32 L7.64 413.44 L4.02 410.98 L0.95 415.36 Z" class="st11"/></g><g id="shape1885-137" transform="translate(6.67495,-0.332416)"><title>Sheet.1885</title><path d="M1.35 415.36 A1.35399 1.35399 0 0 1 0 414.01 C0.23 409.5 2.94 406.64 6.92 406.64 C10.9 406.64 13.63 409.5 13.84 413.93 A1.35514 1.35514 0 0 1 12.55 415.36 L1.35 415.36 L1.35 415.36 Z" class="st11"/></g><g id="shape1886-139" transform="translate(6.3437,-5.68434E-14)"><title>Sheet.1886</title><path d="M7.25 406.64 C11.22 406.64 13.64 409.59 13.84 413.62 A1.02041 1.02041 0 0 1 12.87 414.69 L1.68 414.69 A1.01925 1.01925 0 0 1 0.66 413.67 C0.66 413.65 0.66 413.64 0.66 413.62 C0.87 409.59 3.29 406.64 7.25 406.64 ZM7.25 405.97 C3.08 405.97 0.23 408.96 0 413.59 L0 413.67 A1.68872 1.68872 -180 0 0 1.69 415.36 L12.84 415.36 L12.9 415.36 A1.68756 1.68756 -180 0 0 14.5 413.59 C14.29 409.03 11.37 405.97 7.25 405.97 L7.25 405.97 Z" class="st33"/></g><g id="shape1887-141" transform="translate(13.8827,-4.39901)"><title>Sheet.1887</title><path d="M2.76 413.84 A4.62255 4.62255 -180 0 0 -0 412.67 L0 414.81 A2.57593 2.57593 0 0 1 1.28 415.36 L2.76 413.84 Z" class="st7"/></g><g id="shape1888-143" transform="translate(10.4751,-4.39901)"><title>Sheet.1888</title><path d="M0 413.84 L1.48 415.36 A2.57593 2.57593 0 0 1 2.76 414.81 L2.76 412.67 A4.62602 4.62602 -180 0 0 -0 413.84 Z" class="st7"/></g><g id="shape1889-145" transform="translate(15.6363,-2.60605)"><title>Sheet.1889</title><path d="M0 414.04 A2.72187 2.72187 0 0 1 0.54 415.36 L2.62 415.36 A4.90053 4.90053 -180 0 0 1.48 412.53 L0 414.04 Z" class="st17"/></g><g id="shape1890-147" transform="translate(8.86635,-2.60605)"><title>Sheet.1890</title><path d="M2.62 414.04 L1.14 412.53 A4.89126 4.89126 -180 0 0 0 415.36 L2.08 415.36 A2.72419 2.72419 0 0 1 2.62 414.04 Z" class="st7"/></g><g id="shape1891-149" transform="translate(13.2862,-2.34197)"><title>Sheet.1891</title><path d="M3.82 413.24 a0.463297 0.463297 -180 0 0 -0.420442 -0.269871 a0.449398 0.449398 -180 0 0 -0.193427 0.0440132 L0 414.52 L0.39 415.36 L3.6 413.85 a0.463297 0.463297 -180 0 0 0.223541 -0.615027 Z" class="st34"/></g><g id="shape1892-151" transform="translate(12.4893,-1.69335)"><title>Sheet.1892</title><ellipse cx="1.105" cy="414.253" class="st35" rx="1.105" ry="1.105"/></g></g></g><g id="shape1893-153" transform="translate(670.435,-120.882)"><title>Sheet.1893</title><desc>Azure Monitor workspace</desc><rect width="152.362" height="28.919" x="0" y="386.439" class="st12"/><text x="37.95" y="397.3" class="st13">Azure Monitor<tspan x="48.23" class="st14" dy="1.2em">workspace</tspan></text></g><g id="shape1894-157" transform="translate(562.636,-210.673) rotate(0.0863888)"><title>Arrow.5528</title><path d="M0 415.36 L94.59 415.36" class="st36"/></g><g id="shape1895-163" transform="translate(0.749929,-151.836)"><title>Rounded Rectangle.5529</title><desc>Clients</desc><path d="M4.35 415.36 L179.15 415.36 A4.34995 4.34995 -180 0 0 183.5 411.01 L183.5 301.5 A4.34995 4.34995 -180 0 0 179.15 297.15 L4.35 297.15 A4.34995 4.34995 -180 0 0 0 301.5 L0 411.01 A4.34995 4.34995 -180 0 0 4.35 415.36 Z" class="st38"/><text x="72.74" y="311.95" class="st3">Clients</text></g><g id="group1896-166" transform="translate(30.8132,-201.497)"><title>Icon-web-42.5530</title><g id="shape1897-167"><title>Sheet.1897</title><path d="M29.37 391.87 A10.412 10.412 -180 0 0 18.74 381.76 A10.7341 10.7341 -180 0 0 8.54 388.82 A9.8968 9.8968 -180 0 0 -0 398.55 A10.0256 10.0256 -180 0 0 10.28 408.21 A6.44043 6.44043 -180 0 0 11.18 408.21 L13.76 408.21 A3.15581 3.15581 0 0 1 13.52 407.01 A3.24169 3.24169 0 0 1 13.95 405.44 L10.95 405.44 L10.28 405.44 A7.32063 7.32063 0 0 1 2.73 398.55 A7.14888 7.14888 0 0 1 8.97 391.53 L10.61 391.27 L11.14 389.7 A8.00761 8.00761 0 0 1 18.74 384.49 A7.72852 7.72852 0 0 1 26.64 391.89 L26.64 394.26 L28.98 394.58 A5.56024 5.56024 0 0 1 33.83 399.92 A5.64611 5.64611 0 0 1 28.21 405.38 L27.89 405.38 L27.72 405.38 L25.57 405.38 A8.4155 8.4155 -180 0 0 17.26 398.55 A1.37396 1.37396 -180 1 0 17.26 401.28 A5.68905 5.68905 0 0 1 17.26 412.63 A1.37396 1.37396 -180 1 0 17.26 415.36 A8.4155 8.4155 -180 0 0 25.57 408.19 L27.82 408.19 A1.37396 1.37396 -180 0 0 28.25 408.19 A8.39403 8.39403 -180 0 0 36.5 399.92 A8.28669 8.28669 -180 0 0 29.37 391.87 Z" class="st39"/></g><g id="shape1898-171" transform="translate(13.5249,-5.06647)"><title>Sheet.1898</title><path d="M0 412.05 A3.30617 3.30617 -180 0 0 3.31 415.36 L3.39 415.36 A3.30617 3.30617 -180 0 0 6.7 412.05 L6.7 411.97 A3.30617 3.30617 -180 0 0 3.39 408.66 L3.31 408.66 A3.30617 3.30617 -180 0 0 0 411.97 L0 412.05 Z" class="st40"/></g></g><g id="group1899-175" transform="translate(120.146,-203.952)"><title>Sheet.1899</title><g id="shape1900-176" transform="translate(4.14846,-19.6513)"><title>Sheet.1900</title><path d="M2.57 415.29 L2.57 410.79 a0.502201 0.502201 0 0 1 0.502201 -0.500433 L12.75 410.29 L12.75 407.78 L1 407.78 A1.0044 1.0044 -180 0 0 0 408.78 L0 415.36 L2.57 415.29 Z" class="st41"/></g><g id="shape1901-178" transform="translate(4.14846,-2.89296)"><title>Sheet.1901</title><path d="M0 407.54 L0 414.35 A1.0044 1.0044 -180 0 0 1 415.36 L12.7 415.36 L12.7 412.85 L3.07 412.85 a0.502201 0.502201 0 0 1 -0.502201 -0.500433 L2.57 407.48 L0 407.54 Z" class="st41"/></g><g id="shape1902-180" transform="translate(-1.59872E-13,-9.2695)"><title>Sheet.1902</title><path d="M0 404.9 L0 414.32 A1.04154 1.04154 -180 0 0 1.04 415.36 L10.46 415.36 A1.03977 1.03977 -180 0 0 11.51 414.33 L11.51 404.9 A1.04154 1.04154 -180 0 0 10.48 403.85 L1.04 403.85 A1.04154 1.04154 -180 0 0 -0 404.89 L0 404.9 ZM8.88 405.8 a0.689642 0.689642 0 0 1 0.689642 0.689642 L9.57 412.73 a0.69141 0.69141 0 0 1 -0.689642 0.689642 L2.62 413.42 a0.69141 0.69141 0 0 1 -0.689642 -0.689642 L1.93 406.48 a0.69141 0.69141 0 0 1 0.689642 -0.689642 L8.88 405.8 Z" class="st42"/></g><g id="shape1903-182" transform="translate(14.99,-5.68434E-14)"><title>a212a2a2-29a5-4c80-9005-7e0cb63</title><path d="M16 406.08 L0.84 406.08 a0.836412 0.836412 -180 0 0 -0.836412 0.836412 L0 414.52 a0.836412 0.836412 -180 0 0 0.836412 0.836412 L16 415.36 a0.836412 0.836412 -180 0 0 0.836412 -0.834644 L16.84 406.92 a0.836412 0.836412 -180 0 0 -0.836412 -0.836412 L16 406.08 Z" class="st32"/></g><g id="shape1904-185" transform="translate(14.99,-20.8537)"><title>af862dfe-89f4-46aa-a2f8-e7418d4</title><path d="M16 406.08 L0.84 406.08 a0.836412 0.836412 -180 0 0 -0.836412 0.836412 L0 414.52 a0.836412 0.836412 -180 0 0 0.836412 0.836412 L16 415.36 a0.836412 0.836412 -180 0 0 0.836412 -0.831107 L16.84 406.92 a0.836412 0.836412 -180 0 0 -0.836412 -0.836412 L16 406.08 Z" class="st32"/></g><g id="shape1905-188" transform="translate(18.0615,-2.37838)"><title>Sheet.1905</title><path d="M0 415.16 a0.196287 0.196287 -180 0 0 0.196283 0.196283 L2.5 415.36 a0.196287 0.196287 -180 0 0 0.196283 -0.196283 L2.69 413.45 a0.196287 0.196287 -180 0 0 -0.196283 -0.196283 L0.2 413.26 a0.196287 0.196287 -180 0 0 -0.196283 0.196283 L0 415.16 Z" class="st11"/></g><g id="shape1906-190" transform="translate(21.9943,-2.37838)"><title>Sheet.1906</title><path d="M0 415.12 a0.233423 0.233423 -180 0 0 0.233417 0.233417 L2.46 415.36 a0.233423 0.233423 -180 0 0 0.233417 -0.233417 L2.69 412.58 a0.233423 0.233423 -180 0 0 -0.233417 -0.233417 L0.23 412.35 a0.233423 0.233423 -180 0 0 -0.233417 0.233417 L0 415.12 Z" class="st11"/></g><g id="shape1907-192" transform="translate(25.927,-2.37838)"><title>Sheet.1907</title><path d="M-0 415.07 a0.284705 0.284705 -180 0 0 0.284698 0.284698 L2.41 415.36 a0.284705 0.284705 -180 0 0 0.284698 -0.284698 L2.69 411.21 a0.284705 0.284705 -180 0 0 -0.284698 -0.284698 L0.28 410.92 a0.284705 0.284705 -180 0 0 -0.284698 0.284698 L0 415.07 Z" class="st11"/></g><g id="shape1908-194" transform="translate(20.6274,-25.0658)"><title>Sheet.1908</title><ellipse cx=".996" cy="414.363" class="st11" rx=".996" ry=".996"/></g><g id="shape1909-196" transform="translate(24.1056,-22.889)"><title>Sheet.1909</title><ellipse cx=".996" cy="414.363" class="st11" rx=".996" ry=".996"/></g><g id="shape1910-198" transform="translate(26.8695,-26.6679)"><title>Sheet.1910</title><ellipse cx=".996" cy="414.363" class="st11" rx=".996" ry=".996"/></g><g id="shape1911-200" transform="translate(17.7344,-22.5814)"><title>Sheet.1911</title><ellipse cx=".996" cy="414.363" class="st11" rx=".996" ry=".996"/></g><g id="shape1912-202" transform="translate(18.2543,-23.0729)"><title>Sheet.1912</title><path d="M0.59 415.36 L0 414.75 L3.29 411.55 L6.75 413.98 L9.46 410.38 L10.14 410.89 L6.94 415.15 L3.38 412.65 L0.59 415.36 Z" class="st11"/></g></g><g id="shape1913-204" transform="translate(106.297,-178.848)"><title>Sheet.1913</title><desc>Agent</desc><rect width="65.764" height="17.008" x="0" y="398.35" class="st12"/><text x="18.44" y="410.45" class="st43">Agent</text></g><g id="shape1914-207" transform="translate(14.1709,-178.765)"><title>Sheet.1914</title><desc>Direct ingest</desc><rect width="75.118" height="17.09" x="0" y="398.268" class="st12"/><text x="6.81" y="410.41" class="st43">Direct ingest</text></g><g id="shape1915-210" transform="translate(184.835,-210.938) rotate(0.080747)"><title>Arrow.5549</title><path d="M0 415.36 L176.43 415.36" class="st36"/></g><g id="group1917-215" transform="translate(372.089,-166.896)"><title>Sheet.1917</title><g id="group1918-216"><title>Data Pipelines Menu.1815</title><g id="group1919-217"><title>e8071740-76d7-444d-a08a-6a2072b</title><g id="shape1920-218" transform="translate(22.8328,5.68434E-14)"><title>Sheet.1920</title><path d="M120.48 327.8 L144.22 327.8 C156.86 327.8 167.09 347.42 167.09 371.56 L167.09 372.15 C166.91 396.11 156.74 415.3 144.22 415.3 L120.48 415.3 C133.15 415.3 143.35 395.72 143.35 371.55 C143.35 347.37 133.12 327.8 120.48 327.8 ZM39.99 340.61 C39.67 339.95 39.25 339.29 38.83 338.63 C34.82 331.91 29.54 327.81 23.74 327.81 L0 327.81 C5.8 327.81 11.08 331.91 15.09 338.63 A131.362 91.0431 0 0 1 22.9 371.56 A129.125 89.4928 0 0 1 15.09 404.46 C11.08 411.26 5.8 415.36 0 415.36 L23.74 415.36 C29.54 415.36 34.71 411.34 38.72 404.61 A129.294 89.6098 -180 0 0 46.64 372.14 L46.64 371.56 A137.281 95.1455 -180 0 0 39.99 340.61 Z" class="st44"/></g><g id="shape1921-222"><title>Sheet.1921</title><path d="M166.22 371.56 C166.22 395.76 155.99 415.36 143.33 415.36 C137.52 415.36 132.25 411.26 128.24 404.46 L143.33 404.46 C151.24 404.46 157.57 389.76 157.57 371.56 C157.57 353.35 151.24 338.65 143.33 338.65 L128.24 338.65 C132.25 331.92 137.52 327.83 143.33 327.83 C155.99 327.81 166.22 347.42 166.22 371.56 ZM22.87 327.8 C10.22 327.8 0 347.38 0 371.56 C0 395.73 10.25 415.31 22.87 415.31 C35.5 415.31 45.72 395.69 45.72 371.56 C45.72 347.42 35.49 327.8 22.87 327.8 Z" class="st16"/></g><g id="shape1922-224" transform="translate(8.60976,-10.8959)"><title>Sheet.1922</title><path d="M14.27 349.54 C22.18 349.54 28.52 364.29 28.52 382.45 C28.52 400.62 22.19 415.36 14.27 415.36 C6.34 415.36 0 400.63 0 382.45 C0 364.27 6.38 349.54 14.27 349.54 Z" class="st17"/></g><g id="shape1923-226" transform="translate(61.5556,-10.7497)"><title>Sheet.1923</title><path d="M96.02 382.3 C96.02 400.51 89.69 415.21 81.77 415.21 L54.87 415.21 L54.87 415.36 L0 415.36 A129.294 89.6098 -180 0 0 7.91 382.89 L7.91 382.3 A137.281 95.1455 -180 0 0 1.27 351.37 C0.95 350.71 0.53 350.06 0.11 349.4 L81.77 349.4 C89.69 349.4 96.02 364.15 96.02 382.3 Z" class="st45"/></g></g></g><g id="shape1924-230" transform="translate(73.1339,-25.6223)"><title>Sheet.1924</title><desc>Transformation</desc><rect width="75.685" height="15.481" x="0" y="399.877" class="st12"/><text x="9.46" y="410.32" class="st46">Transformation</text></g><g id="group1925-233" transform="translate(98.2205,-40.1887)"><title>Sheet.1925</title><g id="shape1926-234"><title>Sheet.1926</title><path d="M11.82 415.23 L12.6 412.7 L14.07 411.86 L16.64 413.02 L18.32 411.34 L18.32 411.14 L17.16 408.87 L17.87 407.25 L20.44 406.34 L20.69 406.34 L20.69 404.01 L20.37 404.01 L17.8 403.23 L16.97 401.74 L18.06 399.08 L16.39 397.46 L16.19 397.46 L13.95 398.62 L12.4 397.65 L11.44 394.6 L9.06 394.6 L9.06 394.93 L8.29 397.46 L6.68 398.17 L3.92 396.87 L2.25 398.62 L2.38 398.95 L3.6 401.35 L2.96 402.97 L0 403.94 L0 406.34 L0.32 406.34 L2.83 407.12 L3.53 408.74 L2.31 411.53 L3.98 413.22 L4.24 413.09 L6.62 411.86 L8.23 412.5 L9.32 415.36 L11.63 415.36 L11.82 415.23 ZM8.03 407.57 C6.68 406.28 6.68 404.07 7.97 402.71 C9.25 401.35 11.44 401.35 12.79 402.64 C14.14 403.94 14.14 406.21 12.85 407.57 C11.89 408.55 10.41 408.87 9.13 408.35 C8.74 408.16 8.35 407.9 8.03 407.57 Z" class="st47"/></g></g></g></g></svg>