<svg xmlns="http://www.w3.org/2000/svg" xmlns:ev="http://www.w3.org/2001/xml-events" xmlns:xlink="http://www.w3.org/1999/xlink" width="1816.176" height="557.27" class="st57" color-interpolation-filters="sRGB" viewBox="0 0 1362.13 417.953" xml:space="preserve"><style type="text/css">.st1{fill:url(#grad0-6)}.st1,.st2,.st3,.st4{stroke:none;stroke-linecap:butt;stroke-width:.75}.st2{fill:#9cebff}.st3{fill:#32bedd}.st4{fill:url(#grad0-14)}.st5{fill:#f2f2f2;stroke:#a5a5a5;stroke-linecap:round;stroke-linejoin:round;stroke-width:1.5}.st6{fill:#000;font-family:Segoe UI;font-size:1.5em;font-weight:700}.st7{fill:none;stroke:#000;stroke-dasharray:4.5,4.5;stroke-linecap:round;stroke-linejoin:round;stroke-width:1.5}.st8,.st9{fill:#000;font-family:Calibri;font-size:1.5em;font-weight:700}.st9{font-family:Segoe UI;font-size:1.00001em}.st10{fill:url(#grad0-29);stroke:none;stroke-linecap:butt;stroke-width:.75}.st11{fill:#e6e6e6}.st12,.st13,.st14,.st15,.st16,.st17{stroke:none;stroke-linecap:butt;stroke-width:.75}.st18{stroke:none;stroke-width:.75}.st13{fill:#50e6ff}.st14{fill:#198ab3}.st15{fill:url(#grad0-42)}.st16{fill:url(#grad0-46)}.st17{fill:#fff}.st18{fill:none;stroke-linecap:round;stroke-linejoin:round}.st19{fill:#000;font-family:Segoe UI;font-size:1.00001em}.st20{font-size:1em}.st21{fill:url(#grad1-61)}.st21,.st22,.st23{stroke:none;stroke-linecap:butt;stroke-width:.75}.st24{stroke:none}.st22{fill:#f04049}.st23{fill:url(#grad7-79)}.st24{fill:none;stroke-linecap:round;stroke-linejoin:round;stroke-width:1.5}.st25{fill:#000;font-family:Segoe UI;font-size:1.16666em;font-weight:700}.st26,.st27{stroke:none;stroke-width:.75}.st26{fill:url(#grad0-97);stroke-linecap:butt}.st27{fill:#e6e6e6}.st27,.st28,.st29{stroke-linecap:butt}.st28{fill:#f2f2f2;stroke:none;stroke-width:.75}.st29{marker-end:url(#mrkr5-120);stroke:#000;stroke-width:4}.st30{fill:#000;fill-opacity:1;stroke:#000;stroke-opacity:1;stroke-width:.61349693251534}.st31{fill:#fff;stroke:#a5a5a5;stroke-linecap:round;stroke-linejoin:round;stroke-width:1.5}.st32{font-family:Wingdings;font-size:1em}.st33{fill:url(#grad0-139);stroke:none;stroke-linecap:round;stroke-linejoin:round;stroke-width:.24}.st34,.st35{stroke:#83b9f9}.st34{marker-end:url(#mrkr2-145);stroke-width:3.5}.st35{fill:#83b9f9;fill-opacity:1;stroke-opacity:1;stroke-width:.7085020242915}.st36{fill:url(#grad0-149);stroke-linecap:round;stroke-linejoin:round}.st36,.st37{stroke:none;stroke-width:.24}.st37,.st38{stroke-linecap:round;stroke-linejoin:round}.st37{fill:#fff}.st38{fill:none;stroke:#fff;stroke-width:.25}.st39,.st40{stroke:#fff;stroke-width:1}.st40{stroke-width:.75}.st41{fill:url(#grad0-164)}.st41,.st42,.st43,.st44,.st45,.st46,.st47,.st48{stroke:none;stroke-linecap:butt;stroke-width:.75}.st42{fill:#155ea1}.st43{fill:url(#grad0-174)}.st44{fill:url(#grad0-181)}.st45{fill:url(#grad0-198)}.st46{fill:#0078d4}.st47{fill:#e62323}.st48{fill:#4f4f4f}.st49{fill:#f2f2f2;stroke:#7f7f7f;stroke-linecap:round;stroke-linejoin:round;stroke-width:1.5}.st50{fill:url(#grad0-241)}.st50,.st51,.st52,.st53{stroke:none;stroke-linecap:butt;stroke-width:.75}.st51{fill:url(#grad0-245)}.st52{fill:#5ea0ef}.st53{fill:#83b9f9}.st54,.st55{fill:#000;font-family:Calibri;font-size:1.00001em}.st55{font-size:.75em}.st56{fill:url(#grad0-355);stroke:#fff;stroke-linecap:butt;stroke-width:.75}.st57{fill:none;fill-rule:evenodd;font-size:12px;overflow:visible;stroke-linecap:square;stroke-miterlimit:3}</style><defs id="Patterns_And_Gradients"><linearGradient id="grad0-6" x1="0" x2="1" y1="0" y2="0" gradientTransform="rotate(90 0.5 0.5)"><stop offset="0" stop-color="#32bedd" stop-opacity="1"/><stop offset=".065" stop-color="#3dcce9" stop-opacity="1"/><stop offset=".17" stop-color="#48dbf5" stop-opacity="1"/><stop offset=".295" stop-color="#4ee3fd" stop-opacity="1"/><stop offset=".49" stop-color="#50e6ff" stop-opacity="1"/><stop offset=".705" stop-color="#4ee4fd" stop-opacity="1"/><stop offset=".83" stop-color="#48dbf6" stop-opacity="1"/><stop offset=".93" stop-color="#3dcdea" stop-opacity="1"/><stop offset="1" stop-color="#32bedd" stop-opacity="1"/></linearGradient><linearGradient id="grad0-14" x1="0" x2="1" y1="0" y2="0" gradientTransform="rotate(90 0.5 0.5)"><stop offset="0" stop-color="#198ab3" stop-opacity="1"/><stop offset=".025" stop-color="#1d92b9" stop-opacity="1"/><stop offset=".1" stop-color="#26a5c9" stop-opacity="1"/><stop offset=".19" stop-color="#2cb2d4" stop-opacity="1"/><stop offset=".305" stop-color="#30bada" stop-opacity="1"/><stop offset=".53" stop-color="#31bcdc" stop-opacity="1"/><stop offset=".655" stop-color="#2eb5d6" stop-opacity="1"/><stop offset=".84" stop-color="#24a1c6" stop-opacity="1"/><stop offset="1" stop-color="#198ab3" stop-opacity="1"/></linearGradient><linearGradient id="grad0-29" x1="0" x2="1" y1="0" y2="0" gradientTransform="rotate(0.12781289921392 0.5 0.5)"><stop offset="0" stop-color="#005ba1" stop-opacity="1"/><stop offset=".07" stop-color="#0060a9" stop-opacity="1"/><stop offset=".355" stop-color="#0071c8" stop-opacity="1"/><stop offset=".515" stop-color="#0078d4" stop-opacity="1"/><stop offset=".64" stop-color="#0074cd" stop-opacity="1"/><stop offset=".82" stop-color="#006abb" stop-opacity="1"/><stop offset="1" stop-color="#005ba1" stop-opacity="1"/></linearGradient><linearGradient id="grad0-42" x1="0" x2="1" y1="0" y2="0" gradientTransform="rotate(-90 0.5 0.5)"><stop offset="0" stop-color="#1988d9" stop-opacity="1"/><stop offset=".9" stop-color="#54aef0" stop-opacity="1"/></linearGradient><linearGradient id="grad0-46" x1="0" x2="1" y1="0" y2="0" gradientTransform="rotate(-90 0.5 0.5)"><stop offset="0" stop-color="#198ab3" stop-opacity="1"/><stop offset=".01" stop-color="#198bb4" stop-opacity="1"/><stop offset=".44" stop-color="#27b2d7" stop-opacity="1"/><stop offset=".79" stop-color="#2fcbed" stop-opacity="1"/><stop offset="1" stop-color="#32d4f5" stop-opacity="1"/></linearGradient><radialGradient id="grad1-61" cx="1" cy="1" r="1.4"><stop offset=".18" stop-color="#5ea0ef" stop-opacity="1"/><stop offset=".56" stop-color="#5c9fee" stop-opacity="1"/><stop offset=".69" stop-color="#559ced" stop-opacity="1"/><stop offset=".78" stop-color="#4a97e9" stop-opacity="1"/><stop offset=".86" stop-color="#3990e4" stop-opacity="1"/><stop offset=".93" stop-color="#2387de" stop-opacity="1"/><stop offset=".99" stop-color="#087bd6" stop-opacity="1"/><stop offset="1" stop-color="#0078d4" stop-opacity="1"/></radialGradient><radialGradient id="grad7-79" cx="0" cy="0" r="1.4"><stop offset=".19" stop-color="#8c8e90" stop-opacity="1"/><stop offset=".35" stop-color="#848688" stop-opacity="1"/><stop offset=".6" stop-color="#6e7071" stop-opacity="1"/><stop offset=".91" stop-color="#4a4b4c" stop-opacity="1"/><stop offset="1" stop-color="#3e3f3f" stop-opacity="1"/></radialGradient><linearGradient id="grad0-97" x1="0" x2="1" y1="0" y2="0" gradientTransform="rotate(0.12778975312821 0.5 0.5)"><stop offset="0" stop-color="#32bedd" stop-opacity="1"/><stop offset=".32" stop-color="#47daf5" stop-opacity="1"/><stop offset=".515" stop-color="#50e6ff" stop-opacity="1"/><stop offset=".665" stop-color="#4bdff9" stop-opacity="1"/><stop offset=".87" stop-color="#3dcdea" stop-opacity="1"/><stop offset="1" stop-color="#32bedd" stop-opacity="1"/></linearGradient><linearGradient id="grad0-139" x1="0" x2="1" y1="0" y2="0" gradientTransform="rotate(90 0.5 0.5)"><stop offset="0" stop-color="#4d98ea" stop-opacity="1"/><stop offset="1" stop-color="#0078d4" stop-opacity="1"/></linearGradient><linearGradient id="grad0-149" x1="0" x2="1" y1="0" y2="0" gradientTransform="rotate(90 0.5 0.5)"><stop offset="0" stop-color="#4be0fa" stop-opacity="1"/><stop offset="1" stop-color="#3dcce9" stop-opacity="1"/></linearGradient><linearGradient id="grad0-164" x1="0" x2="1" y1="0" y2="0" gradientTransform="rotate(90 0.5 0.5)"><stop offset="0" stop-color="#5ea0ef" stop-opacity="1"/><stop offset=".18" stop-color="#559cec" stop-opacity="1"/><stop offset=".47" stop-color="#3c91e5" stop-opacity="1"/><stop offset=".845" stop-color="#1380da" stop-opacity="1"/><stop offset="1" stop-color="#0078d4" stop-opacity="1"/></linearGradient><linearGradient id="grad0-174" x1="0" x2="1" y1="0" y2="0" gradientTransform="rotate(-90 0.5 0.5)"><stop offset="0" stop-color="#46a0de" stop-opacity="1"/><stop offset="1" stop-color="#8dc8e8" stop-opacity="1"/></linearGradient><linearGradient id="grad0-181" x1="0" x2="1" y1="0" y2="0" gradientTransform="rotate(-90 0.5 0.5)"><stop offset="0" stop-color="#155ea1" stop-opacity="1"/><stop offset="1" stop-color="#0078d4" stop-opacity="1"/></linearGradient><linearGradient id="grad0-198" x1="0" x2="1" y1="0" y2="0" gradientTransform="rotate(90 0.5 0.5)"><stop offset="0" stop-color="#5ea0ef" stop-opacity="1"/><stop offset="1" stop-color="#0078d4" stop-opacity="1"/></linearGradient><linearGradient id="grad0-241" x1="0" x2="1" y1="0" y2="0" gradientTransform="rotate(-90 0.5 0.5)"><stop offset="0" stop-color="#198ab3" stop-opacity="1"/><stop offset=".09" stop-color="#1f9dc4" stop-opacity="1"/><stop offset=".24" stop-color="#28b5d9" stop-opacity="1"/><stop offset=".4" stop-color="#2dc6e9" stop-opacity="1"/><stop offset=".57" stop-color="#31d1f2" stop-opacity="1"/><stop offset=".78" stop-color="#32d4f5" stop-opacity="1"/></linearGradient><linearGradient id="grad0-245" x1="0" x2="1" y1="0" y2="0" gradientTransform="rotate(90 0.5 0.5)"><stop offset="0" stop-color="#c69aeb" stop-opacity="1"/><stop offset="1" stop-color="#6f4bb2" stop-opacity="1"/></linearGradient><linearGradient id="grad0-355" x1="0" x2="1" y1="0" y2="0" gradientTransform="rotate(90 0.5 0.5)"><stop offset="0" stop-color="#7cafed" stop-opacity="1"/><stop offset="1" stop-color="#0066be" stop-opacity="1"/></linearGradient></defs><defs id="Markers"><g id="lend5"><path style="stroke:none" d="M 2 1 L 0 0 L 1.98117 -0.993387 C 1.67173 -0.364515 1.67301 0.372641 1.98465 1.00043"/></g><marker id="mrkr5-120" class="st30" markerUnits="strokeWidth" orient="auto" overflow="visible" refX="-2.853"><use transform="scale(-1.63,-1.63)" xlink:href="#lend5"/></marker><g id="lend2"><path style="stroke:none" d="M 1 1 L 0 0 L 1 -1 L 1 1"/></g><marker id="mrkr2-145" class="st35" markerUnits="strokeWidth" orient="auto" overflow="visible" refX="-1.411"><use transform="scale(-1.4114285714286,-1.4114285714286)" xlink:href="#lend2"/></marker></defs><g><title>Page-1</title><g id="group1809-1" transform="translate(304.722,-60.5126)"><title>Data Pipelines Menu.1809</title><g id="group1810-2"><title>e8071740-76d7-444d-a08a-6a2072b</title><g id="shape1811-3" transform="translate(22.8328,0)"><title>Sheet.1811</title><path d="M120.48 330.4 L144.22 330.4 C156.86 330.4 167.09 350.02 167.09 374.15 L167.09 374.75 C166.91 398.71 156.74 417.89 144.22 417.89 L120.48 417.89 C133.15 417.89 143.35 398.32 143.35 374.14 C143.35 349.97 133.12 330.4 120.48 330.4 ZM39.99 343.2 C39.67 342.54 39.25 341.89 38.83 341.23 C34.82 334.5 29.54 330.41 23.74 330.41 L0 330.41 C5.8 330.41 11.08 334.5 15.09 341.23 A131.362 91.0431 0 0 1 22.9 374.15 A129.125 89.4928 0 0 1 15.09 407.06 C11.08 413.86 5.8 417.95 0 417.95 L23.74 417.95 C29.54 417.95 34.71 413.93 38.72 407.2 A129.294 89.6098 -180 0 0 46.64 374.73 L46.64 374.15 A137.281 95.1455 -180 0 0 39.99 343.2 Z" class="st1"/></g><g id="shape1812-7"><title>Sheet.1812</title><path d="M166.22 374.15 C166.22 398.35 155.99 417.95 143.33 417.95 C137.52 417.95 132.25 413.86 128.24 407.06 L143.33 407.06 C151.24 407.06 157.57 392.36 157.57 374.15 C157.57 355.94 151.24 341.24 143.33 341.24 L128.24 341.24 C132.25 334.51 137.52 330.42 143.33 330.42 C155.99 330.41 166.22 350.02 166.22 374.15 ZM22.87 330.4 C10.22 330.4 0 349.97 0 374.15 C0 398.33 10.25 417.9 22.87 417.9 C35.5 417.9 45.72 398.28 45.72 374.15 C45.72 350.02 35.49 330.4 22.87 330.4 Z" class="st2"/></g><g id="shape1813-9" transform="translate(8.60976,-10.8959)"><title>Sheet.1813</title><path d="M14.27 352.14 C22.18 352.14 28.52 366.88 28.52 385.05 C28.52 403.21 22.19 417.95 14.27 417.95 C6.34 417.95 0 403.22 0 385.05 C0 366.87 6.38 352.14 14.27 352.14 Z" class="st3"/></g><g id="shape1814-11" transform="translate(61.5556,-10.7497)"><title>Sheet.1814</title><path d="M96.02 384.9 C96.02 403.11 89.69 417.81 81.77 417.81 L54.87 417.81 L54.87 417.95 L0 417.95 A129.294 89.6098 -180 0 0 7.91 385.48 L7.91 384.9 A137.281 95.1455 -180 0 0 1.27 353.97 C0.95 353.31 0.53 352.65 0.11 351.99 L81.77 351.99 C89.69 351.99 96.02 366.75 96.02 384.9 Z" class="st4"/></g></g></g><g id="shape1673-15" transform="translate(709.411,-34.5258)"><title>Rounded Rectangle.4252</title><desc>Azure Monitor</desc><path d="M8.3 417.95 L611.07 417.95 A8.295 8.295 -180 0 0 619.37 409.66 L619.37 43.57 A8.295 8.295 -180 0 0 611.07 35.28 L8.3 35.28 A8.295 8.295 -180 0 0 0 43.57 L0 409.66 A8.295 8.295 -180 0 0 8.3 417.95 Z" class="st5"/><text x="483.93" y="59.48" class="st6">Azure Monitor</text></g><g id="shape1674-18" transform="translate(262.955,-13.2657)"><title>Rounded Rectangle.5233</title><desc>Azure Monitor pipeline</desc><path d="M8.64 417.95 L743.95 417.95 A8.64353 8.64353 -180 0 0 752.6 409.31 L752.6 150.22 A8.64353 8.64353 -180 0 0 743.95 141.57 L8.64 141.57 A8.64353 8.64353 -180 0 0 0 150.22 L0 409.31 A8.64353 8.64353 -180 0 0 8.64 417.95 Z" class="st7"/><text x="4" y="161.77" class="st8">Azure Monitor pipeline</text></g><g id="shape1675-21" transform="translate(1128.08,-105.392)"><title>Rounded Rectangle.4256</title><desc>Destinations</desc><path d="M9.67 417.95 L145.11 417.95 A9.67415 9.67415 -180 0 0 154.79 408.28 L154.79 232.04 A9.67415 9.67415 -180 0 0 145.11 222.36 L9.67 222.36 A9.67415 9.67415 -180 0 0 0 232.04 L0 408.28 A9.67415 9.67415 -180 0 0 9.67 417.95 Z" class="st5"/><text x="42.21" y="237.16" class="st9">Destinations</text></g><g id="group1676-24" transform="translate(1191.61,-225.864)"><title>Sheet.1676</title><g id="group1677-25"><title>Sheet.1677</title><g id="shape1678-26"><title>Sheet.1678</title><path d="M13.9 391.1 C6.25 391.08 0.06 388.81 0.07 386.02 L0 412.85 C0 415.62 6.08 417.88 13.64 417.93 L13.83 417.93 C21.48 417.95 27.68 415.71 27.69 412.92 L27.76 386.09 C27.75 388.88 21.54 391.12 13.9 391.1 Z" class="st10"/></g><g id="shape1679-30" transform="translate(0.0616575,-26.8347)"><title>Sheet.1679</title><path d="M27.7 412.93 C27.7 415.71 21.49 417.95 13.84 417.94 C6.2 417.92 0 415.64 0.01 412.86 C0.01 410.07 6.22 407.83 13.86 407.85 C21.51 407.87 27.7 410.13 27.69 412.93 L27.7 412.93 Z" class="st11"/><path d="M27.7 412.93 C27.7 415.71 21.49 417.95 13.84 417.94 C6.2 417.92 0 415.64 0.01 412.86 C0.01 410.07 6.22 407.83 13.86 407.85 C21.51 407.87 27.7 410.13 27.69 412.93" class="st12"/></g><g id="shape1680-33" transform="translate(3.29525,-29.0772)"><title>Sheet.1680</title><path d="M21.23 414.76 C21.23 416.53 16.47 417.95 10.61 417.93 C4.75 417.92 0 416.47 0 414.7 C0.01 412.93 4.77 411.5 10.63 411.52 C16.49 411.54 21.24 412.98 21.23 414.76 Z" class="st13"/></g><g id="shape1681-35" transform="translate(5.50122,-29.0955)"><title>Sheet.1681</title><path d="M8.41 415.48 A25.5331 25.5331 -180 0 0 -0 416.68 A24.663 24.663 -180 0 0 8.4 417.95 A24.695 24.695 -180 0 0 16.81 416.73 A25.5216 25.5216 -180 0 0 8.41 415.48 Z" class="st14"/></g></g><g id="group1682-37" transform="translate(2.58361,-1.23917)"><title>Sheet.1682</title><g id="group1683-38" transform="translate(0,-1.58209)"><title>Icon-manage-307.6608</title><g id="shape1684-39"><title>Sheet.1684</title><path d="M6.98 411.97 L12.95 411.97 L12.95 417.95 L6.98 417.95 L6.98 411.97 ZM0.83 417.95 L5.98 417.95 L5.98 411.97 L0 411.97 L0 417.12 a0.830389 0.830389 -180 0 0 0.830389 0.830389 ZM0 411.03 L5.98 411.03 L5.98 405 L0 405 L0 411.03 Z" class="st15"/></g><g id="shape1685-43" transform="translate(6.91991,-6.85071)"><title>Sheet.1685</title><path d="M8.23 401.41 A8.15166 8.15166 0 0 1 16.47 409.72 A8.15166 8.15166 0 0 1 8.23 417.95 L0 417.95 L0 409.65 A8.15166 8.15166 0 0 1 8.23 401.41 Z" class="st16"/></g><g id="shape1686-47" transform="translate(9.74324,-10.6843)"><title>Sheet.1686</title><rect width="1.882" height="5.647" x="0" y="412.306" class="st17"/></g><g id="shape1687-49" transform="translate(13.5077,-10.6843)"><title>Sheet.1687</title><rect width="1.882" height="3.764" x="0" y="414.188" class="st17"/></g><g id="shape1688-51" transform="translate(17.2721,-10.6843)"><title>Sheet.1688</title><rect width="1.882" height="7.529" x="0" y="410.424" class="st17"/></g></g></g></g><g id="shape1689-53" transform="translate(1134.05,-192.922)"><title>Sheet.1689</title><desc>Log Analytics workspace</desc><rect width="143.443" height="28.919" x="0" y="389.034" class="st18"/><text x="36.73" y="399.89" class="st19">Log Analytics<tspan x="43.77" class="st20" dy="1.2em">workspace</tspan></text></g><g id="group1690-57" transform="translate(1293.35,-0.75)"><title>Icon-manage-317.4273</title><g id="shape1691-58"><title>Sheet.1691</title><ellipse cx="34.016" cy="384.057" class="st21" rx="34.016" ry="33.896"/></g><g id="shape1692-62" transform="translate(4.40204,-4.40204)"><title>Sheet.1692</title><ellipse cx="29.614" cy="388.459" class="st17" rx="29.614" ry="29.494"/></g><g id="shape1693-64" transform="translate(8.88411,-16.1275)"><title>Sheet.1693</title><path d="M-0 401.95 A24.9716 24.9716 -180 0 0 7.28 417.95 L15.29 409.95 A14.1265 14.1265 0 0 1 11.29 401.95 L0 401.95 Z" class="st2"/></g><g id="shape1694-66" transform="translate(35.7766,-44.9808)"><title>Sheet.1694</title><path d="M14.77 410.11 A25.0116 25.0116 -180 0 0 0 403.99 L0 415.15 A13.6463 13.6463 0 0 1 6.84 417.95 L14.77 410.11 Z" class="st3"/></g><g id="shape1695-68" transform="translate(17.4881,-44.8207)"><title>Sheet.1695</title><path d="M0 409.95 L8 417.95 A13.6463 13.6463 0 0 1 14.85 415.15 L14.85 403.83 A25.0116 25.0116 -180 0 0 0 409.95 Z" class="st3"/></g><g id="shape1696-70" transform="translate(45.1409,-35.6565)"><title>Sheet.1696</title><path d="M0 411.11 A14.4067 14.4067 0 0 1 2.84 417.95 L14.01 417.95 A24.6514 24.6514 -180 0 0 7.88 403.27 L0 411.11 Z" class="st3"/></g><g id="shape1697-72" transform="translate(8.88411,-35.6565)"><title>Sheet.1697</title><path d="M14.01 411.11 L6 403.11 A24.6514 24.6514 -180 0 0 -0 417.95 L11.17 417.95 A14.4067 14.4067 0 0 1 14.01 411.11 Z" class="st13"/></g><g id="shape1698-74" transform="translate(35.8166,-33.0153)"><title>Sheet.1698</title><path d="M18.77 409.07 A1.80083 1.80083 -180 0 0 16.49 408.07 L0 414.71 L1.28 417.95 L17.77 411.43 A1.76082 1.76082 -180 0 0 18.77 409.07 Z" class="st22"/></g><g id="shape1699-76" transform="translate(29.2135,-29.0935)"><title>Sheet.1699</title><ellipse cx="4.802" cy="413.151" class="st23" rx="4.802" ry="4.802"/></g></g><g id="shape1703-80" transform="translate(793.459,-124.459)"><title>Sheet.1703</title><desc>Cloud pipeline</desc><rect width="171.071" height="23.609" x="0" y="394.344" class="st24"/><text x="37.94" y="409.75" class="st25">Cloud pipeline</text></g><g id="group1707-83" transform="translate(482.64,-40.1949)"><title>Cache.4337</title><desc>Local Cache</desc><g id="shape1708-84" transform="translate(2.51799E-13,-2.40888)"><title>Sheet.1708</title><path d="M17.74 383.87 C7.98 383.85 0.08 380.96 0.09 377.42 L0 411.48 C0 414.99 7.76 417.86 17.41 417.93 L17.66 417.93 C27.42 417.95 35.34 415.11 35.35 411.57 L35.44 377.51 C35.43 381.05 27.51 383.9 17.74 383.87 Z" class="st10"/></g><g id="shape1709-87" transform="translate(0.0787203,-36.4724)"><title>Sheet.1709</title><path d="M35.37 411.58 C35.37 415.11 27.44 417.95 17.67 417.93 C7.91 417.91 0 415.02 0.01 411.49 C0.02 407.95 7.94 405.1 17.7 405.13 C27.46 405.15 35.37 408.03 35.36 411.58 L35.37 411.58 Z" class="st11"/><path d="M35.37 411.58 C35.37 415.11 27.44 417.95 17.67 417.93 C7.91 417.91 0 415.02 0.01 411.49 C0.02 407.95 7.94 405.1 17.7 405.13 C27.46 405.15 35.37 408.03 35.36 411.58" class="st12"/></g><g id="shape1710-90" transform="translate(4.20716,-39.319)"><title>Sheet.1710</title><path d="M27.11 413.89 C27.11 416.14 21.03 417.95 13.55 417.93 C6.06 417.91 0 416.07 0.01 413.82 C0.01 411.58 6.08 409.77 13.57 409.79 C21.05 409.81 27.11 411.65 27.11 413.89 Z" class="st13"/></g><g id="shape1711-92" transform="translate(7.0236,-39.3422)"><title>Sheet.1711</title><path d="M10.74 414.82 A32.5989 32.4112 -180 0 0 0 416.34 A31.4881 31.3068 -180 0 0 10.73 417.95 A31.5289 31.3473 -180 0 0 21.47 416.4 A32.5844 32.3967 -180 0 0 10.74 414.82 Z" class="st14"/></g><g id="shape1712-94" transform="translate(25.2838,0)"><title>Sheet.1712</title><path d="M12.04 394.84 C5.41 394.82 0.06 392.87 0.06 390.47 L0 413.56 C0 415.94 5.27 417.89 11.81 417.94 L11.97 417.94 C18.6 417.95 23.97 416.02 23.97 413.62 L24.03 390.53 C24.02 392.93 18.65 394.86 12.04 394.84 Z" class="st26"/></g><g id="shape1713-98" transform="translate(25.3392,-23.0945)"><title>Sheet.1713</title><path d="M23.97 413.62 C23.97 416.02 18.6 417.95 11.98 417.94 C5.36 417.92 0 415.96 0.01 413.56 C0.01 411.17 5.38 409.24 12 409.25 C18.62 409.27 23.98 411.23 23.97 413.62 Z" class="st27"/></g><g id="shape1714-100" transform="translate(28.144,-25.0338)"><title>Sheet.1714</title><path d="M18.38 415.2 C18.38 416.73 14.26 417.95 9.18 417.94 C4.11 417.93 0 416.68 0.01 415.16 C0.01 413.63 4.13 412.41 9.2 412.42 C14.27 412.44 18.38 413.68 18.38 415.2 Z" class="st13"/></g><g id="shape1715-102" transform="translate(30.0391,-25.0454)"><title>Sheet.1715</title><path d="M7.29 415.83 A22.1875 22.0597 -180 0 0 0 416.86 A21.3186 21.1958 -180 0 0 7.27 417.95 A21.3449 21.2219 -180 0 0 14.56 416.89 A22.1904 22.0626 -180 0 0 7.29 415.83 Z" class="st14"/></g><g id="shape1716-104" transform="translate(32.3278,-3.7858)"><title>Sheet.1716</title><path d="M7.04 401.69 a0.291557 0.289877 -180 0 0 -0.151609 -0.0376841 a0.390686 0.388436 -180 0 0 -0.268232 0.150736 L0.06 411.29 a0.373192 0.371043 -180 0 0 -0.0379024 0.342055 a0.38777 0.385537 -180 0 0 0.306134 0.18842 L4.25 411.82 L2.5 417.54 a0.291557 0.289877 -180 0 0 0.151609 0.376841 a0.227414 0.226104 -180 0 0 0.151609 0.0376841 a0.390686 0.388436 -180 0 0 0.268232 -0.150736 L9.82 408.2 C9.86 408.13 9.9 408.09 9.9 408.02 a0.341121 0.339156 -180 0 0 -0.341121 -0.342055 L5.51 407.67 L7.2 402.07 a0.291557 0.289877 -180 0 0 -0.163272 -0.379739 Z" class="st28"/></g><g id="shape1707-106"><text x="-8.25" y="428.75" class="st9">Local Cache</text></g></g><g id="shape1717-108" transform="translate(276.352,-26.0217)"><title>Sheet.1717</title><desc>Edge pipeline</desc><rect width="171.071" height="23.609" x="0" y="394.344" class="st24"/><text x="40.97" y="409.75" class="st25">Edge pipeline</text></g><g id="shape1720-111" transform="translate(1022.38,-204.605)"><title>Sheet.1720</title><desc>Transformed Data</desc><rect width="82.727" height="37.782" x="0" y="380.171" class="st24"/><text x="7.82" y="395.95" class="st19">Transformed<tspan x="29.02" class="st20" dy="1.2em">Data</tspan></text></g><g id="shape1721-115" transform="translate(184.25,-104.29) rotate(1.25592E-06)"><title>Arrow.4375</title><path d="M0 417.95 L109.06 417.95" class="st29"/></g><g id="shape1722-121" transform="translate(184.25,-326.494)"><title>Dynamic connector.4428</title><path d="M0 417.95 L475.56 417.95 A5.66929 5.66929 0 0 1 481.22 423.62 L481.22 505.05 A5.66929 5.66929 -180 0 0 486.89 510.72 L584.62 510.72" class="st29"/></g><g id="shape1723-126" transform="translate(787.071,-317.99)"><title>Rounded Rectangle.4429</title><desc>Data Collection Rule (DCR) Incoming stream definition Transfo...</desc><path d="M5.55 417.95 L276.49 417.95 A5.54959 5.54959 -180 0 0 282.04 412.4 L282.04 354.9 A5.54959 5.54959 -180 0 0 276.49 349.35 L5.55 349.35 A5.54959 5.54959 -180 0 0 0 354.9 L0 412.4 A5.54959 5.54959 -180 0 0 5.55 417.95 Z" class="st31"/><text x="15.34" y="364.15" class="st19">Data Collection Rule (DCR)<tspan x="15.34" class="st32" dy="1.213em">ยง</tspan><tspan class="st32"> </tspan>Incoming stream definition<tspan x="15.34" class="st32" dy="1.217em">ยง</tspan><tspan class="st32"> </tspan>Transformation to filter and manipulate data<tspan x="15.34" class="st32" dy="1.217em">ยง</tspan><tspan class="st32"> </tspan>Destination to send data</text></g><g id="group1724-135" transform="translate(759.838,-365.334)"><title>Sheet.1724</title><g id="shape1725-136" transform="translate(5.06185,0)"><title>Rounded Rectangle.20113</title><path d="M1.27 417.95 L31.64 417.95 A1.26536 1.26536 -180 0 0 32.9 416.69 L32.9 383.25 A1.26536 1.26536 -180 0 0 31.64 381.98 L1.27 381.98 A1.26536 1.26536 -180 0 0 0 383.25 L0 416.69 A1.26536 1.26536 -180 0 0 1.27 417.95 Z" class="st33"/></g><g id="shape1726-140" transform="translate(7.12653,-9.40262)"><title>Sheet.1726</title><path d="M0 417.95 L23.37 417.95" class="st34"/></g><g id="shape1727-146" transform="translate(1.8785E-13,-17.9852)"><title>Rounded Rectangle.20114</title><path d="M1.22 417.95 L30.42 417.95 A1.21669 1.21669 -180 0 0 31.64 416.74 L31.64 405.64 A1.21669 1.21669 -180 0 0 30.42 404.43 L1.22 404.43 A1.21669 1.21669 -180 0 0 -0 405.64 L0 416.74 A1.21669 1.21669 -180 0 0 1.22 417.95 Z" class="st36"/></g><g id="shape1728-150" transform="translate(3.16373,-25.4597)"><title>Rounded Rectangle.20115</title><path d="M0.15 417.95 L3.65 417.95 a0.146003 0.146003 -180 0 0 0.146005 -0.146005 L3.8 414.49 a0.146003 0.146003 -180 0 0 -0.146005 -0.146005 L0.15 414.35 a0.146003 0.146003 -180 0 0 -0.146005 0.146005 L0 417.81 a0.146003 0.146003 -180 0 0 0.146005 0.146005 Z" class="st37"/></g><g id="shape1729-152" transform="translate(3.48009,-21.165)"><title>Rounded Rectangle.20116</title><path d="M0.12 417.95 L3.04 417.95 a0.121669 0.121669 -180 0 0 0.121671 -0.121671 L3.16 415.1 a0.121669 0.121669 -180 0 0 -0.121671 -0.121671 L0.12 414.98 a0.121669 0.121669 -180 0 0 -0.121671 0.121671 L0 417.83 a0.121669 0.121669 -180 0 0 0.121671 0.121671 Z" class="st38"/></g><g id="shape1730-154" transform="translate(8.54194,-27.081)"><title>Sheet.1730</title><path d="M0 417.95 L19.3 417.95" class="st39"/></g><g id="shape1731-157" transform="translate(8.56205,-22.6519)"><title>Sheet.1731</title><path d="M0 417.95 L19.3 417.95" class="st40"/></g></g><g id="group1736-160" transform="translate(274.25,-130.571)"><title>Sheet.1736</title><g id="shape1737-161" transform="translate(-3.03757E-13,-7.29006)"><title>Sheet.1737</title><path d="M25.65 417.44 C25.66 416.26 25.69 415.5 25.75 415.17 C26.16 412.72 27.77 410.84 29.92 410.14 C29.93 410.13 29.94 410.12 29.94 410.1 L29.94 402.14 C29.94 400.12 31.38 398.3 33.38 398.03 C35.25 397.78 36.92 398.85 37.59 400.44 L38.95 400.44 L37.33 398.82 C36.24 397.72 36.24 395.96 37.33 394.87 L39.61 392.58 C37.88 386.5 32.19 382.14 25.6 382.34 C19.45 382.23 13.9 386.02 11.76 391.78 C5.19 392.58 0.19 398.05 0 404.66 C0.29 412.13 6.58 417.95 14.04 417.68 C14.46 417.68 14.89 417.66 15.28 417.63 L25.65 417.63 C25.65 417.56 25.64 417.5 25.64 417.44 L25.65 417.44 Z" class="st41"/></g><g id="group1738-165" transform="translate(27.176,0)"><title>Sheet.1738</title><g id="shape1739-166"><title>Sheet.1739</title><path d="M22.82 412.81 L19.16 409.15 C18.91 408.91 18.54 408.83 18.21 408.97 C17.89 409.1 17.68 409.42 17.68 409.77 L17.68 411.91 L4.6 411.91 C3.63 411.91 2.84 411.13 2.84 410.16 C2.84 409.85 2.86 408.73 2.89 408.55 C3.06 407.55 3.72 406.92 4.6 406.92 L6.13 406.92 L5.92 406.15 C5.79 405.66 5.7 405.15 5.64 404.63 L5.58 404.09 L4.59 404.09 C2.33 404.09 0.48 405.76 0.08 408.14 C0.01 408.52 0 410.16 0 410.17 C0 411.4 0.48 412.55 1.35 413.42 C2.22 414.29 3.37 414.77 4.59 414.77 L17.68 414.77 L17.68 417.08 C17.68 417.44 17.89 417.75 18.21 417.89 C18.32 417.93 18.43 417.95 18.55 417.95 C18.77 417.95 18.99 417.87 19.16 417.7 L22.82 414.04 C23.15 413.7 23.15 413.15 22.82 412.81 Z" class="st42"/></g><g id="shape1740-168" transform="translate(10.615,-19.0547)"><title>Sheet.1740</title><path d="M21.81 408.61 C20.94 407.75 19.79 407.27 18.56 407.27 L5.48 407.27 L5.48 404.95 C5.48 404.6 5.27 404.28 4.94 404.15 C4.61 404.02 4.24 404.09 4 404.34 L0.34 407.99 C0 408.33 0 408.89 0.34 409.22 L4 412.88 C4.24 413.13 4.62 413.21 4.94 413.07 C5.27 412.94 5.48 412.62 5.48 412.27 L5.48 410.12 L18.56 410.12 C19.52 410.12 20.31 410.91 20.31 411.88 C20.31 412.16 20.29 413.31 20.26 413.48 C20.09 414.49 19.44 415.12 18.56 415.12 L17.02 415.12 L17.23 415.89 C17.36 416.39 17.46 416.9 17.51 417.41 L17.57 417.95 L18.56 417.95 C20.82 417.95 22.67 416.28 23.07 413.9 C23.13 413.53 23.15 411.89 23.15 411.87 C23.15 410.64 22.67 409.49 21.81 408.62 L21.81 408.61 Z" class="st42"/></g><g id="group1741-170" transform="translate(4.29694,-7.23978)"><title>Sheet.1741</title><g id="shape1742-171"><title>Sheet.1742</title><path d="M0 401.92 C0 400.49 1.23 399.35 2.69 399.48 C3.96 399.61 4.89 400.75 4.89 402.03 L4.89 415.27 C4.89 416.55 3.96 417.69 2.69 417.81 C1.23 417.95 0 416.81 0 415.38 L0 401.92 L0 401.92 Z" class="st43"/></g><g id="shape1743-175" transform="translate(19.5742,0)"><title>Sheet.1743</title><path d="M0 401.92 C0 400.49 1.23 399.35 2.69 399.48 C3.96 399.61 4.89 400.75 4.89 402.03 L4.89 415.27 C4.89 416.55 3.96 417.69 2.69 417.81 C1.23 417.95 0 416.81 0 415.38 L0 401.92 L0 401.92 Z" class="st43"/></g><g id="shape1744-178" transform="translate(6.73032,-2.57414)"><title>Sheet.1744</title><rect width="11.011" height="13.457" x="0" y="404.495" class="st44"/></g></g></g></g><g id="group1745-182" transform="translate(1192.53,-144.969)"><title>Sheet.1745</title><g id="group1746-183"><title>Sheet.1746</title><g id="shape1747-184"><title>Sheet.1747</title><path d="M13.9 391.1 C6.25 391.08 0.06 388.81 0.07 386.02 L0 412.85 C0 415.62 6.08 417.88 13.64 417.93 L13.83 417.93 C21.48 417.95 27.68 415.71 27.69 412.92 L27.76 386.09 C27.75 388.88 21.54 391.12 13.9 391.1 Z" class="st10"/></g><g id="shape1748-187" transform="translate(0.0616575,-26.8347)"><title>Sheet.1748</title><path d="M27.7 412.93 C27.7 415.71 21.49 417.95 13.84 417.94 C6.2 417.92 0 415.64 0.01 412.86 C0.01 410.07 6.22 407.83 13.86 407.85 C21.51 407.87 27.7 410.13 27.69 412.93 L27.7 412.93 Z" class="st11"/><path d="M27.7 412.93 C27.7 415.71 21.49 417.95 13.84 417.94 C6.2 417.92 0 415.64 0.01 412.86 C0.01 410.07 6.22 407.83 13.86 407.85 C21.51 407.87 27.7 410.13 27.69 412.93" class="st12"/></g><g id="shape1749-190" transform="translate(3.29525,-29.0772)"><title>Sheet.1749</title><path d="M21.23 414.76 C21.23 416.53 16.47 417.95 10.61 417.93 C4.75 417.92 0 416.47 0 414.7 C0.01 412.93 4.77 411.5 10.63 411.52 C16.49 411.54 21.24 412.98 21.23 414.76 Z" class="st13"/></g><g id="shape1750-192" transform="translate(5.50122,-29.0955)"><title>Sheet.1750</title><path d="M8.41 415.48 A25.5331 25.5331 -180 0 0 -0 416.68 A24.663 24.663 -180 0 0 8.4 417.95 A24.695 24.695 -180 0 0 16.81 416.73 A25.5216 25.5216 -180 0 0 8.41 415.48 Z" class="st14"/></g></g><g id="group1751-194" transform="translate(4.48031,-4.30574)"><title>Sheet.1751</title><g id="shape1752-195" transform="translate(0,-3.58129)"><title>Sheet.1752</title><path d="M0 417.07 a0.881443 0.881443 -180 0 0 0.881423 0.881423 L17.98 417.95 a0.881443 0.881443 -180 0 0 0.881423 -0.881423 L18.86 402.99 a0.881443 0.881443 -180 0 0 -0.881423 -0.881423 L0.88 402.11 a0.881443 0.881443 -180 0 0 -0.881423 0.881423 L0 417.07 Z" class="st45"/></g><g id="shape1753-199" transform="translate(6.2464,-12.6399)"><title>Sheet.1753</title><ellipse cx="1.31" cy="416.636" class="st17" rx="1.31" ry="1.317"/></g><g id="shape1754-201" transform="translate(9.87749,-10.1717)"><title>Sheet.1754</title><ellipse cx="1.31" cy="416.636" class="st17" rx="1.31" ry="1.317"/></g><g id="shape1755-203" transform="translate(13.3939,-14.8487)"><title>Sheet.1755</title><ellipse cx="1.31" cy="416.636" class="st17" rx="1.31" ry="1.317"/></g><g id="shape1756-205" transform="translate(2.84464,-7.79613)"><title>Sheet.1756</title><ellipse cx="1.31" cy="416.636" class="st17" rx="1.31" ry="1.317"/></g><g id="shape1757-207" transform="translate(3.67974,-8.78064)"><title>Sheet.1757</title><path d="M0.95 417.95 L0 417.29 L3.73 411.98 L7.38 414.45 L10.56 410.22 L11.49 410.92 L7.64 416.03 L4.02 413.58 L0.95 417.95 Z" class="st17"/></g><g id="shape1758-209" transform="translate(6.67495,-0.332416)"><title>Sheet.1758</title><path d="M1.35 417.95 A1.35399 1.35399 0 0 1 0 416.6 C0.23 412.1 2.94 409.23 6.92 409.23 C10.9 409.23 13.63 412.1 13.84 416.53 A1.35514 1.35514 0 0 1 12.55 417.95 L1.35 417.95 L1.35 417.95 Z" class="st17"/></g><g id="shape1759-211" transform="translate(6.3437,-1.13687E-13)"><title>Sheet.1759</title><path d="M7.25 409.23 C11.22 409.23 13.64 412.18 13.84 416.22 A1.02041 1.02041 0 0 1 12.87 417.29 L1.68 417.29 A1.01925 1.01925 0 0 1 0.66 416.27 C0.66 416.25 0.66 416.23 0.66 416.21 C0.87 412.19 3.29 409.23 7.25 409.23 ZM7.25 408.57 C3.08 408.57 0.23 411.56 0 416.18 L0 416.27 A1.68872 1.68872 -180 0 0 1.69 417.95 L12.84 417.95 L12.9 417.95 A1.68756 1.68756 -180 0 0 14.5 416.18 C14.29 411.63 11.37 408.57 7.25 408.57 L7.25 408.57 Z" class="st46"/></g><g id="shape1760-213" transform="translate(13.8827,-4.39901)"><title>Sheet.1760</title><path d="M2.76 416.44 A4.62255 4.62255 -180 0 0 -0 415.26 L0 417.41 A2.57593 2.57593 0 0 1 1.28 417.95 L2.76 416.44 Z" class="st13"/></g><g id="shape1761-215" transform="translate(10.4751,-4.39901)"><title>Sheet.1761</title><path d="M0 416.44 L1.48 417.95 A2.57593 2.57593 0 0 1 2.76 417.41 L2.76 415.26 A4.62602 4.62602 -180 0 0 -0 416.44 Z" class="st13"/></g><g id="shape1762-217" transform="translate(15.6363,-2.60605)"><title>Sheet.1762</title><path d="M0 416.64 A2.72187 2.72187 0 0 1 0.54 417.95 L2.62 417.95 A4.90053 4.90053 -180 0 0 1.48 415.12 L0 416.64 Z" class="st3"/></g><g id="shape1763-219" transform="translate(8.86635,-2.60605)"><title>Sheet.1763</title><path d="M2.62 416.64 L1.14 415.12 A4.89126 4.89126 -180 0 0 0 417.95 L2.08 417.95 A2.72419 2.72419 0 0 1 2.62 416.64 Z" class="st13"/></g><g id="shape1764-221" transform="translate(13.2862,-2.34197)"><title>Sheet.1764</title><path d="M3.82 415.83 a0.463297 0.463297 -180 0 0 -0.420442 -0.269871 a0.449398 0.449398 -180 0 0 -0.193427 0.0440132 L0 417.11 L0.39 417.95 L3.6 416.45 a0.463297 0.463297 -180 0 0 0.223541 -0.615027 Z" class="st47"/></g><g id="shape1765-223" transform="translate(12.4893,-1.69335)"><title>Sheet.1765</title><ellipse cx="1.105" cy="416.848" class="st48" rx="1.105" ry="1.105"/></g></g></g><g id="shape1766-225" transform="translate(1130.51,-112.139)"><title>Sheet.1766</title><desc>Azure Monitor workspace</desc><rect width="152.362" height="28.919" x="0" y="389.034" class="st18"/><text x="37.95" y="399.89" class="st19">Azure Monitor<tspan x="48.23" class="st20" dy="1.2em">workspace</tspan></text></g><g id="shape1767-229" transform="translate(971.506,-203.679) rotate(0.179139)"><title>Arrow.4642</title><path d="M0 417.95 L146.47 417.95" class="st29"/></g><g id="shape1768-234" transform="translate(0.749943,-269.801)"><title>Rounded Rectangle.4646</title><desc>Clients</desc><path d="M4.35 417.95 L179.15 417.95 A4.34995 4.34995 -180 0 0 183.5 413.6 L183.5 308.92 A4.34995 4.34995 -180 0 0 179.15 304.57 L4.35 304.57 A4.34995 4.34995 -180 0 0 0 308.92 L0 413.6 A4.34995 4.34995 -180 0 0 4.35 417.95 Z" class="st49"/><text x="72.74" y="319.37" class="st9">Clients</text></g><g id="group1769-237" transform="translate(30.8133,-314.644)"><title>Icon-web-42.4647</title><g id="shape1770-238"><title>Sheet.1770</title><path d="M29.37 394.47 A10.412 10.412 -180 0 0 18.74 384.36 A10.7341 10.7341 -180 0 0 8.54 391.42 A9.8968 9.8968 -180 0 0 -0 401.14 A10.0256 10.0256 -180 0 0 10.28 410.8 A6.44043 6.44043 -180 0 0 11.18 410.8 L13.76 410.8 A3.15581 3.15581 0 0 1 13.52 409.6 A3.24169 3.24169 0 0 1 13.95 408.03 L10.95 408.03 L10.28 408.03 A7.32063 7.32063 0 0 1 2.73 401.14 A7.14888 7.14888 0 0 1 8.97 394.12 L10.61 393.87 L11.14 392.3 A8.00761 8.00761 0 0 1 18.74 387.08 A7.72852 7.72852 0 0 1 26.64 394.49 L26.64 396.85 L28.98 397.17 A5.56024 5.56024 0 0 1 33.83 402.52 A5.64611 5.64611 0 0 1 28.21 407.97 L27.89 407.97 L27.72 407.97 L25.57 407.97 A8.4155 8.4155 -180 0 0 17.26 401.14 A1.37396 1.37396 -180 1 0 17.26 403.87 A5.68905 5.68905 0 0 1 17.26 415.23 A1.37396 1.37396 -180 1 0 17.26 417.95 A8.4155 8.4155 -180 0 0 25.57 410.78 L27.82 410.78 A1.37396 1.37396 -180 0 0 28.25 410.78 A8.39403 8.39403 -180 0 0 36.5 402.52 A8.28669 8.28669 -180 0 0 29.37 394.47 Z" class="st50"/></g><g id="shape1771-242" transform="translate(13.5249,-5.06647)"><title>Sheet.1771</title><path d="M0 414.65 A3.30617 3.30617 -180 0 0 3.31 417.95 L3.39 417.95 A3.30617 3.30617 -180 0 0 6.7 414.65 L6.7 414.56 A3.30617 3.30617 -180 0 0 3.39 411.25 L3.31 411.25 A3.30617 3.30617 -180 0 0 0 414.56 L0 414.65 Z" class="st51"/></g></g><g id="group1772-246" transform="translate(120.146,-317.099)"><title>Sheet.1772</title><g id="shape1773-247" transform="translate(4.14846,-19.6513)"><title>Sheet.1773</title><path d="M2.57 417.89 L2.57 413.39 a0.502201 0.502201 0 0 1 0.502201 -0.500433 L12.75 412.88 L12.75 410.37 L1 410.37 A1.0044 1.0044 -180 0 0 0 411.38 L0 417.95 L2.57 417.89 Z" class="st52"/></g><g id="shape1774-249" transform="translate(4.14846,-2.89296)"><title>Sheet.1774</title><path d="M0 410.13 L0 416.95 A1.0044 1.0044 -180 0 0 1 417.95 L12.7 417.95 L12.7 415.44 L3.07 415.44 a0.502201 0.502201 0 0 1 -0.502201 -0.500433 L2.57 410.07 L0 410.13 Z" class="st52"/></g><g id="shape1775-251" transform="translate(-1.59872E-13,-9.2695)"><title>Sheet.1775</title><path d="M0 407.49 L0 416.91 A1.04154 1.04154 -180 0 0 1.04 417.95 L10.46 417.95 A1.03977 1.03977 -180 0 0 11.51 416.92 L11.51 407.49 A1.04154 1.04154 -180 0 0 10.48 406.44 L1.04 406.44 A1.04154 1.04154 -180 0 0 -0 407.48 L0 407.49 ZM8.88 408.39 a0.689642 0.689642 0 0 1 0.689642 0.689642 L9.57 415.33 a0.69141 0.69141 0 0 1 -0.689642 0.689642 L2.62 416.02 a0.69141 0.69141 0 0 1 -0.689642 -0.689642 L1.93 409.07 a0.69141 0.69141 0 0 1 0.689642 -0.689642 L8.88 408.39 Z" class="st53"/></g><g id="shape1776-253" transform="translate(14.99,-1.13687E-13)"><title>a212a2a2-29a5-4c80-9005-7e0cb63</title><path d="M16 408.68 L0.84 408.68 a0.836412 0.836412 -180 0 0 -0.836412 0.836412 L0 417.12 a0.836412 0.836412 -180 0 0 0.836412 0.836412 L16 417.95 a0.836412 0.836412 -180 0 0 0.836412 -0.834644 L16.84 409.51 a0.836412 0.836412 -180 0 0 -0.836412 -0.836412 L16 408.68 Z" class="st45"/></g><g id="shape1777-256" transform="translate(14.99,-20.8537)"><title>af862dfe-89f4-46aa-a2f8-e7418d4</title><path d="M16 408.68 L0.84 408.68 a0.836412 0.836412 -180 0 0 -0.836412 0.836412 L0 417.12 a0.836412 0.836412 -180 0 0 0.836412 0.836412 L16 417.95 a0.836412 0.836412 -180 0 0 0.836412 -0.831107 L16.84 409.51 a0.836412 0.836412 -180 0 0 -0.836412 -0.836412 L16 408.68 Z" class="st45"/></g><g id="shape1778-259" transform="translate(18.0615,-2.37838)"><title>Sheet.1778</title><path d="M0 417.76 a0.196287 0.196287 -180 0 0 0.196283 0.196283 L2.5 417.95 a0.196287 0.196287 -180 0 0 0.196283 -0.196283 L2.69 416.05 a0.196287 0.196287 -180 0 0 -0.196283 -0.196283 L0.2 415.85 a0.196287 0.196287 -180 0 0 -0.196283 0.196283 L0 417.76 Z" class="st17"/></g><g id="shape1779-261" transform="translate(21.9943,-2.37838)"><title>Sheet.1779</title><path d="M0 417.72 a0.233423 0.233423 -180 0 0 0.233417 0.233417 L2.46 417.95 a0.233423 0.233423 -180 0 0 0.233417 -0.233417 L2.69 415.17 a0.233423 0.233423 -180 0 0 -0.233417 -0.233417 L0.23 414.94 a0.233423 0.233423 -180 0 0 -0.233417 0.233417 L0 417.72 Z" class="st17"/></g><g id="shape1780-263" transform="translate(25.927,-2.37838)"><title>Sheet.1780</title><path d="M-0 417.67 a0.284705 0.284705 -180 0 0 0.284698 0.284698 L2.41 417.95 a0.284705 0.284705 -180 0 0 0.284698 -0.284698 L2.69 413.8 a0.284705 0.284705 -180 0 0 -0.284698 -0.284698 L0.28 413.52 a0.284705 0.284705 -180 0 0 -0.284698 0.284698 L0 417.67 Z" class="st17"/></g><g id="shape1781-265" transform="translate(20.6274,-25.0658)"><title>Sheet.1781</title><ellipse cx=".996" cy="416.957" class="st17" rx=".996" ry=".996"/></g><g id="shape1782-267" transform="translate(24.1056,-22.889)"><title>Sheet.1782</title><ellipse cx=".996" cy="416.957" class="st17" rx=".996" ry=".996"/></g><g id="shape1783-269" transform="translate(26.8695,-26.6679)"><title>Sheet.1783</title><ellipse cx=".996" cy="416.957" class="st17" rx=".996" ry=".996"/></g><g id="shape1784-271" transform="translate(17.7344,-22.5814)"><title>Sheet.1784</title><ellipse cx=".996" cy="416.957" class="st17" rx=".996" ry=".996"/></g><g id="shape1785-273" transform="translate(18.2543,-23.0729)"><title>Sheet.1785</title><path d="M0.59 417.95 L0 417.34 L3.29 414.15 L6.75 416.58 L9.46 412.98 L10.14 413.49 L6.94 417.74 L3.38 415.25 L0.59 417.95 Z" class="st17"/></g></g><g id="shape1786-275" transform="translate(106.297,-291.994)"><title>Sheet.1786</title><desc>Agent</desc><rect width="65.764" height="17.008" x="0" y="400.945" class="st18"/><text x="18.44" y="413.05" class="st54">Agent</text></g><g id="shape1787-278" transform="translate(14.171,-291.912)"><title>Sheet.1787</title><desc>Direct ingest</desc><rect width="75.118" height="17.09" x="0" y="400.863" class="st18"/><text x="6.81" y="413.01" class="st54">Direct ingest</text></g><g id="shape1789-281" transform="translate(0.749929,-47.5971)"><title>Rounded Rectangle.1789</title><desc>Clients</desc><path d="M4.35 417.95 L179.15 417.95 A4.34995 4.34995 -180 0 0 183.5 413.6 L183.5 308.92 A4.34995 4.34995 -180 0 0 179.15 304.57 L4.35 304.57 A4.34995 4.34995 -180 0 0 0 308.92 L0 413.6 A4.34995 4.34995 -180 0 0 4.35 417.95 Z" class="st49"/><text x="72.74" y="319.37" class="st9">Clients</text></g><g id="group1790-284" transform="translate(30.8132,-92.4398)"><title>Icon-web-42.1790</title><g id="shape1791-285"><title>Sheet.1791</title><path d="M29.37 394.47 A10.412 10.412 -180 0 0 18.74 384.36 A10.7341 10.7341 -180 0 0 8.54 391.42 A9.8968 9.8968 -180 0 0 -0 401.14 A10.0256 10.0256 -180 0 0 10.28 410.8 A6.44043 6.44043 -180 0 0 11.18 410.8 L13.76 410.8 A3.15581 3.15581 0 0 1 13.52 409.6 A3.24169 3.24169 0 0 1 13.95 408.03 L10.95 408.03 L10.28 408.03 A7.32063 7.32063 0 0 1 2.73 401.14 A7.14888 7.14888 0 0 1 8.97 394.12 L10.61 393.87 L11.14 392.3 A8.00761 8.00761 0 0 1 18.74 387.08 A7.72852 7.72852 0 0 1 26.64 394.49 L26.64 396.85 L28.98 397.17 A5.56024 5.56024 0 0 1 33.83 402.52 A5.64611 5.64611 0 0 1 28.21 407.97 L27.89 407.97 L27.72 407.97 L25.57 407.97 A8.4155 8.4155 -180 0 0 17.26 401.14 A1.37396 1.37396 -180 1 0 17.26 403.87 A5.68905 5.68905 0 0 1 17.26 415.23 A1.37396 1.37396 -180 1 0 17.26 417.95 A8.4155 8.4155 -180 0 0 25.57 410.78 L27.82 410.78 A1.37396 1.37396 -180 0 0 28.25 410.78 A8.39403 8.39403 -180 0 0 36.5 402.52 A8.28669 8.28669 -180 0 0 29.37 394.47 Z" class="st50"/></g><g id="shape1792-288" transform="translate(13.5249,-5.06647)"><title>Sheet.1792</title><path d="M0 414.65 A3.30617 3.30617 -180 0 0 3.31 417.95 L3.39 417.95 A3.30617 3.30617 -180 0 0 6.7 414.65 L6.7 414.56 A3.30617 3.30617 -180 0 0 3.39 411.25 L3.31 411.25 A3.30617 3.30617 -180 0 0 0 414.56 L0 414.65 Z" class="st51"/></g></g><g id="group1793-291" transform="translate(120.146,-94.8944)"><title>Sheet.1793</title><g id="shape1794-292" transform="translate(4.14846,-19.6513)"><title>Sheet.1794</title><path d="M2.57 417.89 L2.57 413.39 a0.502201 0.502201 0 0 1 0.502201 -0.500433 L12.75 412.88 L12.75 410.37 L1 410.37 A1.0044 1.0044 -180 0 0 0 411.38 L0 417.95 L2.57 417.89 Z" class="st52"/></g><g id="shape1795-294" transform="translate(4.14846,-2.89296)"><title>Sheet.1795</title><path d="M0 410.13 L0 416.95 A1.0044 1.0044 -180 0 0 1 417.95 L12.7 417.95 L12.7 415.44 L3.07 415.44 a0.502201 0.502201 0 0 1 -0.502201 -0.500433 L2.57 410.07 L0 410.13 Z" class="st52"/></g><g id="shape1796-296" transform="translate(-1.59872E-13,-9.2695)"><title>Sheet.1796</title><path d="M0 407.49 L0 416.91 A1.04154 1.04154 -180 0 0 1.04 417.95 L10.46 417.95 A1.03977 1.03977 -180 0 0 11.51 416.92 L11.51 407.49 A1.04154 1.04154 -180 0 0 10.48 406.44 L1.04 406.44 A1.04154 1.04154 -180 0 0 -0 407.48 L0 407.49 ZM8.88 408.39 a0.689642 0.689642 0 0 1 0.689642 0.689642 L9.57 415.33 a0.69141 0.69141 0 0 1 -0.689642 0.689642 L2.62 416.02 a0.69141 0.69141 0 0 1 -0.689642 -0.689642 L1.93 409.07 a0.69141 0.69141 0 0 1 0.689642 -0.689642 L8.88 408.39 Z" class="st53"/></g><g id="shape1797-298" transform="translate(14.99,-1.13687E-13)"><title>a212a2a2-29a5-4c80-9005-7e0cb63</title><path d="M16 408.68 L0.84 408.68 a0.836412 0.836412 -180 0 0 -0.836412 0.836412 L0 417.12 a0.836412 0.836412 -180 0 0 0.836412 0.836412 L16 417.95 a0.836412 0.836412 -180 0 0 0.836412 -0.834644 L16.84 409.51 a0.836412 0.836412 -180 0 0 -0.836412 -0.836412 L16 408.68 Z" class="st45"/></g><g id="shape1798-301" transform="translate(14.99,-20.8537)"><title>af862dfe-89f4-46aa-a2f8-e7418d4</title><path d="M16 408.68 L0.84 408.68 a0.836412 0.836412 -180 0 0 -0.836412 0.836412 L0 417.12 a0.836412 0.836412 -180 0 0 0.836412 0.836412 L16 417.95 a0.836412 0.836412 -180 0 0 0.836412 -0.831107 L16.84 409.51 a0.836412 0.836412 -180 0 0 -0.836412 -0.836412 L16 408.68 Z" class="st45"/></g><g id="shape1799-304" transform="translate(18.0615,-2.37838)"><title>Sheet.1799</title><path d="M0 417.76 a0.196287 0.196287 -180 0 0 0.196283 0.196283 L2.5 417.95 a0.196287 0.196287 -180 0 0 0.196283 -0.196283 L2.69 416.05 a0.196287 0.196287 -180 0 0 -0.196283 -0.196283 L0.2 415.85 a0.196287 0.196287 -180 0 0 -0.196283 0.196283 L0 417.76 Z" class="st17"/></g><g id="shape1800-306" transform="translate(21.9943,-2.37838)"><title>Sheet.1800</title><path d="M0 417.72 a0.233423 0.233423 -180 0 0 0.233417 0.233417 L2.46 417.95 a0.233423 0.233423 -180 0 0 0.233417 -0.233417 L2.69 415.17 a0.233423 0.233423 -180 0 0 -0.233417 -0.233417 L0.23 414.94 a0.233423 0.233423 -180 0 0 -0.233417 0.233417 L0 417.72 Z" class="st17"/></g><g id="shape1801-308" transform="translate(25.927,-2.37838)"><title>Sheet.1801</title><path d="M-0 417.67 a0.284705 0.284705 -180 0 0 0.284698 0.284698 L2.41 417.95 a0.284705 0.284705 -180 0 0 0.284698 -0.284698 L2.69 413.8 a0.284705 0.284705 -180 0 0 -0.284698 -0.284698 L0.28 413.52 a0.284705 0.284705 -180 0 0 -0.284698 0.284698 L0 417.67 Z" class="st17"/></g><g id="shape1802-310" transform="translate(20.6274,-25.0658)"><title>Sheet.1802</title><ellipse cx=".996" cy="416.957" class="st17" rx=".996" ry=".996"/></g><g id="shape1803-312" transform="translate(24.1056,-22.889)"><title>Sheet.1803</title><ellipse cx=".996" cy="416.957" class="st17" rx=".996" ry=".996"/></g><g id="shape1804-314" transform="translate(26.8695,-26.6679)"><title>Sheet.1804</title><ellipse cx=".996" cy="416.957" class="st17" rx=".996" ry=".996"/></g><g id="shape1805-316" transform="translate(17.7344,-22.5814)"><title>Sheet.1805</title><ellipse cx=".996" cy="416.957" class="st17" rx=".996" ry=".996"/></g><g id="shape1806-318" transform="translate(18.2543,-23.0729)"><title>Sheet.1806</title><path d="M0.59 417.95 L0 417.34 L3.29 414.15 L6.75 416.58 L9.46 412.98 L10.14 413.49 L6.94 417.74 L3.38 415.25 L0.59 417.95 Z" class="st17"/></g></g><g id="shape1807-320" transform="translate(106.297,-69.7898)"><title>Sheet.1807</title><desc>Agent</desc><rect width="65.764" height="17.008" x="0" y="400.945" class="st18"/><text x="18.44" y="413.05" class="st54">Agent</text></g><g id="shape1808-323" transform="translate(14.1709,-69.7076)"><title>Sheet.1808</title><desc>Direct ingest</desc><rect width="75.118" height="17.09" x="0" y="400.863" class="st18"/><text x="6.81" y="413.01" class="st54">Direct ingest</text></g><g id="shape1719-326" transform="translate(719.333,-181.927)"><title>Sheet.1719</title><desc>Incoming Data</desc><rect width="65.197" height="37.782" x="0" y="380.171" class="st24"/><text x="7.77" y="395.95" class="st19">Incoming<tspan x="20.25" class="st20" dy="1.2em">Data</tspan></text></g><g id="shape1827-330" transform="translate(494.643,-104.29)"><title>Dynamic connector.1827</title><path d="M0 417.95 L166.58 417.95 A5.66929 5.66929 -180 0 0 172.25 412.28 L172.25 356.97 A5.66929 5.66929 0 0 1 177.92 351.3 L274.51 351.3" class="st29"/></g><g id="group1916-335" transform="translate(780.278,-159.903)"><title>Sheet.1916</title><g id="group1815-336"><title>Data Pipelines Menu.1815</title><g id="group1816-337"><title>e8071740-76d7-444d-a08a-6a2072b</title><g id="shape1817-338" transform="translate(22.8328,0)"><title>Sheet.1817</title><path d="M120.48 330.4 L144.22 330.4 C156.86 330.4 167.09 350.02 167.09 374.15 L167.09 374.75 C166.91 398.71 156.74 417.89 144.22 417.89 L120.48 417.89 C133.15 417.89 143.35 398.32 143.35 374.14 C143.35 349.97 133.12 330.4 120.48 330.4 ZM39.99 343.2 C39.67 342.54 39.25 341.89 38.83 341.23 C34.82 334.5 29.54 330.41 23.74 330.41 L0 330.41 C5.8 330.41 11.08 334.5 15.09 341.23 A131.362 91.0431 0 0 1 22.9 374.15 A129.125 89.4928 0 0 1 15.09 407.06 C11.08 413.86 5.8 417.95 0 417.95 L23.74 417.95 C29.54 417.95 34.71 413.93 38.72 407.2 A129.294 89.6098 -180 0 0 46.64 374.73 L46.64 374.15 A137.281 95.1455 -180 0 0 39.99 343.2 Z" class="st1"/></g><g id="shape1818-341"><title>Sheet.1818</title><path d="M166.22 374.15 C166.22 398.35 155.99 417.95 143.33 417.95 C137.52 417.95 132.25 413.86 128.24 407.06 L143.33 407.06 C151.24 407.06 157.57 392.36 157.57 374.15 C157.57 355.94 151.24 341.24 143.33 341.24 L128.24 341.24 C132.25 334.51 137.52 330.42 143.33 330.42 C155.99 330.41 166.22 350.02 166.22 374.15 ZM22.87 330.4 C10.22 330.4 0 349.97 0 374.15 C0 398.33 10.25 417.9 22.87 417.9 C35.5 417.9 45.72 398.28 45.72 374.15 C45.72 350.02 35.49 330.4 22.87 330.4 Z" class="st2"/></g><g id="shape1819-343" transform="translate(8.60976,-10.8959)"><title>Sheet.1819</title><path d="M14.27 352.14 C22.18 352.14 28.52 366.88 28.52 385.05 C28.52 403.21 22.19 417.95 14.27 417.95 C6.34 417.95 0 403.22 0 385.05 C0 366.87 6.38 352.14 14.27 352.14 Z" class="st3"/></g><g id="shape1820-345" transform="translate(61.5556,-10.7497)"><title>Sheet.1820</title><path d="M96.02 384.9 C96.02 403.11 89.69 417.81 81.77 417.81 L54.87 417.81 L54.87 417.95 L0 417.95 A129.294 89.6098 -180 0 0 7.91 385.48 L7.91 384.9 A137.281 95.1455 -180 0 0 1.27 353.97 C0.95 353.31 0.53 352.65 0.11 351.99 L81.77 351.99 C89.69 351.99 96.02 366.75 96.02 384.9 Z" class="st4"/></g></g></g><g id="shape1824-348" transform="translate(73.1339,-25.6223)"><title>Sheet.1824</title><desc>Transformation</desc><rect width="75.685" height="15.481" x="0" y="402.472" class="st18"/><text x="9.46" y="412.91" class="st55">Transformation</text></g><g id="group1825-351" transform="translate(98.2205,-40.1887)"><title>Sheet.1825</title><g id="shape1826-352"><title>Sheet.1826</title><path d="M11.82 417.82 L12.6 415.29 L14.07 414.45 L16.64 415.62 L18.32 413.93 L18.32 413.74 L17.16 411.47 L17.87 409.84 L20.44 408.94 L20.69 408.94 L20.69 406.6 L20.37 406.6 L17.8 405.82 L16.97 404.33 L18.06 401.67 L16.39 400.05 L16.19 400.05 L13.95 401.22 L12.4 400.24 L11.44 397.2 L9.06 397.2 L9.06 397.52 L8.29 400.05 L6.68 400.76 L3.92 399.47 L2.25 401.22 L2.38 401.54 L3.6 403.94 L2.96 405.56 L0 406.54 L0 408.94 L0.32 408.94 L2.83 409.71 L3.53 411.34 L2.31 414.13 L3.98 415.81 L4.24 415.68 L6.62 414.45 L8.23 415.1 L9.32 417.95 L11.63 417.95 L11.82 417.82 ZM8.03 410.17 C6.68 408.87 6.68 406.67 7.97 405.3 C9.25 403.94 11.44 403.94 12.79 405.24 C14.14 406.54 14.14 408.81 12.85 410.17 C11.89 411.14 10.41 411.47 9.13 410.95 C8.74 410.75 8.35 410.49 8.03 410.17 Z" class="st56"/></g></g></g></g></svg>