<svg xmlns="http://www.w3.org/2000/svg" xmlns:ev="http://www.w3.org/2001/xml-events" xmlns:xlink="http://www.w3.org/1999/xlink" width="843.1" height="329.232" class="st39" color-interpolation-filters="sRGB" viewBox="0 0 632.325 246.924" xml:space="preserve"><style type="text/css">.st1{fill:#f2f2f2;stroke:#a5a5a5;stroke-linecap:round;stroke-linejoin:round;stroke-width:1.5}.st2{fill:#000;font-family:Segoe UI;font-size:1.16666em;font-weight:700}.st3{fill:#fff;stroke:none;stroke-linecap:round;stroke-linejoin:round;stroke-width:.75}.st4{fill:#0078d7}.st4,.st5,.st6,.st7,.st8,.st9{stroke:none;stroke-linecap:butt;stroke-width:.75}.st5{fill:#5ea0ef}.st6{fill:#83b9f9}.st7{fill:url(#grad0-30)}.st8{fill:#fff}.st9{fill:url(#grad0-55)}.st10{fill:#e6e6e6}.st11,.st12,.st13,.st14,.st15,.st16,.st17,.st18,.st19{stroke:none;stroke-linecap:butt;stroke-width:.75}.st12{fill:#50e6ff}.st13{fill:#198ab3}.st14{fill:url(#grad0-68)}.st15{fill:url(#grad0-72)}.st16{fill:#0078d4}.st17{fill:#32bedd}.st18{fill:#e62323}.st19{fill:#4f4f4f}.st20{marker-end:url(#mrkr5-126);stroke:#000;stroke-linecap:round;stroke-linejoin:round;stroke-width:1.5}.st21{fill:#000;fill-opacity:1;stroke:#000;stroke-opacity:1;stroke-width:.37313432835821}.st22{fill:url(#grad0-137);stroke:none;stroke-width:.75}.st22,.st23,.st24{stroke-linecap:butt}.st23,.st24,.st25{stroke:none;stroke-width:.75}.st23{fill:#9cebff}.st24{fill:url(#grad0-145)}.st25{fill:none;stroke-linecap:round;stroke-linejoin:round}.st26{fill:#000;font-family:Calibri;font-size:1.00001em}.st27,.st28{stroke-linecap:round;stroke-linejoin:round}.st27{marker-end:url(#mrkr5-126);stroke:#000;stroke-dasharray:1.5,3;stroke-width:1.5}.st28{fill:url(#grad0-166);stroke:none;stroke-width:.24}.st29,.st30{stroke:#83b9f9}.st29{marker-end:url(#mrkr2-172);stroke-width:3.5}.st30{fill:#83b9f9;fill-opacity:1;stroke-opacity:1;stroke-width:.7085020242915}.st31{fill:url(#grad0-176);stroke-linecap:round;stroke-linejoin:round}.st31,.st32{stroke:none;stroke-width:.24}.st32,.st33{stroke-linecap:round;stroke-linejoin:round}.st32{fill:#fff}.st33{fill:none;stroke:#fff;stroke-width:.25}.st34,.st35{stroke:#fff;stroke-width:1}.st35{stroke-width:.75}.st36{fill:#000;font-family:Calibri;font-size:.75em}.st37{fill:url(#grad0-320);stroke:#fff;stroke-linecap:butt;stroke-width:.75}.st38{font-size:1em}.st39{fill:none;fill-rule:evenodd;font-size:12px;overflow:visible;stroke-linecap:square;stroke-miterlimit:3}</style><defs id="Patterns_And_Gradients"><linearGradient id="grad0-30" x1="0" x2="1" y1="0" y2="0" gradientTransform="rotate(90 0.5 0.5)"><stop offset="0" stop-color="#5ea0ef" stop-opacity="1"/><stop offset="1" stop-color="#0078d4" stop-opacity="1"/></linearGradient><linearGradient id="grad0-55" x1="0" x2="1" y1="0" y2="0" gradientTransform="rotate(0.12781289921392 0.5 0.5)"><stop offset="0" stop-color="#005ba1" stop-opacity="1"/><stop offset=".07" stop-color="#0060a9" stop-opacity="1"/><stop offset=".355" stop-color="#0071c8" stop-opacity="1"/><stop offset=".515" stop-color="#0078d4" stop-opacity="1"/><stop offset=".64" stop-color="#0074cd" stop-opacity="1"/><stop offset=".82" stop-color="#006abb" stop-opacity="1"/><stop offset="1" stop-color="#005ba1" stop-opacity="1"/></linearGradient><linearGradient id="grad0-68" x1="0" x2="1" y1="0" y2="0" gradientTransform="rotate(-90 0.5 0.5)"><stop offset="0" stop-color="#1988d9" stop-opacity="1"/><stop offset=".9" stop-color="#54aef0" stop-opacity="1"/></linearGradient><linearGradient id="grad0-72" x1="0" x2="1" y1="0" y2="0" gradientTransform="rotate(-90 0.5 0.5)"><stop offset="0" stop-color="#198ab3" stop-opacity="1"/><stop offset=".01" stop-color="#198bb4" stop-opacity="1"/><stop offset=".44" stop-color="#27b2d7" stop-opacity="1"/><stop offset=".79" stop-color="#2fcbed" stop-opacity="1"/><stop offset="1" stop-color="#32d4f5" stop-opacity="1"/></linearGradient><linearGradient id="grad0-137" x1="0" x2="1" y1="0" y2="0" gradientTransform="rotate(90 0.5 0.5)"><stop offset="0" stop-color="#32bedd" stop-opacity="1"/><stop offset=".065" stop-color="#3dcce9" stop-opacity="1"/><stop offset=".17" stop-color="#48dbf5" stop-opacity="1"/><stop offset=".295" stop-color="#4ee3fd" stop-opacity="1"/><stop offset=".49" stop-color="#50e6ff" stop-opacity="1"/><stop offset=".705" stop-color="#4ee4fd" stop-opacity="1"/><stop offset=".83" stop-color="#48dbf6" stop-opacity="1"/><stop offset=".93" stop-color="#3dcdea" stop-opacity="1"/><stop offset="1" stop-color="#32bedd" stop-opacity="1"/></linearGradient><linearGradient id="grad0-145" x1="0" x2="1" y1="0" y2="0" gradientTransform="rotate(90 0.5 0.5)"><stop offset="0" stop-color="#198ab3" stop-opacity="1"/><stop offset=".025" stop-color="#1d92b9" stop-opacity="1"/><stop offset=".1" stop-color="#26a5c9" stop-opacity="1"/><stop offset=".19" stop-color="#2cb2d4" stop-opacity="1"/><stop offset=".305" stop-color="#30bada" stop-opacity="1"/><stop offset=".53" stop-color="#31bcdc" stop-opacity="1"/><stop offset=".655" stop-color="#2eb5d6" stop-opacity="1"/><stop offset=".84" stop-color="#24a1c6" stop-opacity="1"/><stop offset="1" stop-color="#198ab3" stop-opacity="1"/></linearGradient><linearGradient id="grad0-166" x1="0" x2="1" y1="0" y2="0" gradientTransform="rotate(90 0.5 0.5)"><stop offset="0" stop-color="#4d98ea" stop-opacity="1"/><stop offset="1" stop-color="#0078d4" stop-opacity="1"/></linearGradient><linearGradient id="grad0-176" x1="0" x2="1" y1="0" y2="0" gradientTransform="rotate(90 0.5 0.5)"><stop offset="0" stop-color="#4be0fa" stop-opacity="1"/><stop offset="1" stop-color="#3dcce9" stop-opacity="1"/></linearGradient><linearGradient id="grad0-320" x1="0" x2="1" y1="0" y2="0" gradientTransform="rotate(90 0.5 0.5)"><stop offset="0" stop-color="#7cafed" stop-opacity="1"/><stop offset="1" stop-color="#0066be" stop-opacity="1"/></linearGradient></defs><defs id="Markers"><g id="lend5"><path style="stroke:none" d="M 2 1 L 0 0 L 1.98117 -0.993387 C 1.67173 -0.364515 1.67301 0.372641 1.98465 1.00043"/></g><marker id="mrkr5-126" class="st21" markerUnits="strokeWidth" orient="auto" overflow="visible" refX="-4.69"><use transform="scale(-2.68,-2.68)" xlink:href="#lend5"/></marker><g id="lend2"><path style="stroke:none" d="M 1 1 L 0 0 L 1 -1 L 1 1"/></g><marker id="mrkr2-172" class="st30" markerUnits="strokeWidth" orient="auto" overflow="visible" refX="-1.411"><use transform="scale(-1.4114285714286,-1.4114285714286)" xlink:href="#lend2"/></marker></defs><g><title>Page-1</title><g id="shape4361-1" transform="translate(227.638,-9.16422)"><title>Rounded Rectangle.4361</title><desc>Azure Monitor</desc><path d="M10.92 246.92 L393.02 246.92 A10.917 10.917 -180 0 0 403.94 236.01 L403.94 20.83 A10.917 10.917 -180 0 0 393.02 9.91 L10.92 9.91 A10.917 10.917 -180 0 0 0 20.83 L0 236.01 A10.917 10.917 -180 0 0 10.92 246.92 Z" class="st1"/><text x="295.93" y="30.51" class="st2">Azure Monitor</text></g><g id="group4362-4" transform="translate(33.4647,-59.0876)"><title>Sheet.4362</title><g id="shape4363-5" transform="translate(2.79958,-14.515)"><title>Sheet.4363</title><rect width="46.626" height="33.674" x="0" y="213.25" class="st3"/></g><g id="group4364-7"><title>Virtual Machine symbol only.1002</title><g id="shape4365-8"><title>Sheet.4365</title><path d="M49.07 198.74 L2.84 198.74 C1.26 198.74 0 200.14 0 201.7 L0 233.93 C0 235.5 1.26 236.88 2.84 236.88 L18.67 236.88 C20.37 242.91 18.08 243.77 8.03 243.77 L8.03 246.92 L20.8 246.92 L30.13 246.92 L42.18 246.92 L42.18 243.77 C32.14 243.77 31.15 242.91 32.85 236.88 L49.07 236.88 C50.63 236.88 52.22 235.5 52.22 233.93 L52.22 201.7 C52.22 200.14 50.63 198.74 49.07 198.74 ZM48.21 202.75 L48.21 232.87 L4.02 232.87 L4.02 202.75 L48.34 202.67 L48.21 202.75 Z" class="st4"/></g><g id="group4366-10" transform="translate(16.673,-19.3337)"><title>Sheet.4366</title><g id="group4367-11" transform="translate(0.828486,-10.6314)"><title>Sheet.4367</title><g id="shape4368-12"><title>Sheet.4368</title><path d="M16.2 242.13 L8.1 237.46 L0 242.13 L0 242.25 L8.1 246.92 L16.2 242.25 L16.2 242.13 Z" class="st4"/></g></g><g id="group4369-14" transform="translate(9.75687,1.13687E-13)"><title>Sheet.4369</title><g id="shape4370-15"><title>Sheet.4370</title><path d="M0 237.68 L0 246.92 L8.1 242.25 L8.1 233.01 L0 237.68 Z" class="st4"/></g></g><g id="group4371-17"><title>Sheet.4371</title><g id="shape4372-18"><title>Sheet.4372</title><path d="M8.1 237.68 L0 233.01 L0 242.25 L8.1 246.92 L8.1 237.68 Z" class="st4"/></g></g></g></g></g><g id="group4373-20" transform="translate(82.2206,-58.6057)"><title>Sheet.4373</title><g id="shape4374-21" transform="translate(4.35949,-20.6509)"><title>Sheet.4374</title><path d="M2.7 246.86 L2.7 242.12 a0.527748 0.527748 0 0 1 0.527748 -0.525889 L13.4 241.6 L13.4 238.96 L1.06 238.96 A1.0555 1.0555 -180 0 0 -0 240.01 L0 246.92 L2.7 246.86 Z" class="st5"/></g><g id="shape4375-23" transform="translate(4.35949,-3.04012)"><title>Sheet.4375</title><path d="M0 238.71 L0 245.87 A1.0555 1.0555 -180 0 0 1.06 246.92 L13.35 246.92 L13.35 244.28 L3.23 244.28 a0.527748 0.527748 0 0 1 -0.527748 -0.525889 L2.7 238.64 L0 238.71 Z" class="st5"/></g><g id="shape4376-25" transform="translate(-1.67866E-13,-9.74103)"><title>Sheet.4376</title><path d="M0 235.93 L0 245.83 A1.09452 1.09452 -180 0 0 1.09 246.92 L11 246.92 A1.09266 1.09266 -180 0 0 12.1 245.84 L12.1 235.93 A1.09452 1.09452 -180 0 0 11.01 234.83 L1.09 234.83 A1.09452 1.09452 -180 0 0 -0 235.92 L0 235.93 ZM9.33 236.88 a0.724724 0.724724 0 0 1 0.724724 0.724724 L10.06 244.17 a0.726582 0.726582 0 0 1 -0.724724 0.724724 L2.76 244.89 a0.726582 0.726582 0 0 1 -0.724724 -0.724724 L2.03 237.59 a0.726582 0.726582 0 0 1 0.724724 -0.724724 L9.33 236.88 Z" class="st6"/></g><g id="shape4377-27" transform="translate(15.7525,-1.7053E-13)"><title>a212a2a2-29a5-4c80-9005-7e0cb63</title><path d="M16.81 237.18 L0.88 237.18 a0.87896 0.87896 -180 0 0 -0.87896 0.87896 L0 246.05 a0.87896 0.87896 -180 0 0 0.87896 0.87896 L16.82 246.92 a0.87896 0.87896 -180 0 0 0.87896 -0.877102 L17.7 238.06 a0.87896 0.87896 -180 0 0 -0.87896 -0.87896 L16.81 237.18 Z" class="st7"/></g><g id="shape4378-31" transform="translate(15.7525,-21.9145)"><title>af862dfe-89f4-46aa-a2f8-e7418d4</title><path d="M16.81 237.18 L0.88 237.18 a0.87896 0.87896 -180 0 0 -0.87896 0.87896 L0 246.05 a0.87896 0.87896 -180 0 0 0.87896 0.87896 L16.82 246.92 a0.87896 0.87896 -180 0 0 0.87896 -0.873385 L17.7 238.05 a0.87896 0.87896 -180 0 0 -0.87896 -0.87896 L16.81 237.18 Z" class="st7"/></g><g id="shape4379-34" transform="translate(18.9803,-2.49937)"><title>Sheet.4379</title><path d="M0 246.72 a0.206272 0.206272 -180 0 0 0.206268 0.206268 L2.63 246.92 a0.206272 0.206272 -180 0 0 0.206268 -0.206268 L2.83 244.92 a0.206272 0.206272 -180 0 0 -0.206268 -0.206268 L0.21 244.71 a0.206272 0.206272 -180 0 0 -0.206268 0.206268 L0 246.72 Z" class="st8"/></g><g id="shape4380-36" transform="translate(23.1131,-2.49937)"><title>Sheet.4380</title><path d="M0 246.68 a0.245297 0.245297 -180 0 0 0.245291 0.245291 L2.59 246.92 a0.245297 0.245297 -180 0 0 0.245291 -0.245291 L2.83 244 a0.245297 0.245297 -180 0 0 -0.245291 -0.245291 L0.25 243.76 a0.245297 0.245297 -180 0 0 -0.245291 0.245291 L0 246.68 Z" class="st8"/></g><g id="shape4381-38" transform="translate(27.2459,-2.49937)"><title>Sheet.4381</title><path d="M0 246.63 a0.299188 0.299188 -180 0 0 0.299181 0.299181 L2.53 246.92 a0.299188 0.299188 -180 0 0 0.299181 -0.299181 L2.83 242.56 a0.299188 0.299188 -180 0 0 -0.299181 -0.299181 L0.3 242.26 a0.299188 0.299188 -180 0 0 -0.299181 0.299181 L0 246.63 Z" class="st8"/></g><g id="shape4382-40" transform="translate(21.6767,-26.3409)"><title>Sheet.4382</title><ellipse cx="1.046" cy="245.878" class="st8" rx="1.046" ry="1.046"/></g><g id="shape4383-42" transform="translate(25.3319,-24.0534)"><title>Sheet.4383</title><ellipse cx="1.046" cy="245.878" class="st8" rx="1.046" ry="1.046"/></g><g id="shape4384-44" transform="translate(28.2364,-28.0245)"><title>Sheet.4384</title><ellipse cx="1.046" cy="245.878" class="st8" rx="1.046" ry="1.046"/></g><g id="shape4385-46" transform="translate(18.6366,-23.7301)"><title>Sheet.4385</title><ellipse cx="1.046" cy="245.878" class="st8" rx="1.046" ry="1.046"/></g><g id="shape4386-48" transform="translate(19.1829,-24.2467)"><title>Sheet.4386</title><path d="M0.62 246.92 L0 246.28 L3.46 242.93 L7.09 245.48 L9.94 241.7 L10.65 242.23 L7.29 246.71 L3.55 244.08 L0.62 246.92 Z" class="st8"/></g></g><g id="group4389-50" transform="translate(461.9,-32.1584)"><title>Sheet.4389</title><g id="group4390-51"><title>Sheet.4390</title><g id="shape4391-52"><title>Sheet.4391</title><path d="M12.37 223.03 C5.56 223.02 0.05 220.99 0.06 218.51 L0 242.39 C0 244.85 5.41 246.86 12.14 246.91 L12.31 246.91 C19.11 246.92 24.63 244.93 24.64 242.45 L24.7 218.58 C24.69 221.06 19.17 223.05 12.37 223.03 Z" class="st9"/></g><g id="shape4392-56" transform="translate(0.0548606,-23.8765)"><title>Sheet.4392</title><path d="M24.65 242.45 C24.65 244.93 19.12 246.92 12.32 246.91 C5.51 246.9 0 244.87 0.01 242.39 C0.01 239.91 5.53 237.92 12.34 237.94 C19.14 237.95 24.65 239.97 24.64 242.45 L24.65 242.45 Z" class="st10"/><path d="M24.65 242.45 C24.65 244.93 19.12 246.92 12.32 246.91 C5.51 246.9 0 244.87 0.01 242.39 C0.01 239.91 5.53 237.92 12.34 237.94 C19.14 237.95 24.65 239.97 24.64 242.45" class="st11"/></g><g id="shape4393-59" transform="translate(2.93199,-25.8718)"><title>Sheet.4393</title><path d="M18.89 244.08 C18.89 245.65 14.65 246.92 9.44 246.91 C4.23 246.89 0 245.61 0 244.03 C0.01 242.45 4.24 241.19 9.45 241.2 C14.67 241.21 18.89 242.5 18.89 244.08 Z" class="st12"/></g><g id="shape4394-61" transform="translate(4.89478,-25.8881)"><title>Sheet.4394</title><path d="M7.48 244.73 A22.7184 22.7184 -180 0 0 -0 245.79 A21.9442 21.9442 -180 0 0 7.48 246.92 A21.9727 21.9727 -180 0 0 14.96 245.84 A22.7082 22.7082 -180 0 0 7.48 244.73 Z" class="st13"/></g></g><g id="group4395-63" transform="translate(2.2988,-1.10257)"><title>Sheet.4395</title><g id="group4396-64" transform="translate(0,-1.40768)"><title>Icon-manage-307.6608</title><g id="shape4397-65"><title>Sheet.4397</title><path d="M6.21 241.6 L11.53 241.6 L11.53 246.92 L6.21 246.92 L6.21 241.6 ZM0.74 246.92 L5.32 246.92 L5.32 241.6 L0 241.6 L0 246.19 a0.73885 0.73885 -180 0 0 0.73885 0.73885 ZM0 240.77 L5.32 240.77 L5.32 235.4 L0 235.4 L0 240.77 Z" class="st14"/></g><g id="shape4398-69" transform="translate(6.15708,-6.09551)"><title>Sheet.4398</title><path d="M7.33 232.21 A7.25304 7.25304 0 0 1 14.65 239.6 A7.25304 7.25304 0 0 1 7.33 246.92 L0 246.92 L0 239.54 A7.25304 7.25304 0 0 1 7.33 232.21 Z" class="st15"/></g><g id="shape4399-73" transform="translate(8.66917,-9.50653)"><title>Sheet.4399</title><rect width="1.675" height="5.024" x="0" y="241.9" class="st8"/></g><g id="shape4400-75" transform="translate(12.0186,-9.50653)"><title>Sheet.4400</title><rect width="1.675" height="3.349" x="0" y="243.575" class="st8"/></g><g id="shape4401-77" transform="translate(15.3681,-9.50653)"><title>Sheet.4401</title><rect width="1.675" height="6.699" x="0" y="240.225" class="st8"/></g></g></g></g><g id="group4402-79" transform="translate(461.761,-81.7647)"><title>Sheet.4402</title><g id="group4403-80"><title>Sheet.4403</title><g id="shape4404-81"><title>Sheet.4404</title><path d="M12.51 222.76 C5.63 222.75 0.06 220.7 0.06 218.19 L0 242.34 C0 244.82 5.47 246.86 12.27 246.91 L12.45 246.91 C19.33 246.92 24.91 244.91 24.91 242.4 L24.98 218.26 C24.97 220.77 19.38 222.78 12.51 222.76 Z" class="st9"/></g><g id="shape4405-84" transform="translate(0.0554786,-24.1455)"><title>Sheet.4405</title><path d="M24.92 242.4 C24.92 244.91 19.34 246.92 12.46 246.91 C5.58 246.9 0 244.85 0.01 242.34 C0.01 239.83 5.6 237.82 12.47 237.83 C19.35 237.85 24.93 239.89 24.92 242.4 L24.92 242.4 Z" class="st10"/><path d="M24.92 242.4 C24.92 244.91 19.34 246.92 12.46 246.91 C5.58 246.9 0 244.85 0.01 242.34 C0.01 239.83 5.6 237.82 12.47 237.83 C19.35 237.85 24.93 239.89 24.92 242.4" class="st11"/></g><g id="shape4406-87" transform="translate(2.96502,-26.1633)"><title>Sheet.4406</title><path d="M19.1 244.05 C19.1 245.64 14.82 246.92 9.55 246.91 C4.27 246.89 0 245.59 0 244 C0.01 242.4 4.29 241.12 9.56 241.14 C14.83 241.15 19.11 242.45 19.1 244.05 Z" class="st12"/></g><g id="shape4407-89" transform="translate(4.94992,-26.1797)"><title>Sheet.4407</title><path d="M7.57 244.7 A22.9743 22.9743 -180 0 0 -0 245.78 A22.1914 22.1914 -180 0 0 7.56 246.92 A22.2202 22.2202 -180 0 0 15.13 245.83 A22.964 22.964 -180 0 0 7.57 244.7 Z" class="st13"/></g></g><g id="group4408-91" transform="translate(4.03132,-3.87425)"><title>Sheet.4408</title><g id="shape4409-92" transform="translate(0,-3.22239)"><title>Sheet.4409</title><path d="M-0 246.13 a0.793111 0.793111 -180 0 0 0.793092 0.793092 L16.18 246.92 a0.793111 0.793111 -180 0 0 0.793092 -0.793092 L16.97 233.46 a0.793111 0.793111 -180 0 0 -0.793092 -0.793092 L0.79 232.67 a0.793111 0.793111 -180 0 0 -0.793092 0.793092 L0 246.13 Z" class="st7"/></g><g id="shape4410-95" transform="translate(5.62043,-11.3732)"><title>Sheet.4410</title><ellipse cx="1.179" cy="245.739" class="st8" rx="1.179" ry="1.185"/></g><g id="shape4411-97" transform="translate(8.88764,-9.15235)"><title>Sheet.4411</title><ellipse cx="1.179" cy="245.739" class="st8" rx="1.179" ry="1.185"/></g><g id="shape4412-99" transform="translate(12.0517,-13.3606)"><title>Sheet.4412</title><ellipse cx="1.179" cy="245.739" class="st8" rx="1.179" ry="1.185"/></g><g id="shape4413-101" transform="translate(2.55957,-7.01486)"><title>Sheet.4413</title><ellipse cx="1.179" cy="245.739" class="st8" rx="1.179" ry="1.185"/></g><g id="shape4414-103" transform="translate(3.31098,-7.9007)"><title>Sheet.4414</title><path d="M0.85 246.92 L0 246.33 L3.36 241.55 L6.64 243.78 L9.5 239.97 L10.34 240.59 L6.87 245.2 L3.62 242.99 L0.85 246.92 Z" class="st8"/></g><g id="shape4415-105" transform="translate(6.00603,-0.299103)"><title>Sheet.4415</title><path d="M1.22 246.92 A1.2183 1.2183 0 0 1 0 245.71 C0.21 241.66 2.65 239.08 6.23 239.08 C9.81 239.08 12.26 241.66 12.45 245.64 A1.21934 1.21934 0 0 1 11.29 246.92 L1.22 246.92 L1.22 246.92 Z" class="st8"/></g><g id="shape4416-107" transform="translate(5.70797,-8.52651E-14)"><title>Sheet.4416</title><path d="M6.52 239.08 C10.1 239.08 12.28 241.73 12.45 245.36 a0.918153 0.918153 0 0 1 -0.871255 0.962966 L1.52 246.32 a0.917111 0.917111 0 0 1 -0.918153 -0.917111 C0.6 245.39 0.6 245.38 0.6 245.36 C0.78 241.74 2.96 239.08 6.52 239.08 ZM6.52 238.48 C2.77 238.48 0.21 241.17 0 245.33 L0 245.41 A1.51949 1.51949 -180 0 0 1.52 246.92 L11.55 246.92 L11.61 246.92 A1.51844 1.51844 -180 0 0 13.05 245.33 C12.85 241.23 10.23 238.48 6.53 238.48 L6.52 238.48 Z" class="st16"/></g><g id="shape4417-109" transform="translate(12.4915,-3.95817)"><title>Sheet.4417</title><path d="M2.48 245.56 A4.15931 4.15931 -180 0 0 -0 244.5 L0 246.43 A2.31779 2.31779 0 0 1 1.15 246.92 L2.48 245.56 Z" class="st12"/></g><g id="shape4418-111" transform="translate(9.4254,-3.95817)"><title>Sheet.4418</title><path d="M0 245.56 L1.33 246.92 A2.31779 2.31779 0 0 1 2.48 246.43 L2.48 244.5 A4.16243 4.16243 -180 0 0 0 245.56 Z" class="st12"/></g><g id="shape4419-113" transform="translate(14.0693,-2.34489)"><title>Sheet.4419</title><path d="M0 245.74 A2.4491 2.4491 0 0 1 0.48 246.92 L2.36 246.92 A4.40943 4.40943 -180 0 0 1.33 244.38 L0 245.74 Z" class="st17"/></g><g id="shape4420-115" transform="translate(7.97782,-2.34489)"><title>Sheet.4420</title><path d="M2.36 245.74 L1.03 244.38 A4.40109 4.40109 -180 0 0 0 246.92 L1.88 246.92 A2.45119 2.45119 0 0 1 2.36 245.74 Z" class="st12"/></g><g id="shape4421-117" transform="translate(11.9547,-2.10727)"><title>Sheet.4421</title><path d="M3.44 245.02 a0.416869 0.416869 -180 0 0 -0.378308 -0.242826 a0.404362 0.404362 -180 0 0 -0.174043 0.0396025 L0 246.17 L0.35 246.92 L3.24 245.57 a0.416869 0.416869 -180 0 0 0.201139 -0.553393 Z" class="st18"/></g><g id="shape4422-119" transform="translate(11.2377,-1.52365)"><title>Sheet.4422</title><ellipse cx=".994" cy="245.93" class="st19" rx=".994" ry=".994"/></g></g></g><g id="shape4423-121" transform="translate(391.965,-48.6002)"><title>Arrow.4423</title><path d="M0 246.92 L49.46 246.92" class="st20"/></g><g id="shape4424-127" transform="translate(392.514,-98.864)"><title>Arrow.4424</title><path d="M0 246.92 L48.26 246.92" class="st20"/></g><g id="group4426-132" transform="translate(246.063,-43.099)"><title>Data Pipelines Menu.4426</title><g id="group4427-133"><title>e8071740-76d7-444d-a08a-6a2072b</title><g id="shape4428-134" transform="translate(17.2098,0)"><title>Sheet.4428</title><path d="M90.81 180.93 L108.71 180.93 C118.23 180.93 125.94 195.72 125.94 213.91 L125.94 214.36 C125.8 232.42 118.14 246.88 108.71 246.88 L90.81 246.88 C100.36 246.88 108.05 232.13 108.05 213.9 C108.05 195.68 100.34 180.93 90.81 180.93 ZM30.14 190.58 C29.9 190.09 29.58 189.59 29.27 189.09 C26.24 184.02 22.27 180.94 17.89 180.94 L0 180.94 C4.37 180.94 8.35 184.02 11.37 189.09 A99.0118 68.622 0 0 1 17.26 213.91 A97.3258 67.4535 0 0 1 11.37 238.71 C8.35 243.84 4.37 246.92 0 246.92 L17.89 246.92 C22.27 246.92 26.16 243.89 29.19 238.82 A97.4531 67.5417 -180 0 0 35.15 214.35 L35.15 213.91 A103.473 71.7142 -180 0 0 30.14 190.58 Z" class="st22"/></g><g id="shape4429-138"><title>Sheet.4429</title><path d="M125.29 213.91 C125.29 232.15 117.57 246.92 108.03 246.92 C103.66 246.92 99.68 243.84 96.66 238.71 L108.03 238.71 C113.99 238.71 118.77 227.63 118.77 213.91 C118.77 200.18 113.99 189.11 108.03 189.11 L96.66 189.11 C99.68 184.03 103.66 180.95 108.03 180.95 C117.57 180.94 125.29 195.72 125.29 213.91 ZM17.24 180.93 C7.71 180.93 0 195.69 0 213.91 C0 232.13 7.72 246.89 17.24 246.89 C26.76 246.89 34.46 232.1 34.46 213.91 C34.46 195.72 26.75 180.93 17.24 180.93 Z" class="st23"/></g><g id="shape4430-140" transform="translate(6.48945,-8.2126)"><title>Sheet.4430</title><path d="M10.75 197.32 C16.72 197.32 21.5 208.43 21.5 222.12 C21.5 235.81 16.72 246.92 10.75 246.92 C4.78 246.92 0 235.82 0 222.12 C0 208.42 4.81 197.32 10.75 197.32 Z" class="st17"/></g><g id="shape4431-142" transform="translate(46.3964,-8.10236)"><title>Sheet.4431</title><path d="M72.37 222.01 C72.37 235.74 67.6 246.81 61.63 246.81 L41.35 246.81 L41.35 246.92 L0 246.92 A97.4531 67.5417 -180 0 0 5.96 222.45 L5.96 222.01 A103.473 71.7142 -180 0 0 0.95 198.7 C0.72 198.2 0.4 197.7 0.08 197.21 L61.63 197.21 C67.6 197.21 72.37 208.33 72.37 222.01 Z" class="st24"/></g></g></g><g id="shape4432-146" transform="translate(119.324,-76.1147)"><title>Arrow.4432</title><path d="M0 246.92 L137.45 246.92" class="st20"/></g><g id="shape4433-151" transform="translate(263.071,-12.3159)"><title>Sheet.4433</title><desc>Azure Monitor pipeline</desc><rect width="124.724" height="25.512" x="0" y="221.413" class="st25"/><text x="5.93" y="237.77" class="st26">Azure Monitor pipeline</text></g><g id="shape4435-154" transform="translate(342.441,-190.899)"><title>Sheet.4435</title><desc>DCRs</desc><rect width="59.528" height="25.512" x="0" y="221.413" class="st25"/><text x="17.27" y="237.77" class="st26">DCRs</text></g><g id="shape4436-157" transform="translate(59.577,-109.867)"><title>Dynamic connector.4436</title><path d="M0 246.92 L0 154.55 A5.66929 5.66929 0 0 1 5.67 148.88 L229.45 148.88" class="st27"/></g><g id="group4438-162" transform="translate(308.142,-184.773)"><title>Sheet.4438</title><g id="shape4439-163" transform="translate(5.79289,0)"><title>Rounded Rectangle.20113</title><path d="M1.45 246.92 L36.21 246.92 A1.4481 1.4481 -180 0 0 37.65 245.48 L37.65 207.21 A1.4481 1.4481 -180 0 0 36.21 205.76 L1.45 205.76 A1.4481 1.4481 -180 0 0 0 207.21 L0 245.48 A1.4481 1.4481 -180 0 0 1.45 246.92 Z" class="st28"/></g><g id="shape4440-167" transform="translate(8.15576,-10.7606)"><title>Sheet.4440</title><path d="M0 246.92 L27.45 246.92" class="st29"/></g><g id="shape4441-173" transform="translate(2.15827E-13,-20.5827)"><title>Rounded Rectangle.20114</title><path d="M1.39 246.92 L34.81 246.92 A1.3924 1.3924 -180 0 0 36.21 245.53 L36.21 232.84 A1.3924 1.3924 -180 0 0 34.81 231.45 L1.39 231.45 A1.3924 1.3924 -180 0 0 0 232.84 L0 245.53 A1.3924 1.3924 -180 0 0 1.39 246.92 Z" class="st31"/></g><g id="shape4442-177" transform="translate(3.62064,-29.1366)"><title>Rounded Rectangle.20115</title><path d="M0.17 246.92 L4.18 246.92 a0.167089 0.167089 -180 0 0 0.167091 -0.167091 L4.34 242.96 a0.167089 0.167089 -180 0 0 -0.167091 -0.167091 L0.17 242.8 a0.167089 0.167089 -180 0 0 -0.167091 0.167091 L0 246.76 a0.167089 0.167089 -180 0 0 0.167091 0.167091 Z" class="st32"/></g><g id="shape4443-179" transform="translate(3.98269,-24.2217)"><title>Rounded Rectangle.20116</title><path d="M0.14 246.92 L3.48 246.92 a0.13924 0.13924 -180 0 0 0.139243 -0.139243 L3.62 243.66 a0.13924 0.13924 -180 0 0 -0.139243 -0.139243 L0.14 243.52 a0.13924 0.13924 -180 0 0 -0.139243 0.139243 L0 246.79 a0.13924 0.13924 -180 0 0 0.139243 0.139243 Z" class="st33"/></g><g id="shape4444-181" transform="translate(9.77558,-30.9921)"><title>Sheet.4444</title><path d="M0 246.92 L22.09 246.92" class="st34"/></g><g id="shape4445-184" transform="translate(9.79859,-25.9234)"><title>Sheet.4445</title><path d="M0 246.92 L22.09 246.92" class="st35"/></g></g><g id="group4446-187" transform="translate(302.396,-179.844)"><title>Sheet.4446</title><g id="shape4447-188" transform="translate(5.79289,0)"><title>Rounded Rectangle.20113</title><path d="M1.45 246.92 L36.21 246.92 A1.4481 1.4481 -180 0 0 37.65 245.48 L37.65 207.21 A1.4481 1.4481 -180 0 0 36.21 205.76 L1.45 205.76 A1.4481 1.4481 -180 0 0 0 207.21 L0 245.48 A1.4481 1.4481 -180 0 0 1.45 246.92 Z" class="st28"/></g><g id="shape4448-191" transform="translate(8.15576,-10.7606)"><title>Sheet.4448</title><path d="M0 246.92 L27.45 246.92" class="st29"/></g><g id="shape4449-196" transform="translate(2.15827E-13,-20.5827)"><title>Rounded Rectangle.20114</title><path d="M1.39 246.92 L34.81 246.92 A1.3924 1.3924 -180 0 0 36.21 245.53 L36.21 232.84 A1.3924 1.3924 -180 0 0 34.81 231.45 L1.39 231.45 A1.3924 1.3924 -180 0 0 0 232.84 L0 245.53 A1.3924 1.3924 -180 0 0 1.39 246.92 Z" class="st31"/></g><g id="shape4450-199" transform="translate(3.62064,-29.1366)"><title>Rounded Rectangle.20115</title><path d="M0.17 246.92 L4.18 246.92 a0.167089 0.167089 -180 0 0 0.167091 -0.167091 L4.34 242.96 a0.167089 0.167089 -180 0 0 -0.167091 -0.167091 L0.17 242.8 a0.167089 0.167089 -180 0 0 -0.167091 0.167091 L0 246.76 a0.167089 0.167089 -180 0 0 0.167091 0.167091 Z" class="st32"/></g><g id="shape4451-201" transform="translate(3.98269,-24.2217)"><title>Rounded Rectangle.20116</title><path d="M0.14 246.92 L3.48 246.92 a0.13924 0.13924 -180 0 0 0.139243 -0.139243 L3.62 243.66 a0.13924 0.13924 -180 0 0 -0.139243 -0.139243 L0.14 243.52 a0.13924 0.13924 -180 0 0 -0.139243 0.139243 L0 246.79 a0.13924 0.13924 -180 0 0 0.139243 0.139243 Z" class="st33"/></g><g id="shape4452-203" transform="translate(9.77558,-30.9921)"><title>Sheet.4452</title><path d="M0 246.92 L22.09 246.92" class="st34"/></g><g id="shape4453-206" transform="translate(9.79859,-25.9234)"><title>Sheet.4453</title><path d="M0 246.92 L22.09 246.92" class="st35"/></g></g><g id="group4454-209" transform="translate(296.623,-174.568)"><title>Sheet.4454</title><g id="shape4455-210" transform="translate(5.79289,0)"><title>Rounded Rectangle.20113</title><path d="M1.45 246.92 L36.21 246.92 A1.4481 1.4481 -180 0 0 37.65 245.48 L37.65 207.21 A1.4481 1.4481 -180 0 0 36.21 205.76 L1.45 205.76 A1.4481 1.4481 -180 0 0 0 207.21 L0 245.48 A1.4481 1.4481 -180 0 0 1.45 246.92 Z" class="st28"/></g><g id="shape4456-213" transform="translate(8.15576,-10.7606)"><title>Sheet.4456</title><path d="M0 246.92 L27.45 246.92" class="st29"/></g><g id="shape4457-218" transform="translate(2.15827E-13,-20.5827)"><title>Rounded Rectangle.20114</title><path d="M1.39 246.92 L34.81 246.92 A1.3924 1.3924 -180 0 0 36.21 245.53 L36.21 232.84 A1.3924 1.3924 -180 0 0 34.81 231.45 L1.39 231.45 A1.3924 1.3924 -180 0 0 0 232.84 L0 245.53 A1.3924 1.3924 -180 0 0 1.39 246.92 Z" class="st31"/></g><g id="shape4458-221" transform="translate(3.62064,-29.1366)"><title>Rounded Rectangle.20115</title><path d="M0.17 246.92 L4.18 246.92 a0.167089 0.167089 -180 0 0 0.167091 -0.167091 L4.34 242.96 a0.167089 0.167089 -180 0 0 -0.167091 -0.167091 L0.17 242.8 a0.167089 0.167089 -180 0 0 -0.167091 0.167091 L0 246.76 a0.167089 0.167089 -180 0 0 0.167091 0.167091 Z" class="st32"/></g><g id="shape4459-223" transform="translate(3.98269,-24.2217)"><title>Rounded Rectangle.20116</title><path d="M0.14 246.92 L3.48 246.92 a0.13924 0.13924 -180 0 0 0.139243 -0.139243 L3.62 243.66 a0.13924 0.13924 -180 0 0 -0.139243 -0.139243 L0.14 243.52 a0.13924 0.13924 -180 0 0 -0.139243 0.139243 L0 246.79 a0.13924 0.13924 -180 0 0 0.139243 0.139243 Z" class="st33"/></g><g id="shape4460-225" transform="translate(9.77558,-30.9921)"><title>Sheet.4460</title><path d="M0 246.92 L22.09 246.92" class="st34"/></g><g id="shape4461-228" transform="translate(9.79859,-25.9234)"><title>Sheet.4461</title><path d="M0 246.92 L22.09 246.92" class="st35"/></g></g><g id="group4462-231" transform="translate(97.8262,-105.859)"><title>Sheet.4462</title><g id="shape4463-232" transform="translate(3.77953,0)"><title>Rounded Rectangle.20113</title><path d="M0.94 246.92 L23.62 246.92 a0.944803 0.944803 -180 0 0 0.944818 -0.944818 L24.57 221.01 a0.944803 0.944803 -180 0 0 -0.944818 -0.944818 L0.94 220.07 a0.944803 0.944803 -180 0 0 -0.944818 0.944818 L0 245.98 a0.944803 0.944803 -180 0 0 0.944818 0.944818 Z" class="st28"/></g><g id="shape4464-235" transform="translate(5.32116,-7.02065)"><title>Sheet.4464</title><path d="M0 246.92 L16.2 246.92" class="st29"/></g><g id="shape4465-240" transform="translate(1.43885E-13,-13.429)"><title>Rounded Rectangle.20114</title><path d="M0.91 246.92 L22.71 246.92 a0.908464 0.908464 -180 0 0 0.908479 -0.908479 L23.62 237.73 a0.908464 0.908464 -180 0 0 -0.908479 -0.908479 L0.91 236.83 a0.908464 0.908464 -180 0 0 -0.908479 0.908479 L0 246.02 a0.908464 0.908464 -180 0 0 0.908479 0.908479 Z" class="st31"/></g><g id="shape4466-243" transform="translate(2.36226,-19.01)"><title>Rounded Rectangle.20115</title><path d="M0.11 246.92 L2.73 246.92 a0.109016 0.109016 -180 0 0 0.109017 -0.109017 L2.83 244.34 a0.109016 0.109016 -180 0 0 -0.109017 -0.109017 L0.11 244.23 a0.109016 0.109016 -180 0 0 -0.109017 0.109017 L0 246.82 a0.109016 0.109016 -180 0 0 0.109017 0.109017 Z" class="st32"/></g><g id="shape4467-245" transform="translate(2.59848,-15.8033)"><title>Rounded Rectangle.20116</title><path d="M0.09 246.92 L2.27 246.92 a0.0908464 0.0908464 -180 0 0 0.0908479 -0.0908479 L2.36 244.79 a0.0908464 0.0908464 -180 0 0 -0.0908479 -0.0908479 L0.09 244.7 a0.0908464 0.0908464 -180 0 0 -0.0908479 0.0908479 L0 246.83 a0.0908464 0.0908464 -180 0 0 0.0908479 0.0908479 Z" class="st33"/></g><g id="shape4468-247" transform="translate(6.37801,-20.2206)"><title>Sheet.4468</title><path d="M0 246.92 L14.41 246.92" class="st34"/></g><g id="shape4469-250" transform="translate(6.39302,-16.9135)"><title>Sheet.4469</title><path d="M0 246.92 L14.41 246.92" class="st35"/></g></g><g id="group4470-253" transform="translate(93.8726,-102.352)"><title>Sheet.4470</title><g id="shape4471-254" transform="translate(3.77953,0)"><title>Rounded Rectangle.20113</title><path d="M0.94 246.92 L23.62 246.92 a0.944803 0.944803 -180 0 0 0.944818 -0.944818 L24.57 221.01 a0.944803 0.944803 -180 0 0 -0.944818 -0.944818 L0.94 220.07 a0.944803 0.944803 -180 0 0 -0.944818 0.944818 L0 245.98 a0.944803 0.944803 -180 0 0 0.944818 0.944818 Z" class="st28"/></g><g id="shape4472-257" transform="translate(5.32116,-7.02065)"><title>Sheet.4472</title><path d="M0 246.92 L16.2 246.92" class="st29"/></g><g id="shape4473-262" transform="translate(1.43885E-13,-13.429)"><title>Rounded Rectangle.20114</title><path d="M0.91 246.92 L22.71 246.92 a0.908464 0.908464 -180 0 0 0.908479 -0.908479 L23.62 237.73 a0.908464 0.908464 -180 0 0 -0.908479 -0.908479 L0.91 236.83 a0.908464 0.908464 -180 0 0 -0.908479 0.908479 L0 246.02 a0.908464 0.908464 -180 0 0 0.908479 0.908479 Z" class="st31"/></g><g id="shape4474-265" transform="translate(2.36226,-19.01)"><title>Rounded Rectangle.20115</title><path d="M0.11 246.92 L2.73 246.92 a0.109016 0.109016 -180 0 0 0.109017 -0.109017 L2.83 244.34 a0.109016 0.109016 -180 0 0 -0.109017 -0.109017 L0.11 244.23 a0.109016 0.109016 -180 0 0 -0.109017 0.109017 L0 246.82 a0.109016 0.109016 -180 0 0 0.109017 0.109017 Z" class="st32"/></g><g id="shape4475-267" transform="translate(2.59848,-15.8033)"><title>Rounded Rectangle.20116</title><path d="M0.09 246.92 L2.27 246.92 a0.0908464 0.0908464 -180 0 0 0.0908479 -0.0908479 L2.36 244.79 a0.0908464 0.0908464 -180 0 0 -0.0908479 -0.0908479 L0.09 244.7 a0.0908464 0.0908464 -180 0 0 -0.0908479 0.0908479 L0 246.83 a0.0908464 0.0908464 -180 0 0 0.0908479 0.0908479 Z" class="st33"/></g><g id="shape4476-269" transform="translate(6.37801,-20.2206)"><title>Sheet.4476</title><path d="M0 246.92 L14.41 246.92" class="st34"/></g><g id="shape4477-272" transform="translate(6.39302,-16.9135)"><title>Sheet.4477</title><path d="M0 246.92 L14.41 246.92" class="st35"/></g></g><g id="group4478-275" transform="translate(90.1576,-98.7726)"><title>Sheet.4478</title><g id="shape4479-276" transform="translate(3.77953,0)"><title>Rounded Rectangle.20113</title><path d="M0.94 246.92 L23.62 246.92 a0.944803 0.944803 -180 0 0 0.944818 -0.944818 L24.57 221.01 a0.944803 0.944803 -180 0 0 -0.944818 -0.944818 L0.94 220.07 a0.944803 0.944803 -180 0 0 -0.944818 0.944818 L0 245.98 a0.944803 0.944803 -180 0 0 0.944818 0.944818 Z" class="st28"/></g><g id="shape4480-279" transform="translate(5.32116,-7.02065)"><title>Sheet.4480</title><path d="M0 246.92 L16.2 246.92" class="st29"/></g><g id="shape4481-284" transform="translate(1.43885E-13,-13.429)"><title>Rounded Rectangle.20114</title><path d="M0.91 246.92 L22.71 246.92 a0.908464 0.908464 -180 0 0 0.908479 -0.908479 L23.62 237.73 a0.908464 0.908464 -180 0 0 -0.908479 -0.908479 L0.91 236.83 a0.908464 0.908464 -180 0 0 -0.908479 0.908479 L0 246.02 a0.908464 0.908464 -180 0 0 0.908479 0.908479 Z" class="st31"/></g><g id="shape4482-287" transform="translate(2.36226,-19.01)"><title>Rounded Rectangle.20115</title><path d="M0.11 246.92 L2.73 246.92 a0.109016 0.109016 -180 0 0 0.109017 -0.109017 L2.83 244.34 a0.109016 0.109016 -180 0 0 -0.109017 -0.109017 L0.11 244.23 a0.109016 0.109016 -180 0 0 -0.109017 0.109017 L0 246.82 a0.109016 0.109016 -180 0 0 0.109017 0.109017 Z" class="st32"/></g><g id="shape4483-289" transform="translate(2.59848,-15.8033)"><title>Rounded Rectangle.20116</title><path d="M0.09 246.92 L2.27 246.92 a0.0908464 0.0908464 -180 0 0 0.0908479 -0.0908479 L2.36 244.79 a0.0908464 0.0908464 -180 0 0 -0.0908479 -0.0908479 L0.09 244.7 a0.0908464 0.0908464 -180 0 0 -0.0908479 0.0908479 L0 246.83 a0.0908464 0.0908464 -180 0 0 0.0908479 0.0908479 Z" class="st33"/></g><g id="shape4484-291" transform="translate(6.37801,-20.2206)"><title>Sheet.4484</title><path d="M0 246.92 L14.41 246.92" class="st34"/></g><g id="shape4485-294" transform="translate(6.39302,-16.9135)"><title>Sheet.4485</title><path d="M0 246.92 L14.41 246.92" class="st35"/></g></g><g id="shape4486-297" transform="translate(295.67,-184.379)"><title>Dynamic connector.4486</title><path d="M0 246.92 L-176.11 246.92 A5.66929 5.66929 -180 0 0 -181.78 252.59 L-181.78 291.55" class="st27"/></g><g id="shape4488-302" transform="translate(564.562,74.4508) rotate(90)"><title>Arrow.4488</title><path d="M0 246.92 L56.35 246.92" class="st27"/></g><g id="shape4489-307" transform="translate(488.425,-84.5994)"><title>Sheet.4489</title><desc>Azure Monitor workspace</desc><rect width="134.646" height="25.512" x="0" y="221.413" class="st25"/><text x="4" y="237.77" class="st26">Azure Monitor workspace</text></g><g id="shape4490-310" transform="translate(488.425,-34.9931)"><title>Sheet.4490</title><desc>Log Analytics workspace</desc><rect width="132.945" height="25.512" x="0" y="221.413" class="st25"/><text x="4" y="237.77" class="st26">Log Analytics workspace</text></g><g id="shape4491-313" transform="translate(291.417,-57.7797)"><title>Sheet.4491</title><desc>Transformation</desc><rect width="75.685" height="15.481" x="0" y="231.443" class="st25"/><text x="9.46" y="241.88" class="st36">Transformation</text></g><g id="group4492-316" transform="translate(316.504,-72.3461)"><title>Sheet.4492</title><g id="shape4493-317"><title>Sheet.4493</title><path d="M11.82 246.79 L12.6 244.26 L14.07 243.42 L16.64 244.59 L18.32 242.9 L18.32 242.71 L17.16 240.44 L17.87 238.82 L20.44 237.91 L20.69 237.91 L20.69 235.57 L20.37 235.57 L17.8 234.79 L16.97 233.3 L18.06 230.64 L16.39 229.02 L16.19 229.02 L13.95 230.19 L12.4 229.22 L11.44 226.17 L9.06 226.17 L9.06 226.49 L8.29 229.02 L6.68 229.73 L3.92 228.44 L2.25 230.19 L2.38 230.51 L3.6 232.91 L2.96 234.53 L0 235.51 L0 237.91 L0.32 237.91 L2.83 238.69 L3.53 240.31 L2.31 243.1 L3.98 244.78 L4.24 244.65 L6.62 243.42 L8.23 244.07 L9.32 246.92 L11.63 246.92 L11.82 246.79 ZM8.03 239.14 C6.68 237.84 6.68 235.64 7.97 234.28 C9.25 232.91 11.44 232.91 12.79 234.21 C14.14 235.51 14.14 237.78 12.85 239.14 C11.89 240.11 10.41 240.44 9.13 239.92 C8.74 239.72 8.35 239.46 8.03 239.14 Z" class="st37"/></g></g><g id="shape4494-321" transform="translate(64.0792,-22.2373)"><title>Sheet.4494</title><desc>Azure Monitor agent</desc><rect width="85.606" height="25.512" x="0" y="221.413" class="st25"/><text x="7.29" y="230.57" class="st26">Azure Monitor<tspan x="28.96" class="st38" dy="1.2em">agent</tspan></text></g></g></svg>