<svg xmlns="http://www.w3.org/2000/svg" xmlns:ev="http://www.w3.org/2001/xml-events" xmlns:xlink="http://www.w3.org/1999/xlink" width="749.635" height="311.921" class="st33" color-interpolation-filters="sRGB" viewBox="0 0 562.227 233.941" xml:space="preserve"><style type="text/css">.st1{fill:#f2f2f2;stroke:#a5a5a5;stroke-linecap:round;stroke-linejoin:round;stroke-width:1.5}.st2{fill:#000;font-family:Segoe UI;font-size:1.16666em;font-weight:700}.st3{fill:url(#grad0-8);stroke:none;stroke-linecap:round;stroke-linejoin:round;stroke-width:.24}.st4,.st5{stroke:#83b9f9}.st4{marker-end:url(#mrkr2-14);stroke-width:3.5}.st5{fill:#83b9f9;fill-opacity:1;stroke-opacity:1;stroke-width:.7085020242915}.st6{fill:url(#grad0-18);stroke-linecap:round;stroke-linejoin:round}.st6,.st7{stroke:none;stroke-width:.24}.st7,.st8{stroke-linecap:round;stroke-linejoin:round}.st7{fill:#fff}.st8{fill:none;stroke-width:.25}.st10,.st8,.st9{stroke:#fff}.st9{stroke-width:1}.st10{stroke-width:.75}.st11{fill:url(#grad0-34)}.st11,.st12,.st13,.st14,.st15,.st16{stroke:none;stroke-linecap:butt;stroke-width:.75}.st12{fill:#9cebff}.st13{fill:#32bedd}.st14{fill:url(#grad0-42)}.st15{fill:url(#grad0-47)}.st16{fill:url(#grad0-51)}.st17{marker-end:url(#mrkr5-57);stroke:#000;stroke-linecap:round;stroke-linejoin:round;stroke-width:1.5}.st18{fill:#000;fill-opacity:1;stroke:#000;stroke-opacity:1;stroke-width:.37313432835821}.st19{fill:none;stroke:none;stroke-linecap:round;stroke-linejoin:round;stroke-width:.75}.st20{fill:#000;font-family:Calibri;font-size:1.00001em}.st21{marker-end:url(#mrkr5-57);stroke:#000;stroke-dasharray:1.5,3;stroke-linecap:round;stroke-linejoin:round;stroke-width:1.5}.st22{fill:#000;font-family:Calibri;font-size:.75em}.st23,.st24{fill:url(#grad0-76);stroke:#fff;stroke-linecap:butt;stroke-width:.75}.st24{fill:url(#grad0-87);stroke:none}.st25{fill:#e6e6e6}.st26,.st27,.st28,.st29,.st30,.st31{stroke:none;stroke-linecap:butt;stroke-width:.75}.st27{fill:#50e6ff}.st28{fill:#198ab3}.st29{fill:url(#grad0-100)}.st30{fill:url(#grad0-104)}.st31{fill:#fff}.st32{font-size:1em}.st33{fill:none;fill-rule:evenodd;font-size:12px;overflow:visible;stroke-linecap:square;stroke-miterlimit:3}</style><defs id="Patterns_And_Gradients"><linearGradient id="grad0-8" x1="0" x2="1" y1="0" y2="0" gradientTransform="rotate(90 0.5 0.5)"><stop offset="0" stop-color="#4d98ea" stop-opacity="1"/><stop offset="1" stop-color="#0078d4" stop-opacity="1"/></linearGradient><linearGradient id="grad0-18" x1="0" x2="1" y1="0" y2="0" gradientTransform="rotate(90 0.5 0.5)"><stop offset="0" stop-color="#4be0fa" stop-opacity="1"/><stop offset="1" stop-color="#3dcce9" stop-opacity="1"/></linearGradient><linearGradient id="grad0-34" x1="0" x2="1" y1="0" y2="0" gradientTransform="rotate(90 0.5 0.5)"><stop offset="0" stop-color="#32bedd" stop-opacity="1"/><stop offset=".065" stop-color="#3dcce9" stop-opacity="1"/><stop offset=".17" stop-color="#48dbf5" stop-opacity="1"/><stop offset=".295" stop-color="#4ee3fd" stop-opacity="1"/><stop offset=".49" stop-color="#50e6ff" stop-opacity="1"/><stop offset=".705" stop-color="#4ee4fd" stop-opacity="1"/><stop offset=".83" stop-color="#48dbf6" stop-opacity="1"/><stop offset=".93" stop-color="#3dcdea" stop-opacity="1"/><stop offset="1" stop-color="#32bedd" stop-opacity="1"/></linearGradient><linearGradient id="grad0-42" x1="0" x2="1" y1="0" y2="0" gradientTransform="rotate(90 0.5 0.5)"><stop offset="0" stop-color="#198ab3" stop-opacity="1"/><stop offset=".025" stop-color="#1d92b9" stop-opacity="1"/><stop offset=".1" stop-color="#26a5c9" stop-opacity="1"/><stop offset=".19" stop-color="#2cb2d4" stop-opacity="1"/><stop offset=".305" stop-color="#30bada" stop-opacity="1"/><stop offset=".53" stop-color="#31bcdc" stop-opacity="1"/><stop offset=".655" stop-color="#2eb5d6" stop-opacity="1"/><stop offset=".84" stop-color="#24a1c6" stop-opacity="1"/><stop offset="1" stop-color="#198ab3" stop-opacity="1"/></linearGradient><linearGradient id="grad0-47" x1="0" x2="1" y1="0" y2="0" gradientTransform="rotate(-90 0.5 0.5)"><stop offset="0" stop-color="#198ab3" stop-opacity="1"/><stop offset=".09" stop-color="#1f9dc4" stop-opacity="1"/><stop offset=".24" stop-color="#28b5d9" stop-opacity="1"/><stop offset=".4" stop-color="#2dc6e9" stop-opacity="1"/><stop offset=".57" stop-color="#31d1f2" stop-opacity="1"/><stop offset=".78" stop-color="#32d4f5" stop-opacity="1"/></linearGradient><linearGradient id="grad0-51" x1="0" x2="1" y1="0" y2="0" gradientTransform="rotate(90 0.5 0.5)"><stop offset="0" stop-color="#c69aeb" stop-opacity="1"/><stop offset="1" stop-color="#6f4bb2" stop-opacity="1"/></linearGradient><linearGradient id="grad0-76" x1="0" x2="1" y1="0" y2="0" gradientTransform="rotate(90 0.5 0.5)"><stop offset="0" stop-color="#7cafed" stop-opacity="1"/><stop offset="1" stop-color="#0066be" stop-opacity="1"/></linearGradient><linearGradient id="grad0-87" x1="0" x2="1" y1="0" y2="0" gradientTransform="rotate(0.12781289921392 0.5 0.5)"><stop offset="0" stop-color="#005ba1" stop-opacity="1"/><stop offset=".07" stop-color="#0060a9" stop-opacity="1"/><stop offset=".355" stop-color="#0071c8" stop-opacity="1"/><stop offset=".515" stop-color="#0078d4" stop-opacity="1"/><stop offset=".64" stop-color="#0074cd" stop-opacity="1"/><stop offset=".82" stop-color="#006abb" stop-opacity="1"/><stop offset="1" stop-color="#005ba1" stop-opacity="1"/></linearGradient><linearGradient id="grad0-100" x1="0" x2="1" y1="0" y2="0" gradientTransform="rotate(-90 0.5 0.5)"><stop offset="0" stop-color="#1988d9" stop-opacity="1"/><stop offset=".9" stop-color="#54aef0" stop-opacity="1"/></linearGradient><linearGradient id="grad0-104" x1="0" x2="1" y1="0" y2="0" gradientTransform="rotate(-90 0.5 0.5)"><stop offset="0" stop-color="#198ab3" stop-opacity="1"/><stop offset=".01" stop-color="#198bb4" stop-opacity="1"/><stop offset=".44" stop-color="#27b2d7" stop-opacity="1"/><stop offset=".79" stop-color="#2fcbed" stop-opacity="1"/><stop offset="1" stop-color="#32d4f5" stop-opacity="1"/></linearGradient></defs><defs id="Markers"><g id="lend2"><path style="stroke:none" d="M 1 1 L 0 0 L 1 -1 L 1 1"/></g><marker id="mrkr2-14" class="st5" markerUnits="strokeWidth" orient="auto" overflow="visible" refX="-1.411"><use transform="scale(-1.4114285714286,-1.4114285714286)" xlink:href="#lend2"/></marker><g id="lend5"><path style="stroke:none" d="M 2 1 L 0 0 L 1.98117 -0.993387 C 1.67173 -0.364515 1.67301 0.372641 1.98465 1.00043"/></g><marker id="mrkr5-57" class="st18" markerUnits="strokeWidth" orient="auto" overflow="visible" refX="-4.69"><use transform="scale(-2.68,-2.68)" xlink:href="#lend5"/></marker></defs><g><title>Page-1</title><g id="shape4708-1" transform="translate(157.183,-0.75)"><title>Rounded Rectangle.4708</title><desc>Azure Monitor</desc><path d="M10.93 233.94 L393.37 233.94 A10.9267 10.9267 -180 0 0 404.29 223.01 L404.29 12.43 A10.9267 10.9267 -180 0 0 393.37 1.5 L10.93 1.5 A10.9267 10.9267 -180 0 0 -0 12.43 L0 223.01 A10.9267 10.9267 -180 0 0 10.93 233.94 Z" class="st1"/><text x="296.28" y="22.1" class="st2">Azure Monitor</text></g><g id="group4709-4" transform="translate(229.823,-166.514)"><title>Sheet.4709</title><g id="shape4710-5" transform="translate(5.79289,2.84217E-14)"><title>Rounded Rectangle.20113</title><path d="M1.45 233.94 L36.21 233.94 A1.4481 1.4481 -180 0 0 37.65 232.49 L37.65 194.22 A1.4481 1.4481 -180 0 0 36.21 192.78 L1.45 192.78 A1.4481 1.4481 -180 0 0 0 194.22 L0 232.49 A1.4481 1.4481 -180 0 0 1.45 233.94 Z" class="st3"/></g><g id="shape4711-9" transform="translate(8.15576,-10.7606)"><title>Sheet.4711</title><path d="M0 233.94 L27.45 233.94" class="st4"/></g><g id="shape4712-15" transform="translate(2.15827E-13,-20.5827)"><title>Rounded Rectangle.20114</title><path d="M1.39 233.94 L34.81 233.94 A1.3924 1.3924 -180 0 0 36.21 232.55 L36.21 219.86 A1.3924 1.3924 -180 0 0 34.81 218.46 L1.39 218.46 A1.3924 1.3924 -180 0 0 0 219.86 L0 232.55 A1.3924 1.3924 -180 0 0 1.39 233.94 Z" class="st6"/></g><g id="shape4713-19" transform="translate(3.62064,-29.1366)"><title>Rounded Rectangle.20115</title><path d="M0.17 233.94 L4.18 233.94 a0.167089 0.167089 -180 0 0 0.167091 -0.167091 L4.34 229.98 a0.167089 0.167089 -180 0 0 -0.167091 -0.167091 L0.17 229.81 a0.167089 0.167089 -180 0 0 -0.167091 0.167091 L0 233.77 a0.167089 0.167089 -180 0 0 0.167091 0.167091 Z" class="st7"/></g><g id="shape4714-21" transform="translate(3.98269,-24.2217)"><title>Rounded Rectangle.20116</title><path d="M0.14 233.94 L3.48 233.94 a0.13924 0.13924 -180 0 0 0.139243 -0.139243 L3.62 230.68 a0.13924 0.13924 -180 0 0 -0.139243 -0.139243 L0.14 230.54 a0.13924 0.13924 -180 0 0 -0.139243 0.139243 L0 233.8 a0.13924 0.13924 -180 0 0 0.139243 0.139243 Z" class="st8"/></g><g id="shape4715-23" transform="translate(9.77558,-30.9921)"><title>Sheet.4715</title><path d="M0 233.94 L22.09 233.94" class="st9"/></g><g id="shape4716-26" transform="translate(9.79859,-25.9234)"><title>Sheet.4716</title><path d="M0 233.94 L22.09 233.94" class="st10"/></g></g><g id="group4718-29" transform="translate(178.442,-36.0347)"><title>Data Pipelines Menu.4718</title><g id="group4719-30"><title>e8071740-76d7-444d-a08a-6a2072b</title><g id="shape4720-31" transform="translate(17.2098,2.84217E-14)"><title>Sheet.4720</title><path d="M90.81 167.95 L108.71 167.95 C118.23 167.95 125.94 182.74 125.94 200.93 L125.94 201.38 C125.8 219.43 118.14 233.9 108.71 233.9 L90.81 233.9 C100.36 233.9 108.05 219.14 108.05 200.92 C108.05 182.7 100.34 167.95 90.81 167.95 ZM30.14 177.6 C29.9 177.1 29.58 176.61 29.27 176.11 C26.24 171.04 22.27 167.95 17.89 167.95 L0 167.95 C4.37 167.95 8.35 171.04 11.37 176.11 A99.0118 68.622 0 0 1 17.26 200.93 A97.3258 67.4535 0 0 1 11.37 225.73 C8.35 230.85 4.37 233.94 0 233.94 L17.89 233.94 C22.27 233.94 26.16 230.91 29.19 225.84 A97.4531 67.5417 -180 0 0 35.15 201.37 L35.15 200.93 A103.473 71.7142 -180 0 0 30.14 177.6 Z" class="st11"/></g><g id="shape4721-35"><title>Sheet.4721</title><path d="M125.29 200.93 C125.29 219.17 117.57 233.94 108.03 233.94 C103.66 233.94 99.68 230.85 96.66 225.73 L108.03 225.73 C113.99 225.73 118.77 214.65 118.77 200.93 C118.77 187.2 113.99 176.12 108.03 176.12 L96.66 176.12 C99.68 171.05 103.66 167.96 108.03 167.96 C117.57 167.95 125.29 182.74 125.29 200.93 ZM17.24 167.95 C7.71 167.95 0 182.7 0 200.93 C0 219.15 7.72 233.9 17.24 233.9 C26.76 233.9 34.46 219.11 34.46 200.93 C34.46 182.74 26.75 167.95 17.24 167.95 Z" class="st12"/></g><g id="shape4722-37" transform="translate(6.48945,-8.2126)"><title>Sheet.4722</title><path d="M10.75 184.33 C16.72 184.33 21.5 195.45 21.5 209.14 C21.5 222.83 16.72 233.94 10.75 233.94 C4.78 233.94 0 222.84 0 209.14 C0 195.44 4.81 184.33 10.75 184.33 Z" class="st13"/></g><g id="shape4723-39" transform="translate(46.3964,-8.10236)"><title>Sheet.4723</title><path d="M72.37 209.03 C72.37 222.75 67.6 233.83 61.63 233.83 L41.35 233.83 L41.35 233.94 L0 233.94 A97.4531 67.5417 -180 0 0 5.96 209.47 L5.96 209.03 A103.473 71.7142 -180 0 0 0.95 185.71 C0.72 185.22 0.4 184.72 0.08 184.22 L61.63 184.22 C67.6 184.22 72.37 195.35 72.37 209.03 Z" class="st14"/></g></g></g><g id="group4724-43" transform="translate(16.5842,-57.8612)"><title>Icon-web-42.4724</title><g id="shape4725-44"><title>Sheet.4725</title><path d="M29.37 210.45 A10.412 10.412 -180 0 0 18.74 200.34 A10.7341 10.7341 -180 0 0 8.54 207.41 A9.8968 9.8968 -180 0 0 -0 217.13 A10.0256 10.0256 -180 0 0 10.28 226.79 A6.44043 6.44043 -180 0 0 11.18 226.79 L13.76 226.79 A3.15581 3.15581 0 0 1 13.52 225.59 A3.24169 3.24169 0 0 1 13.95 224.02 L10.95 224.02 L10.28 224.02 A7.32063 7.32063 0 0 1 2.73 217.13 A7.14888 7.14888 0 0 1 8.97 210.11 L10.61 209.85 L11.14 208.29 A8.00761 8.00761 0 0 1 18.74 203.07 A7.72852 7.72852 0 0 1 26.64 210.48 L26.64 212.84 L28.98 213.16 A5.56024 5.56024 0 0 1 33.83 218.51 A5.64611 5.64611 0 0 1 28.21 223.96 L27.89 223.96 L27.72 223.96 L25.57 223.96 A8.4155 8.4155 -180 0 0 17.26 217.13 A1.37396 1.37396 -180 1 0 17.26 219.86 A5.68905 5.68905 0 0 1 17.26 231.21 A1.37396 1.37396 -180 1 0 17.26 233.94 A8.4155 8.4155 -180 0 0 25.57 226.77 L27.82 226.77 A1.37396 1.37396 -180 0 0 28.25 226.77 A8.39403 8.39403 -180 0 0 36.5 218.51 A8.28669 8.28669 -180 0 0 29.37 210.45 Z" class="st15"/></g><g id="shape4726-48" transform="translate(13.5249,-5.06647)"><title>Sheet.4726</title><path d="M0 230.63 A3.30617 3.30617 -180 0 0 3.31 233.94 L3.39 233.94 A3.30617 3.30617 -180 0 0 6.7 230.63 L6.7 230.55 A3.30617 3.30617 -180 0 0 3.39 227.24 L3.31 227.24 A3.30617 3.30617 -180 0 0 0 230.55 L0 230.63 Z" class="st16"/></g></g><g id="shape4727-52" transform="translate(53.5651,-68.7816)"><title>Arrow.4727</title><path d="M0 233.94 L135.21 233.94" class="st17"/></g><g id="shape4729-58" transform="translate(190.138,-3.58465)"><title>Sheet.4729</title><desc>Azure Monitor pipeline</desc><rect width="124.724" height="25.512" x="0" y="208.429" class="st19"/><text x="5.93" y="224.79" class="st20">Azure Monitor pipeline</text></g><g id="shape4730-61" transform="translate(258.991,-176.925)"><title>Sheet.4730</title><desc>DCR</desc><rect width="59.528" height="25.512" x="0" y="208.429" class="st19"/><text x="19.62" y="224.79" class="st20">DCR</text></g><g id="shape4731-64" transform="translate(485.166,70.3081) rotate(90)"><title>Arrow.4731</title><path d="M0 233.94 L56.35 233.94" class="st21"/></g><g id="shape4732-69" transform="translate(225.004,-48.939)"><title>Sheet.4732</title><desc>Transformation</desc><rect width="75.685" height="15.481" x="0" y="218.46" class="st19"/><text x="9.46" y="228.9" class="st22">Transformation</text></g><g id="group4733-72" transform="translate(250.091,-63.5054)"><title>Sheet.4733</title><g id="shape4734-73"><title>Sheet.4734</title><path d="M11.82 233.81 L12.6 231.28 L14.07 230.44 L16.64 231.61 L18.32 229.92 L18.32 229.72 L17.16 227.45 L17.87 225.83 L20.44 224.92 L20.69 224.92 L20.69 222.59 L20.37 222.59 L17.8 221.81 L16.97 220.32 L18.06 217.66 L16.39 216.04 L16.19 216.04 L13.95 217.21 L12.4 216.23 L11.44 213.18 L9.06 213.18 L9.06 213.51 L8.29 216.04 L6.68 216.75 L3.92 215.45 L2.25 217.21 L2.38 217.53 L3.6 219.93 L2.96 221.55 L0 222.52 L0 224.92 L0.32 224.92 L2.83 225.7 L3.53 227.32 L2.31 230.11 L3.98 231.8 L4.24 231.67 L6.62 230.44 L8.23 231.09 L9.32 233.94 L11.63 233.94 L11.82 233.81 ZM8.03 226.16 C6.68 224.86 6.68 222.65 7.97 221.29 C9.25 219.93 11.44 219.93 12.79 221.23 C14.14 222.52 14.14 224.79 12.85 226.16 C11.89 227.13 10.41 227.45 9.13 226.94 C8.74 226.74 8.35 226.48 8.03 226.16 Z" class="st23"/></g></g><g id="shape4736-77" transform="translate(54.5686,-76.7188)"><title>Dynamic connector.4736</title><path d="M0 233.94 L74.98 233.94 A5.66929 5.66929 -180 0 0 80.65 228.27 L80.65 131.33 A5.66929 5.66929 0 0 1 86.32 125.66 L165.39 125.66" class="st21"/></g><g id="group4737-82" transform="translate(394.819,-52.9055)"><title>Sheet.4737</title><g id="group4738-83"><title>Sheet.4738</title><g id="shape4739-84"><title>Sheet.4739</title><path d="M12.37 210.05 C5.56 210.03 0.05 208.01 0.06 205.53 L0 229.4 C0 231.86 5.41 233.87 12.14 233.92 L12.31 233.92 C19.11 233.94 24.63 231.95 24.64 229.47 L24.7 205.59 C24.69 208.07 19.17 210.07 12.37 210.05 Z" class="st24"/></g><g id="shape4740-88" transform="translate(0.0548606,-23.8765)"><title>Sheet.4740</title><path d="M24.65 229.47 C24.65 231.95 19.12 233.94 12.32 233.93 C5.51 233.91 0 231.89 0.01 229.41 C0.01 226.93 5.53 224.93 12.34 224.95 C19.14 224.97 24.65 226.98 24.64 229.47 L24.65 229.47 Z" class="st25"/><path d="M24.65 229.47 C24.65 231.95 19.12 233.94 12.32 233.93 C5.51 233.91 0 231.89 0.01 229.41 C0.01 226.93 5.53 224.93 12.34 224.95 C19.14 224.97 24.65 226.98 24.64 229.47" class="st26"/></g><g id="shape4741-91" transform="translate(2.93199,-25.8718)"><title>Sheet.4741</title><path d="M18.89 231.1 C18.89 232.67 14.65 233.94 9.44 233.92 C4.23 233.91 0 232.62 0 231.05 C0.01 229.47 4.24 228.2 9.45 228.22 C14.67 228.23 18.89 229.52 18.89 231.1 Z" class="st27"/></g><g id="shape4742-93" transform="translate(4.89478,-25.8881)"><title>Sheet.4742</title><path d="M7.48 231.74 A22.7184 22.7184 -180 0 0 -0 232.81 A21.9442 21.9442 -180 0 0 7.48 233.94 A21.9727 21.9727 -180 0 0 14.96 232.86 A22.7082 22.7082 -180 0 0 7.48 231.74 Z" class="st28"/></g></g><g id="group4743-95" transform="translate(2.2988,-1.10257)"><title>Sheet.4743</title><g id="group4744-96" transform="translate(0,-1.40768)"><title>Icon-manage-307.6608</title><g id="shape4745-97"><title>Sheet.4745</title><path d="M6.21 228.62 L11.53 228.62 L11.53 233.94 L6.21 233.94 L6.21 228.62 ZM0.74 233.94 L5.32 233.94 L5.32 228.62 L0 228.62 L0 233.2 a0.73885 0.73885 -180 0 0 0.73885 0.73885 ZM0 227.78 L5.32 227.78 L5.32 222.41 L0 222.41 L0 227.78 Z" class="st29"/></g><g id="shape4746-101" transform="translate(6.15708,-6.09551)"><title>Sheet.4746</title><path d="M7.33 219.23 A7.25304 7.25304 0 0 1 14.65 226.61 A7.25304 7.25304 0 0 1 7.33 233.94 L0 233.94 L0 226.55 A7.25304 7.25304 0 0 1 7.33 219.23 Z" class="st30"/></g><g id="shape4747-105" transform="translate(8.66917,-9.50653)"><title>Sheet.4747</title><rect width="1.675" height="5.024" x="0" y="228.917" class="st31"/></g><g id="shape4748-107" transform="translate(12.0186,-9.50653)"><title>Sheet.4748</title><rect width="1.675" height="3.349" x="0" y="230.592" class="st31"/></g><g id="shape4749-109" transform="translate(15.3681,-9.50653)"><title>Sheet.4749</title><rect width="1.675" height="6.699" x="0" y="227.242" class="st31"/></g></g></g></g><g id="shape4750-111" transform="translate(324.885,-69.3473)"><title>Arrow.4750</title><path d="M0 233.94 L49.46 233.94" class="st17"/></g><g id="shape4751-116" transform="translate(421.345,-55.7402)"><title>Sheet.4751</title><desc>Log Analytics workspace</desc><rect width="132.945" height="25.512" x="0" y="208.429" class="st19"/><text x="4" y="224.79" class="st20">Log Analytics workspace</text></g><g id="shape4752-119" transform="translate(0.375,-22.6474)"><title>Sheet.4752</title><desc>Custom application</desc><rect width="68.914" height="25.512" x="0" y="208.429" class="st19"/><text x="15.79" y="217.59" class="st20">Custom <tspan x="7.41" class="st32" dy="1.2em">application</tspan></text></g><g id="shape4753-123" transform="translate(93.4447,-46.1368)"><title>Sheet.4753</title><desc>REST API</desc><rect width="68.914" height="25.512" x="0" y="208.429" class="st19"/><text x="13.15" y="224.79" class="st20">REST API</text></g></g></svg>