<svg xmlns="http://www.w3.org/2000/svg" xmlns:ev="http://www.w3.org/2001/xml-events" xmlns:xlink="http://www.w3.org/1999/xlink" width="1313.002" height="223.042" class="st16" color-interpolation-filters="sRGB" viewBox="0 0 984.754 167.281" xml:space="preserve"><style type="text/css">.st1,.st2{fill:none;stroke:none;stroke-linecap:round;stroke-linejoin:round;stroke-width:.5}.st2{fill:#e6e6e6;stroke:#d8d8d8;stroke-width:2.25}.st3{fill:#000;font-family:Segoe UI Semibold;font-size:1.75001em}.st4{fill:none;stroke:none;stroke-linecap:round;stroke-linejoin:round;stroke-width:.75}.st5{fill:#000;font-family:Segoe UI Semibold;font-size:1.5em;font-weight:700}.st10,.st11,.st12{stroke:none;stroke-linecap:butt;stroke-width:.75}.st6{fill:#005ba1}.st6,.st7,.st8,.st9{stroke:none;stroke-linecap:butt;stroke-width:.75}.st7{fill:#50e6ff}.st8{fill:#c3f1ff}.st9{fill:#9cebff}.st10{fill:#0078d4}.st11{fill:url(#grad0-32)}.st12{fill:url(#grad0-46)}.st13{font-size:1em}.st14,.st15{fill:url(#grad0-58);stroke:none;stroke-linecap:butt;stroke-width:.75}.st15{fill:#fff}.st16{fill:none;fill-rule:evenodd;font-size:12px;overflow:visible;stroke-linecap:square;stroke-miterlimit:3}</style><defs id="Patterns_And_Gradients"><linearGradient id="grad0-32" x1="0" x2="1" y1="0" y2="0" gradientTransform="rotate(-90 0.5 0.5)"><stop offset="0" stop-color="#0078d4" stop-opacity="1"/><stop offset=".82" stop-color="#5ea0ef" stop-opacity="1"/></linearGradient><linearGradient id="grad0-46" x1="0" x2="1" y1="0" y2="0" gradientTransform="rotate(-90 0.5 0.5)"><stop offset=".15" stop-color="#ccc" stop-opacity="1"/><stop offset="1" stop-color="#707070" stop-opacity="1"/></linearGradient><linearGradient id="grad0-58" x1="0" x2="1" y1="0" y2="0" gradientTransform="rotate(-90 0.5 0.5)"><stop offset="0" stop-color="#5e9624" stop-opacity="1"/><stop offset=".18" stop-color="#629c25" stop-opacity="1"/><stop offset=".44" stop-color="#6dae2a" stop-opacity="1"/><stop offset=".73" stop-color="#7fcb30" stop-opacity="1"/><stop offset=".82" stop-color="#86d633" stop-opacity="1"/></linearGradient></defs><g><title>Page-1</title><g id="shape10989-1" transform="translate(0.25,-0.25)"><title>Sheet.10989</title><rect width="984.254" height="166.781" x="0" y=".5" class="st1"/></g><g id="group13029-3" transform="translate(5.75355,-18.443)"><title>Sheet.13029</title><g id="shape13030-4"><title>Sheet.13030</title><desc>Respond</desc><rect width="481.5" height="130.395" x="0" y="36.886" class="st2" rx="9" ry="9"/><text x="15.55" y="60.27" class="st3">Respond</text></g><g id="group13031-7" transform="translate(290.493,-25.8635)"><title>Sheet.13031</title><g id="group13032-8"><title>Sheet.13032</title><g id="shape13033-9" transform="translate(-13.1463,0.0696)"><title>Sheet.13033</title><desc>Autoscale</desc><rect width="107.14" height="26.633" x="0" y="140.649" class="st4"/><text x="13.71" y="160.85" class="st5">Autoscale</text></g></g><g id="group13034-12" transform="translate(7.30732,-25.8538)"><title>Icon-compute-34.10627</title><g id="shape13035-13" transform="translate(0,-26.9063)"><title>Sheet.13035</title><path d="M0 166.39 a0.892524 0.892524 -180 0 0 0.892503 0.892503 L25.65 167.28 a0.892524 0.892524 -180 0 0 0.892503 -0.892503 L26.54 150.45 a0.892524 0.892524 -180 0 0 -0.892503 -0.892503 L0.89 149.56 a0.892524 0.892524 -180 0 0 -0.892503 0.892503 L0 166.39 Z" class="st6"/></g><g id="shape13036-15" transform="translate(13.2825,-30.6076)"><title>Sheet.13036</title><path d="M4.41 159.54 L4.41 164.71 L0 167.28 L0 162.14 L4.41 159.54 Z" class="st7"/></g><g id="shape13037-17" transform="translate(8.84628,-35.7526)"><title>Sheet.13037</title><path d="M8.85 164.68 L4.44 167.28 L0 164.68 L4.44 162.08 L8.85 164.68 Z" class="st8"/></g><g id="shape13038-19" transform="translate(8.84628,-30.6076)"><title>Sheet.13038</title><path d="M4.44 162.14 L4.44 167.28 L0 164.71 L0 159.54 L4.44 162.14 Z" class="st9"/></g><g id="shape13039-21" transform="translate(10.4213,-16.7476)"><title>Sheet.13039</title><path d="M0 166.39 a0.892524 0.892524 -180 0 0 0.892503 0.892503 L25.65 167.28 a0.892524 0.892524 -180 0 0 0.892503 -0.892503 L26.54 150.45 a0.892524 0.892524 -180 0 0 -0.892503 -0.892503 L0.89 149.56 a0.892524 0.892524 -180 0 0 -0.892503 0.892503 L0 166.39 Z" class="st10"/></g><g id="shape13040-23" transform="translate(23.7038,-20.4226)"><title>Sheet.13040</title><path d="M4.41 159.54 L4.41 164.68 L0 167.28 L0 162.11 L4.41 159.54 Z" class="st7"/></g><g id="shape13041-25" transform="translate(19.2676,-25.5938)"><title>Sheet.13041</title><path d="M8.85 164.71 L4.44 167.28 L0 164.71 L4.44 162.11 L8.85 164.71 Z" class="st8"/></g><g id="shape13042-27" transform="translate(19.2676,-20.4226)"><title>Sheet.13042</title><path d="M4.44 162.11 L4.44 167.28 L0 164.68 L0 159.54 L4.44 162.11 Z" class="st9"/></g><g id="shape13043-29" transform="translate(18.0863,-6.87752)"><title>Sheet.13043</title><path d="M0 166.39 a0.892524 0.892524 -180 0 0 0.892503 0.892503 L25.65 167.28 a0.892524 0.892524 -180 0 0 0.892503 -0.892503 L26.54 150.45 a0.892524 0.892524 -180 0 0 -0.892503 -0.892503 L0.89 149.56 a0.892524 0.892524 -180 0 0 -0.892503 0.892503 L0 166.39 Z" class="st11"/></g><g id="shape13044-33" transform="translate(31.3689,-10.5525)"><title>Sheet.13044</title><path d="M4.41 159.54 L4.41 164.68 L0 167.28 L0 162.11 L4.41 159.54 Z" class="st7"/></g><g id="shape13045-35" transform="translate(26.9326,-15.6976)"><title>Sheet.13045</title><path d="M8.85 164.68 L4.44 167.28 L0 164.68 L4.44 162.08 L8.85 164.68 Z" class="st8"/></g><g id="shape13046-37" transform="translate(26.9326,-10.5525)"><title>Sheet.13046</title><path d="M4.44 162.14 L4.44 167.28 L0 164.68 L0 159.54 L4.44 162.14 Z" class="st9"/></g><g id="shape13047-39" transform="translate(26.9326,-10.5525)"><title>Sheet.13047</title><path d="M0 164.68 L4.44 162.11 L4.44 167.28 L0 164.68 Z" class="st8"/></g><g id="shape13048-41" transform="translate(31.3689,-10.5525)"><title>Sheet.13048</title><path d="M4.41 164.68 L0 162.11 L0 167.28 L4.41 164.68 Z" class="st9"/></g><g id="shape13049-43" transform="translate(24.8588,8.52651E-14)"><title>Sheet.13049</title><path d="M11.81 165.78 C9.19 165.36 9.19 163.47 9.19 160.53 L3.94 160.53 C3.94 163.58 3.94 165.47 1.31 165.78 A1.54876 1.54876 -180 0 0 0 167.28 L13.13 167.28 A1.54876 1.54876 -180 0 0 11.81 165.78 Z" class="st12"/></g></g></g><g id="group13050-47" transform="translate(128.493,-23.5698)"><title>Sheet.13050</title><g id="group13051-48"><title>Sheet.13051</title><g id="shape13052-49" transform="translate(-7.2899,-3.31899)"><title>Sheet.13052</title><desc>Alerts and Actions</desc><rect width="103.5" height="27.964" x="0" y="139.317" class="st4"/><text x="10.27" y="159.52" class="st5">Alerts and<tspan x="21.37" class="st13" dy="1.2em">Actions</tspan></text></g></g><g id="group13053-53" transform="translate(23.3898,-39.9021)"><title>Sheet.13053</title><g id="group13054-54"><title>Sheet.13054</title><g id="shape13055-55"><title>Sheet.13055</title><path d="M36 138.57 L36 161.51 A1.22824 1.22824 0 0 1 34.77 162.73 L25.2 162.73 a0.317647 0.317647 -180 0 0 -0.317647 0.296471 L24.88 166.74 a0.592941 0.592941 0 0 1 -0.952941 0.487059 L18.17 162.8 L17.98 162.8 L1.23 162.8 A1.22824 1.22824 0 0 1 -0 161.57 L0 138.57 A1.22824 1.22824 0 0 1 1.23 137.32 L34.77 137.32 A1.22824 1.22824 0 0 1 36 138.57 Z" class="st14"/></g><g id="shape13056-59" transform="translate(15.4588,-13.6099)"><title>Sheet.13056</title><path d="M3.68 167.28 L1.23 167.28 a0.762353 0.762353 0 0 1 -0.804706 -0.72 L0 154.15 a0.741176 0.741176 0 0 1 0.741176 -0.762353 L4.34 153.39 a0.741176 0.741176 0 0 1 0.741176 0.783529 L4.43 166.58 a0.741176 0.741176 0 0 1 -0.741176 0.698824 Z" class="st15"/></g><g id="shape13057-61" transform="translate(16.1576,-7.93464)"><title>Sheet.13057</title><path d="M0 165.99 A1.29179 1.29179 -180 0 0 1.29 167.28 L2.29 167.28 A1.29179 1.29179 -180 0 0 3.58 165.99 L3.58 164.99 A1.29179 1.29179 -180 0 0 2.29 163.7 L1.29 163.7 A1.29179 1.29179 -180 0 0 0 164.99 L0 165.99 Z" class="st15"/></g></g></g></g></g></g></svg>