<svg xmlns="http://www.w3.org/2000/svg" xmlns:xlink="http://www.w3.org/1999/xlink" width="1435.469" height="653.756" fill="none" fill-rule="evenodd" stroke-linecap="square" stroke-miterlimit="3" color-interpolation-filters="sRGB" font-size="12" overflow="visible" viewBox="0 0 1076.6 490.317"><style>.st1{fill:#fff;stroke:#e6e6e6;stroke-linecap:round;stroke-linejoin:round;stroke-width:2.25}.st3{fill:#000;font-family:Segoe UI Semibold;font-size:1.16666em;font-weight:700}.st4{fill:#fff;stroke:none;stroke-width:.75}.st4,.st5,.st8,.st9{stroke-linecap:round;stroke-linejoin:round}.st5{marker-end:url(#mrkr3-24);stroke:#a5a5a5;stroke-width:2}.st8{fill:#e6e6e6;stroke:#000;stroke-width:1.5}.st9{fill:none;stroke:none;stroke-width:.24}.st10{fill:#000;font-family:Segoe UI Semibold;font-size:1.33333em;font-weight:700}.st11{fill:#e6e6e6;stroke:#e6e6e6;stroke-linecap:round;stroke-linejoin:round;stroke-width:2.25}.st13{marker-end:url(#mrkr3-53);stroke:#0070c0;stroke-width:2}.st13,.st16,.st19{stroke-linecap:round;stroke-linejoin:round}.st16{fill:#0070c0;stroke:none;stroke-width:.75}.st19{marker-end:url(#mrkr3-110);stroke:#92d050;stroke-width:2}.st21{fill:#a5a5a5;font-family:Segoe UI Semibold;font-size:1.5em}.st24{fill:#0070c0}.st24,.st25,.st27{stroke:none;stroke-linecap:butt;stroke-width:.75}.st25{fill:#a0a1a2}.st27{fill:#fff}.st28,.st29{stroke:#0070c0;stroke-width:4}.st29{stroke-width:.5}</style><defs id="Markers"><marker id="mrkr3-24" fill="#a5a5a5" fill-opacity="1" stroke="#a5a5a5" stroke-opacity="1" stroke-width=".442" markerUnits="strokeWidth" orient="auto" overflow="visible"><use transform="scale(-2.26)" xlink:href="#lend3"/></marker><marker id="mrkr3-53" fill="#0070c0" fill-opacity="1" stroke="#0070c0" stroke-opacity="1" stroke-width=".442" markerUnits="strokeWidth" orient="auto" overflow="visible"><use transform="scale(-2.26)" xlink:href="#lend3"/></marker><marker id="mrkr3-110" fill="#92d050" fill-opacity="1" stroke="#92d050" stroke-opacity="1" stroke-width=".442" markerUnits="strokeWidth" orient="auto" overflow="visible"><use transform="scale(-2.26)" xlink:href="#lend3"/></marker><path id="lend3" stroke-linecap="round" stroke-linejoin="round" d="M2 1L0 0l2-1"/></defs><g id="group21107-1" transform="translate(847.192 -53.32)"><g id="shape21108-2"><rect width="223.245" height="47.335" y="442.982" class="st1" rx="9" ry="9"/></g><g id="shape21109-4"><path stroke-linecap="round" stroke-linejoin="round" stroke-width=".75" d="M0 452.148h206.967v38.17H0z" transform="translate(14.52 -4.583)"/><text x="4" y="475.43" class="st3" transform="translate(14.52 -4.583)">Non-Azure destinations</text></g></g><g id="group23092-7" transform="translate(852.192 -304.152)"><g id="shape23093-8"><rect width="223.245" height="40.67" y="449.647" class="st1" rx="9" ry="9"/></g><g id="shape23094-10"><path d="M0 457.522h195.57v32.795H0z" class="st4" transform="translate(14.76 -3.938)"/><text x="4" y="478.12" class="st3" transform="translate(14.76 -3.938)">Log Analytics</text></g></g><g id="group23096-13" transform="translate(852.229 -427.987)"><g id="shape23097-14"><rect width="223.245" height="40.67" y="449.647" class="st1" rx="9" ry="9"/></g><g id="shape23098-16"><path d="M0 457.522h195.57v32.795H0z" class="st4" transform="translate(14.76 -3.938)"/><text x="4" y="478.12" class="st3" transform="translate(14.76 -3.938)">Metrics Explorer</text></g></g><g id="shape23095-19"><path d="M0 481.78l146.83-.92" class="st5" transform="translate(705.364 -315.027)"/></g><g id="shape23099-25"><path d="M0 481.73l145.88-.82" class="st5" transform="translate(706.344 -438.911)"/></g><g id="shape21473-30"><path stroke="#e6e6e6" stroke-linecap="round" stroke-linejoin="round" stroke-width="4.5" d="M0 490.32h348.67" transform="rotate(90 214.505 321.996)"/></g><g id="group21070-33" transform="translate(627.681 -281.189)"><g id="group21071-34" transform="translate(0 -5.458)"><g id="shape21072-35"><path d="M0 482.93a38.842 7.384-180 1077.68 0v-59.07H0v59.07z" class="st8"/></g><ellipse id="shape21071-37" cx="38.842" cy="423.861" class="st8" rx="38.842" ry="7.384"/></g><g id="group21073-39" transform="translate(5.654 -14.785)"><g id="shape21074-40"><path d="M0 484.8a33.188 5.519-180 1066.37 0v-44.15H0v44.15z" class="st9"/></g><g id="shape21073-42"><ellipse cx="33.188" cy="440.65" class="st9" rx="33.188" ry="5.519"/><text x="16.23" y="467.52" class="st10">Logs</text></g></g></g><g id="shape21091-45" transform="translate(3.375 -114.479)"><rect width="317.25" height="189" y="301.317" class="st11" rx="9" ry="9"/><text x="4" y="480.92" fill="#000" font-family="Segoe UI Semibold" font-size="1.5em">Azure Resources</text></g><g id="shape21092-48"><path d="M0 490.32h240.77a9 9-180 009-9v-88a9 9 0 019-9h68.48" class="st13" transform="translate(300.434 -200.487)"/></g><g id="shape21110-54"><path d="M0 490.32h138.71" class="st5" transform="rotate(-.082 -53498.856 -496412.752)"/></g><g id="group21114-59" transform="translate(28.183 -180.151)"><g id="shape21115-60"><rect width="272.25" height="40.67" y="449.647" fill="#0070c0" stroke-linecap="round" stroke-linejoin="round" stroke-width="2.25" rx="9" ry="9"/></g><g id="shape21116-62"><path d="M0 457.522h238.5v32.795H0z" class="st16" transform="translate(18 -3.938)"/><text x="4" y="478.12" class="st3" transform="translate(18 -3.938)">Resource Logs</text></g></g><g id="shape21117-65"><path d="M0 490.32h240.77a9 9 0 019 9v90.97a9 9-180 009 9h64.6" class="st13" transform="translate(300.434 -200.487)"/></g><g id="group21121-70" transform="translate(630.417 -162.674)"><g id="group21122-71" transform="translate(0 -1.162)"><g id="shape21123-72"><path d="M0 482.93a38.842 7.384-180 1077.68 0v-59.07H0v59.07z" class="st8"/></g><ellipse id="shape21122-74" cx="38.842" cy="423.861" class="st8" rx="38.842" ry="7.384"/></g><g id="group21124-76" transform="translate(5.654 -3.552)"><g id="shape21125-77"><path d="M0 484.8a33.188 5.519-180 1066.37 0v-44.15H0v44.15z" class="st9"/></g><g id="shape21124-79"><ellipse cx="33.188" cy="440.65" class="st9" rx="33.188" ry="5.519"/><text x="4.96" y="467.52" class="st10">Storage</text></g></g></g><g id="shape21127-82"><path d="M0 481.32h323.69" class="st13" transform="translate(300.434 -191.487)"/></g><g id="group21128-87" transform="translate(628.661 -407.189)"><g id="group21129-88" transform="translate(0 -5.458)"><g id="shape21130-89"><path d="M0 482.93a38.842 7.384-180 1077.68 0v-59.07H0v59.07z" class="st8"/></g><ellipse id="shape21129-91" cx="38.842" cy="423.861" class="st8" rx="38.842" ry="7.384"/></g><g id="group21131-93" transform="translate(5.654 -14.785)"><g id="shape21132-94"><path d="M0 484.8a33.188 5.519-180 1066.37 0v-44.15H0v44.15z" class="st9"/></g><g id="shape21131-96"><ellipse cx="33.188" cy="440.65" class="st9" rx="33.188" ry="5.519"/><text x="6.39" y="467.52" class="st10">Metrics</text></g></g></g><g id="group21145-99" transform="translate(28.183 -238.822)"><g id="shape21146-100"><rect width="272.25" height="40.67" y="449.647" fill="#92d050" stroke-linecap="round" stroke-linejoin="round" stroke-width="2.25" rx="9" ry="9"/></g><g id="shape21147-102"><path fill="#92d050" stroke-linecap="round" stroke-linejoin="round" stroke-width=".75" d="M0 457.522h238.5v32.795H0z" transform="translate(18 -3.938)"/><text x="4" y="478.12" class="st3" transform="translate(18 -3.938)">Metrics</text></g></g><g id="shape21148-105"><path d="M0 490.32h113a9 9-180 009-9V308.91a9 9 0 019-9h197.23" class="st19" transform="translate(300.434 -259.157)"/></g><g id="shape21168-111"><path d="M0 490.32h113a9 9 0 019 9v185.64a9 9-180 009 9h192.37" class="st19" transform="translate(300.434 -259.157)"/></g><g id="shape21183-116"><path d="M0 490.32h113a9 9-180 009-9v-60.83a9 9 0 019-9h196.25" class="st19" transform="translate(300.434 -259.157)"/></g><g id="shape21454-121" transform="translate(1.125 -448.522)"><rect width="317.25" height="40.67" y="449.647" class="st11" rx="9" ry="9"/><text x="4" y="475.38" class="st21">Custom Sources</text></g><g id="shape21455-124" transform="translate(1.125 -10.808)"><rect width="320.625" height="40.67" y="449.647" class="st11" rx="9" ry="9"/><text x="4" y="475.38" class="st21">Azure Tenant</text></g><g id="shape21456-127" transform="translate(1.125 -61.359)"><rect width="320.625" height="40.67" y="449.647" class="st11" rx="9" ry="9"/><text x="4" y="475.38" class="st21">Azure Subscription</text></g><g id="shape21457-130" transform="translate(1.125 -314.561)"><rect width="317.25" height="40.67" y="449.647" class="st11" rx="9" ry="9"/><text x="4" y="475.38" class="st21">Operating System</text></g><g id="shape21458-133" transform="translate(1.125 -368.726)"><rect width="317.25" height="40.67" y="449.647" class="st11" rx="9" ry="9"/><text x="4" y="475.38" class="st21">Application Code</text></g><g id="shape18453-136" transform="translate(629.437 -37.985)"><rect width="77.65" height="75.001" y="415.316" class="st8" rx="4.5" ry="4.5"/></g><g id="shape18454-138"><path stroke="#e6e6e6" stroke-linecap="round" stroke-linejoin="round" stroke-width=".75" d="M0 457.522h64.585v32.795H0z" transform="translate(635.97 -59.089)"/><text x="14.79" y="469.72" class="st3" transform="translate(635.97 -59.089)">Event <tspan x="18.84" dy="1.2em" font-size="1em">Hub</tspan></text></g><g id="group18455-142" transform="translate(691.32 -30.828)"><g id="shape18456-143"><path d="M0 464.251h27.93v26.066H0z" class="st4" transform="translate(0 -1.32)"/></g><g id="group18457-145"><g id="shape18458-146"><path d="M4.73 489.82c0 .29-.22.5-.5.5H.49a.48.48 0 01-.49-.5v-2.75c0-.28.21-.49.49-.49h3.74c.28 0 .5.21.5.49v2.75z" class="st24" transform="translate(12.554 -15.305)"/></g><g id="shape18459-148"><path d="M4.66 489.82c0 .29-.22.5-.5.5H.49a.48.48 0 01-.49-.5v-2.75c0-.28.21-.49.49-.49h3.74c.28 0 .5.21.5.49v2.75h-.07z" class="st24" transform="translate(19.325 -12.413)"/></g><g id="shape18460-150"><path d="M4.73 489.82c0 .29-.22.5-.5.5H.49a.48.48 0 01-.49-.5v-2.75c0-.28.21-.49.49-.49h3.74c.28 0 .5.21.5.49v2.75z" class="st24" transform="translate(12.554 -9.522)"/></g><g id="shape18461-152"><path d="M4.8 489.82c0 .29-.22.5-.5.5H.49a.48.48 0 01-.49-.5v-2.89c0-.28.21-.49.49-.49h3.74c.35 0 .57.21.57.49v2.89z" class="st24" transform="translate(5.784 -18.197)"/></g><g id="shape18462-154"><path d="M27.37 483.62H.49c-.28 0-.49.21-.49.49v5.71c0 .29.21.5.49.5h2.9c.28 0 .49-.21.49-.5v-2.39h20.1v2.39c0 .29.21.5.56.5h2.76c.28 0 .49-.21.49-.5v-5.71c.07-.28-.14-.49-.42-.49z" class="st24" transform="translate(0 -22.006)"/></g><g id="shape18463-156"><path d="M27.22 483.69h-2.75c-.28 0-.49.21-.49.49v2.33H3.81v-2.4c0-.28-.21-.49-.57-.49H.49c-.28 0-.49.21-.49.56v5.64c0 .29.21.5.49.5H27.3c.28 0 .49-.21.49-.5v-5.64c-.07-.28-.28-.49-.57-.49z" class="st24" transform="translate(.141)"/></g><g id="shape18464-158"><path d="M4.73 489.82c0 .29-.22.5-.5.5H.49a.48.48 0 01-.49-.5v-2.75c0-.28.21-.49.49-.49h3.74c.28 0 .5.21.5.49v2.75z" class="st24" transform="translate(5.854 -12.484)"/></g><g id="shape18465-160"><path d="M4.73 489.82c0 .29-.22.5-.5.5H.49a.48.48 0 01-.49-.5v-2.75c0-.28.21-.49.49-.49h3.74c.28 0 .5.21.5.49v2.75z" class="st24" transform="translate(5.784 -6.7)"/></g></g></g><g id="group18467-162" transform="translate(690.674 -281.189)"><g id="shape18468-163"><path d="M0 465.421h24.999v24.896H0z" class="st4"/></g><g id="group18469-165"><g id="shape18470-166"><path d="M0 483.387h6.93v6.93H0z" class="st25" transform="translate(0 -9.009)"/></g><g id="shape18471-168"><path d="M0 483.387h6.93v6.93H0z" class="st25" transform="translate(0 -18.018)"/></g><g id="shape18472-170"><path d="M0 483.387h6.93v6.93H0z" class="st25"/></g><g id="shape18473-172"><path d="M0 483.387h6.93v6.93H0z" class="st25" transform="translate(9.009)"/></g><g id="shape18474-174"><path d="M0 483.387h6.93v6.93H0z" class="st25" transform="translate(18.018)"/></g><g id="shape18475-176"><path fill="#0072c6" stroke-linecap="butt" stroke-width=".75" d="M12.13 466.06C5.34 466.06 0 471.4 0 478.19v12.13h12.13c6.79 0 12.12-5.34 12.12-12.13 0-6.79-5.33-12.13-12.12-12.13z" transform="translate(9.009 -9.009)"/></g><g id="shape18476-178"><path d="M0 482.69h2.08v7.63H0v-7.63z" class="st27" transform="translate(13.86 -15.246)"/></g><g id="shape18477-180"><path d="M0 484.77h2.08v5.55H0v-5.55z" class="st27" transform="translate(18.71 -15.246)"/></g><g id="shape18478-182"><path d="M0 479.92h2.08v10.4H0v-10.4z" class="st27" transform="translate(23.562 -15.246)"/></g></g></g><g id="group18481-184" transform="translate(690.187 -407.737)"><g id="shape18479-185"><path d="M0 464.132h25.883v26.186H0z" class="st4"/></g><g id="group21171-187" transform="translate(0 -2.124)"><g id="shape21172-188"><path d="M0 490.32h9.92" class="st28" transform="rotate(90 5.991 486.338)"/></g><g id="shape21173-191"><path d="M0 490.32h14.88" class="st28" transform="rotate(90 12.087 487.528)"/></g><g id="shape21174-194"><path d="M0 490.32h7.44" class="st28" transform="rotate(90 12.011 494.89)"/></g><g id="shape21175-197"><path d="M0 490.32h12.4" class="st28" transform="rotate(90 18.186 496.002)"/></g><g id="shape21176-200" transform="translate(0 -14.87)"><circle cx="2.011" cy="488.306" r="2.011" class="st16"/></g><g id="shape21177-202"><path d="M0 490.32h10.65" class="st29" transform="rotate(48.04 29.63 489.837)"/></g><g id="shape21178-205"><path d="M0 490.32h8.02" class="st29" transform="rotate(-37.269 -24.431 478.018)"/></g><g id="shape21179-208"><path d="M0 490.32h8.93" class="st29" transform="rotate(-35.311 -14.124 457.13)"/></g><g id="shape21180-211" transform="translate(7.287 -20.039)"><circle cx="2.011" cy="488.306" r="2.011" class="st16"/></g><g id="shape21181-213" transform="translate(14.573 -12.448)"><circle cx="2.011" cy="488.306" r="2.011" class="st16"/></g><g id="shape21182-215" transform="translate(21.86 -17.306)"><circle cx="2.011" cy="488.306" r="2.011" class="st16"/></g></g></g><g id="group18571-217" transform="translate(697.547 -154.145)"><g id="shape18572-218"><path d="M0 475.579h23.414v14.738H0z" class="st4" transform="translate(1.061 -7.763)"/></g><g id="shape18573-220"><path fill="#0078d7" stroke-linecap="butt" stroke-width=".75" d="M27.28 479.61h-2.1v9.75c0 .51-.45.96-.96.96H.96c-.51 0-.96-.45-.96-.96v-19.57c0-.51.45-.96.96-.96h13.19l3.44-5.99h9.63l4.78 8.35-4.72 8.42zm-8.6 5.1h4.65v-2.81h-4.65v2.81zm4.65-3.7v-1.4h-4.65v1.4h4.65zm-10.26 3.7h4.65v-2.81h-4.65v2.81zm0-3.7h4.65v-1.4h-.06l-.83-1.41h-3.76v2.81zm0-3.76h3.19l-1.6-2.81h-1.59v2.81zm1.08-3.7l-1.08-1.85v1.85h1.08zm-7.58-2.8H1.91v2.8h4.66v-2.8zm0 3.69H1.91v2.81h4.66v-2.81zm0 3.76H1.91v2.81h4.66v-2.81zm0 3.7H1.91v2.81h4.66v-2.81zm5.61-11.15H7.52v2.8h4.66v-2.8zm0 3.69H7.52v2.81h4.66v-2.81zm0 3.76H7.52v2.81h4.66v-2.81zm0 3.7H7.52v2.81h4.66v-2.81zm.89-11.15v.06-.06z" transform="matrix(1 0 0 -1 0 953.158)"/></g></g><g id="shape18856-222"><path d="M0 490.32h113a9 9 0 019 9v59.64a9 9-180 009 9h192.37" class="st19" transform="translate(300.434 -259.157)"/></g></svg>