<svg xmlns="http://www.w3.org/2000/svg" xmlns:ev="http://www.w3.org/2001/xml-events" xmlns:xlink="http://www.w3.org/1999/xlink" width="302.522" height="377.109" class="st10" color-interpolation-filters="sRGB" viewBox="0 0 226.891 282.832" xml:space="preserve"><style type="text/css">.st1{fill:#0078d7;stroke:#0070c0;stroke-linecap:round;stroke-linejoin:round;stroke-width:.75}.st2{fill:#fff;font-family:Segoe UI;font-size:1.00001em}.st3,.st4{stroke:#505050}.st3{marker-end:url(#mrkr5-12);stroke-linecap:round;stroke-linejoin:round;stroke-width:1}.st4{fill:#505050;fill-opacity:1;stroke-opacity:1;stroke-width:.28409090909091}.st5{fill:#fff;stroke:#0070c0;stroke-linecap:round;stroke-linejoin:round;stroke-width:.75}.st6{fill:#0070c0;font-family:Segoe UI;font-size:.833336em}.st7{fill:none;stroke:#0070c0;stroke-linecap:round;stroke-linejoin:round;stroke-width:.75}.st8{fill:#0070c0;font-family:Segoe UI;font-size:1.00001em;font-weight:700}.st9{font-size:1em}.st10{fill:none;fill-rule:evenodd;font-size:12px;overflow:visible;stroke-linecap:square;stroke-miterlimit:3}</style><defs id="Markers"><g id="lend5"><path d="M 2 1 L 0 0 L 1.98117 -0.993387 C 1.67173 -0.364515 1.67301 0.372641 1.98465 1.00043" style="stroke:none"/></g><marker id="mrkr5-12" class="st4" markerUnits="strokeWidth" orient="auto" overflow="visible" refX="-6.16"><use transform="scale(-3.52,-3.52)" xlink:href="#lend5"/></marker></defs><g><title>Page-1</title><g id="shape4871-1" transform="translate(0.375,-0.375)"><title>Sheet.4871</title><desc>Action Group</desc><rect width="101.25" height="73.688" x="0" y="209.144" class="st1" rx="9" ry="9"/><text x="15.3" y="223.94" class="st2">Action Group</text></g><g id="shape4866-4" transform="translate(58.3125,-183.187)"><title>Sheet.4866</title><desc>Target Resource</desc><rect width="101.25" height="64.125" x="0" y="218.707" class="st1" rx="9" ry="9"/><text x="7.82" y="233.51" class="st2">Target Resource</text></g><g id="shape4556-7" transform="translate(108.938,-123.007)"><title>Arrow Dyn Connector.4556</title><path d="M0 282.83 L0 302.8 A4.5 4.5 0 0 1 -4.5 307.3 L-53.44 307.3 A4.5 4.5 -180 0 0 -57.94 311.8 L-57.94 325.62" class="st3"/></g><g id="shape4558-13" transform="translate(98.5473,-189.668)"><title>Arrow Dyn Connector.4558</title><path d="M9 282.83 L9 312.99" class="st3"/></g><g id="shape4865-18" transform="translate(69.0081,-189.668)"><title>Sheet.4865</title><desc>Signal</desc><rect width="79.859" height="28.394" x="0" y="254.438" class="st5" rx="9" ry="9"/><text x="26.53" y="271.63" class="st6">Signal</text></g><g id="shape4868-21" transform="translate(36.3911,-113.531)"><title>Sheet.4868</title><desc>Alert Rule</desc><rect width="142.875" height="168.926" x="0" y="113.906" class="st7" rx="9" ry="9"/><text x="4" y="128.71" class="st8">Alert Rule</text></g><g id="shape4869-24" transform="translate(58.3125,-123.007)"><title>Sheet.4869</title><desc>Criteria / Logic Test</desc><rect width="101.25" height="32.056" x="0" y="250.776" class="st1" rx="9" ry="9"/><text x="27.63" y="263.2" class="st2">Criteria / <tspan x="24.02" class="st9" dy="1.2em">Logic Test</tspan></text></g><g id="shape4874-28" transform="translate(108.938,-123.007)"><title>Arrow Dyn Connector.4874</title><path d="M0 282.83 L0 303.28 A4.5 4.5 -180 0 0 4.5 307.78 L62.45 307.78 A4.5 4.5 0 0 1 66.95 312.28 L66.95 325.62" class="st3"/></g><g id="shape4876-33" transform="translate(11.0706,-9.66823)"><title>Sheet.4876</title><desc>Actions to do</desc><rect width="79.859" height="28.394" x="0" y="254.438" class="st5" rx="9" ry="9"/><text x="10.37" y="271.63" class="st6">Actions to do</text></g><g id="shape4877-36" transform="translate(125.266,-0.375)"><title>Sheet.4877</title><desc>Monitor condition</desc><rect width="101.25" height="73.688" x="0" y="209.144" class="st1" rx="9" ry="9"/><text x="29.24" y="223.94" class="st2">Monitor <tspan x="25.56" class="st9" dy="1.2em">condition</tspan></text></g><g id="shape4873-40" transform="translate(131.984,-9.66823)"><title>Sheet.4873</title><desc>Alert State</desc><rect width="88.345" height="28.394" x="0" y="254.438" class="st5" rx="9" ry="9"/><text x="21.12" y="271.63" class="st6">Alert State</text></g></g></svg>